<svg width="19" height="18" viewBox="0 0 19 18" fill="none" xmlns="http://www.w3.org/2000/svg">
<g id="Group 1000003727">
<path id="Path 403" d="M2.56674 10.5103C3.07381 10.9685 3.65757 11.334 4.29132 11.59C5.31905 12.0297 6.44872 12.1755 7.5544 12.0109C8.66008 11.8463 9.69837 11.3779 10.5534 10.6578C10.7096 10.5368 10.8001 10.5274 10.9531 10.6484C11.6753 11.1883 12.2586 11.8923 12.6547 12.7022C13.0508 13.5121 13.2485 14.4047 13.2313 15.3062C13.228 15.9179 12.9832 16.5036 12.5503 16.9358C12.1174 17.368 11.5313 17.6117 10.9196 17.6139C8.05022 17.6212 5.18085 17.6212 2.31147 17.6139C1.71435 17.6067 1.14263 17.3712 0.71374 16.9557C0.284852 16.5401 0.0313135 15.9762 0.00521971 15.3796C-0.0111051 14.4181 0.215026 13.4681 0.662706 12.617C1.11039 11.766 1.7652 11.0415 2.56674 10.5103Z" fill="#F4004D"/>
<path id="Path 404" d="M1.70508 5.8713C1.70431 4.89947 1.99171 3.94926 2.53096 3.14078C3.07022 2.3323 3.83709 1.70187 4.73463 1.32922C5.63216 0.956567 6.62006 0.85844 7.57338 1.04722C8.52669 1.236 9.40261 1.7032 10.0904 2.38978C10.7782 3.07636 11.2469 3.95148 11.4374 4.90446C11.6278 5.85744 11.5314 6.8455 11.1603 7.74369C10.7893 8.64188 10.1601 9.40985 9.35261 9.95052C8.54507 10.4912 7.59538 10.7803 6.62355 10.7812C5.32058 10.7812 4.07081 10.2642 3.14866 9.34366C2.22651 8.42312 1.70735 7.17427 1.70508 5.8713Z" fill="#F4004D"/>
<path id="Path 405" d="M16.6593 14.6253C17.0239 14.6253 17.3619 14.6207 17.7015 14.6253C17.833 14.6197 17.9628 14.6557 18.0725 14.7282C18.1823 14.8007 18.2664 14.9059 18.3128 15.029C18.3622 15.1398 18.3774 15.2628 18.3561 15.3823C18.3348 15.5017 18.2781 15.612 18.1934 15.6988C18.1305 15.7684 18.0529 15.8232 17.9662 15.859C17.8795 15.8948 17.7859 15.9107 17.6922 15.9057C17.3596 15.9057 17.027 15.9057 16.6593 15.9057C16.6593 16.0829 16.6593 16.2461 16.6593 16.4093C16.6662 16.6291 16.6601 16.8491 16.6413 17.0682C16.6203 17.2253 16.541 17.3688 16.4191 17.4701C16.2971 17.5713 16.1415 17.623 15.9832 17.6147C15.8219 17.6042 15.6705 17.5333 15.559 17.4163C15.4475 17.2993 15.384 17.1447 15.3812 16.9831C15.3734 16.6966 15.3812 16.4093 15.3812 16.1243C15.3812 16.0595 15.3751 15.9947 15.3696 15.9034C14.9917 15.9034 14.6263 15.9112 14.2625 15.9034C14.1315 15.8973 14.0059 15.8494 13.904 15.7668C13.8022 15.6842 13.7295 15.5712 13.6965 15.4443C13.656 15.3193 13.658 15.1844 13.702 15.0606C13.7461 14.9368 13.8297 14.831 13.9401 14.7597C14.0788 14.6842 14.2328 14.6413 14.3906 14.634C14.7091 14.6152 15.0292 14.6285 15.3821 14.6285V13.9641C15.3821 13.8376 15.3821 13.7104 15.3821 13.5839C15.3779 13.4986 15.3909 13.4134 15.4202 13.3332C15.4495 13.253 15.4946 13.1795 15.5529 13.1171C15.6111 13.0547 15.6813 13.0046 15.7592 12.9697C15.8371 12.9349 15.9212 12.916 16.0066 12.9142C16.092 12.9124 16.1769 12.9278 16.2562 12.9594C16.3355 12.991 16.4077 13.0381 16.4684 13.0981C16.5292 13.158 16.5773 13.2296 16.61 13.3085C16.6426 13.3874 16.6592 13.472 16.6586 13.5573C16.6718 13.8501 16.6585 14.1444 16.6624 14.438L16.6593 14.6253Z" fill="#F4004D"/>
</g>
</svg>
