<svg width="24" height="26" viewBox="0 0 24 26" fill="none" xmlns="http://www.w3.org/2000/svg">
<g clip-path="url(#clip0_429_736)">
<path d="M2.93942 0.492517C3.57178 0.613186 4.09644 0.966709 4.64672 1.27066C8.71798 3.53185 12.7877 5.79303 16.8559 8.05422C16.9216 8.08944 16.982 8.12857 17.0201 8.15075L13.3829 11.763C9.63993 8.04509 5.8808 4.31109 2.10547 0.561008L2.25387 0.491211L2.93942 0.492517Z" fill="#00A3AD"/>
<path d="M0.631646 1.51416C4.48402 5.34078 8.32633 9.15805 12.1586 12.966L0.601442 24.4458C0.325647 24.108 0.187093 23.669 0.141784 23.1941C0.134561 23.1133 0.137183 23.0311 0.137183 22.9502C0.137183 16.3127 0.137183 9.6753 0.137183 3.03786C0.128346 2.56403 0.25151 2.09699 0.493085 1.68833C0.522302 1.63952 0.554097 1.59226 0.588312 1.54677C0.600765 1.53351 0.615421 1.52248 0.631646 1.51416Z" fill="#00A3AD"/>
<path d="M2.10156 25.4328L13.396 14.2139L17.0286 17.8215C16.9801 17.8509 16.915 17.8939 16.8468 17.9318C12.5006 20.3495 8.15395 22.7661 3.80689 25.1817C3.29087 25.4766 2.68152 25.5663 2.10156 25.4328Z" fill="#00A3AD"/>
<path d="M14.5781 12.9745L16.1469 11.4175C16.906 10.6642 17.6664 9.91276 18.4202 9.15483C18.5299 9.04394 18.6106 9.02437 18.7525 9.1046C19.7696 9.67859 20.7934 10.2408 21.8125 10.8103C22.6662 11.2884 23.137 12.0124 23.137 12.9921C23.137 13.9718 22.6655 14.6958 21.8105 15.1739C20.7914 15.7434 19.7683 16.3069 18.7492 16.8763C18.6409 16.937 18.564 16.9716 18.4537 16.8607C17.1785 15.5848 15.9 14.3125 14.6182 13.0436C14.6029 13.0217 14.5895 12.9986 14.5781 12.9745Z" fill="#00A3AD"/>
</g>
<defs>
<clipPath id="clip0_429_736">
<rect width="23" height="25" fill="white" transform="translate(0.136719 0.492676)"/>
</clipPath>
</defs>
</svg>
