<svg width="24" height="28" viewBox="0 0 24 28" fill="none" xmlns="http://www.w3.org/2000/svg">
<g clip-path="url(#clip0_429_730)">
<path d="M17.2505 0.393066C17.337 1.50645 17.1009 2.62118 16.5679 3.61395C16.0349 4.60673 15.2259 5.43897 14.2303 6.01874C13.4398 6.50326 12.4977 6.70822 11.5664 6.59784C11.5705 6.14575 11.6068 5.69423 11.6749 5.24686C11.918 4.04577 12.5346 2.94352 13.4442 2.08505C14.3538 1.22657 15.5134 0.652157 16.7702 0.43764H16.9253L17.2505 0.393066Z" fill="#00A3AD"/>
<path d="M23.153 20.2089C22.9672 20.6393 22.8277 21.0547 22.6418 21.4555C21.9065 23.073 20.9197 24.5744 19.7147 25.9085C19.1605 26.6703 18.3241 27.201 17.376 27.3928C16.57 27.4781 15.7545 27.3658 15.0062 27.0663C14.4641 26.8882 13.9375 26.6806 13.3799 26.5321C12.3553 26.2716 11.2709 26.3286 10.2822 26.6952C9.58527 26.9327 8.88851 27.1705 8.17605 27.3634C7.76658 27.4887 7.33065 27.5133 6.90856 27.4355C6.48647 27.3578 6.0916 27.1799 5.7598 26.9181C5.19306 26.4741 4.67419 25.9769 4.21098 25.4337C2.13311 23.049 0.777705 20.1634 0.292415 17.0916C-0.0392371 15.371 0.0669464 13.5991 0.602103 11.9262C0.934687 10.8293 1.54399 9.82768 2.37591 9.00968C3.20784 8.19169 4.23694 7.58256 5.3726 7.2358C6.52712 6.85695 7.78043 6.85695 8.93496 7.2358C9.63193 7.45845 10.3132 7.71078 10.9946 7.96311C11.53 8.14908 12.1166 8.14908 12.652 7.96311C13.6518 7.56316 14.689 7.25484 15.7496 7.04265C16.9642 6.79787 18.2268 6.89621 19.3842 7.32568C20.5417 7.75515 21.5442 8.49748 22.2701 9.4623L22.3786 9.61052C21.3689 10.1481 20.546 10.958 20.0119 11.9396C19.4778 12.9211 19.256 14.0314 19.374 15.1326C19.4382 16.2347 19.8273 17.2965 20.4963 18.1951C21.1652 19.0937 22.0865 19.7921 23.153 20.2089Z" fill="#00A3AD"/>
</g>
<defs>
<clipPath id="clip0_429_730">
<rect width="23" height="27" fill="white" transform="translate(0.136719 0.393066)"/>
</clipPath>
</defs>
</svg>
