<svg width="17" height="17" viewBox="0 0 17 17" fill="none" xmlns="http://www.w3.org/2000/svg">
<g id="Group 1000003709">
<path id="Vector" d="M15.5389 12.7171C15.5389 13.4932 14.9413 14.3453 13.6417 15.0415C12.3693 15.7231 10.5668 16.1646 8.54024 16.1646C6.51366 16.1646 4.71117 15.7231 3.43878 15.0415C2.13915 14.3453 1.5416 13.4932 1.5416 12.7171C1.5416 11.941 2.13915 11.0889 3.43878 10.3927C4.71117 9.71108 6.51366 9.26963 8.54024 9.26963C10.5668 9.26963 12.3693 9.71108 13.6417 10.3927C14.9413 11.0889 15.5389 11.941 15.5389 12.7171Z" stroke="#8494AB" stroke-width="1.3"/>
<path id="Vector_2" d="M11.6161 4.01259C11.6161 5.71085 10.2394 7.08757 8.54115 7.08757C6.84288 7.08757 5.46616 5.71085 5.46616 4.01259C5.46616 2.31432 6.84288 0.937598 8.54115 0.937598C10.2394 0.937598 11.6161 2.31432 11.6161 4.01259Z" stroke="#8494AB" stroke-width="1.3"/>
</g>
</svg>
