<svg width="13" height="13" viewBox="0 0 13 13" fill="none" xmlns="http://www.w3.org/2000/svg">
<g id="Group 1000004372">
<path id="Vector" d="M0.459035 10.1134V3.84239C0.455024 3.22952 0.68751 2.63872 1.1081 2.19298C1.48984 1.78684 2.01096 1.54 2.56701 1.50192C2.77343 1.48857 2.9814 1.50006 3.19869 1.50006C3.19869 1.36967 3.20552 1.26536 3.19869 1.1626C3.17541 0.870783 3.29181 0.671166 3.57118 0.572754H3.7599C4.04455 0.67396 4.15288 0.883201 4.12929 1.17502C4.12153 1.27405 4.12929 1.37433 4.12929 1.47957H8.68513C8.68513 1.37402 8.69196 1.27405 8.68513 1.17502C8.66123 0.881649 8.7708 0.674581 9.0542 0.572754H9.24355C9.52447 0.670234 9.64025 0.870473 9.61604 1.1626C9.60766 1.26536 9.61604 1.36967 9.61604 1.4864C9.75417 1.4864 9.88082 1.4864 10.0072 1.4864C11.376 1.47585 12.3541 2.56272 12.356 3.76943C12.3591 5.91048 12.3591 8.05154 12.356 10.1926C12.3528 10.7944 12.1125 11.3708 11.6871 11.7965C11.2617 12.2222 10.6856 12.463 10.0838 12.4666C7.63347 12.4732 5.18301 12.4732 2.73246 12.4666C2.04956 12.47 1.44116 12.1562 1.02304 11.6678C0.65599 11.2334 0.455995 10.6822 0.459035 10.1134ZM1.38839 5.16303C1.38839 5.16303 1.38839 8.52766 1.38839 10.1504C1.38839 10.9311 1.98655 11.5378 2.7697 11.5387C5.19336 11.5422 7.61712 11.5422 10.041 11.5387C10.83 11.5387 11.4251 10.9315 11.4257 10.1417C11.4257 8.523 11.4204 5.16303 11.4204 5.16303H1.38839ZM3.20024 2.42768C1.84221 2.27245 1.24468 3.18548 1.40609 4.22206H11.4139C11.5744 2.94271 10.7351 2.27401 9.61356 2.43296C9.61356 2.72912 9.61604 3.02684 9.61356 3.32456C9.61417 3.38465 9.60291 3.44426 9.58043 3.49999C9.55795 3.55571 9.52469 3.60645 9.48255 3.64928C9.44041 3.69211 9.39023 3.7262 9.33489 3.74959C9.27955 3.77298 9.22013 3.78521 9.16005 3.78557C9.09892 3.78723 9.03806 3.77667 8.98106 3.75452C8.92405 3.73238 8.87203 3.69908 8.82804 3.65659C8.78405 3.6141 8.74897 3.56326 8.72486 3.50705C8.70075 3.45084 8.68809 3.39038 8.68761 3.32922C8.68389 3.20504 8.68761 3.08086 8.68761 2.95668V2.42395H4.1386C4.13495 2.43401 4.13235 2.44441 4.13084 2.455C4.13084 2.73005 4.13084 3.00511 4.12929 3.27986C4.12929 3.57633 3.93994 3.78185 3.66895 3.78433C3.39238 3.78682 3.20117 3.58099 3.20024 3.2783C3.20024 2.99704 3.20024 2.71484 3.20024 2.42768Z" fill="#F4004D"/>
<path id="Vector_2" d="M3.67478 9.2631C3.82564 9.2631 3.9765 9.25999 4.12705 9.2631C4.24839 9.26432 4.36441 9.31315 4.45011 9.39909C4.5358 9.48503 4.58432 9.60119 4.58521 9.72256C4.58638 9.84391 4.5397 9.96083 4.45528 10.048C4.37085 10.1352 4.25549 10.1855 4.13419 10.1882C3.8213 10.1951 3.5082 10.1951 3.19489 10.1882C3.07357 10.185 2.95831 10.1345 2.87365 10.0475C2.789 9.96054 2.74166 9.84394 2.7417 9.72256C2.74346 9.60147 2.79232 9.48583 2.87791 9.40017C2.96351 9.31451 3.0791 9.26556 3.20017 9.26372C3.35755 9.25999 3.51617 9.2631 3.67478 9.2631Z" fill="#F4004D"/>
<path id="Vector_3" d="M9.14503 10.1923C8.99789 10.1923 8.85107 10.1945 8.70425 10.1923C8.43326 10.1873 8.22715 9.98307 8.22902 9.72477C8.23088 9.46648 8.43606 9.26593 8.70922 9.26376C9.00286 9.26169 9.29671 9.26169 9.59077 9.26376C9.86393 9.26593 10.07 9.46493 10.0725 9.72384C10.075 9.98276 9.86424 10.1895 9.5858 10.1923C9.43929 10.1939 9.29185 10.1923 9.14503 10.1923Z" fill="#F4004D"/>
<path id="Vector_4" d="M9.15407 7.45072C9.00321 7.45072 8.85266 7.4532 8.7018 7.45072C8.43175 7.44575 8.22533 7.2393 8.22905 6.98132C8.23069 6.85798 8.28119 6.74032 8.36948 6.65418C8.45776 6.56804 8.57661 6.52045 8.69994 6.52186C9.00166 6.51876 9.30327 6.51876 9.60478 6.52186C9.7281 6.52128 9.84662 6.56966 9.93432 6.65638C10.022 6.74311 10.0717 6.86108 10.0726 6.98443C10.0726 7.10793 10.0235 7.22637 9.93619 7.31371C9.84887 7.40104 9.73044 7.4501 9.60695 7.4501C9.45578 7.4532 9.30492 7.45072 9.15407 7.45072Z" fill="#F4004D"/>
<path id="Vector_5" d="M3.66562 6.5221C3.81648 6.5221 3.96734 6.51962 4.11789 6.5221C4.241 6.5221 4.3591 6.57086 4.44636 6.65772C4.53361 6.74458 4.58292 6.86247 4.5835 6.9856C4.58354 7.04669 4.57151 7.10719 4.54811 7.16362C4.52471 7.22005 4.49039 7.2713 4.44712 7.31442C4.40386 7.35755 4.3525 7.3917 4.296 7.41492C4.2395 7.43814 4.17897 7.44996 4.11789 7.44972C3.81648 7.45406 3.51477 7.45344 3.21336 7.44972C2.94424 7.44661 2.73596 7.23675 2.7403 6.98001C2.74299 6.85666 2.79426 6.73936 2.88296 6.65361C2.97166 6.56786 3.09063 6.5206 3.21398 6.5221C3.36453 6.51993 3.51539 6.5221 3.66562 6.5221Z" fill="#F4004D"/>
<path id="Vector_6" d="M6.40078 7.45096C6.24992 7.45096 6.09907 7.45375 5.94852 7.45096C5.82503 7.45096 5.7066 7.4019 5.61928 7.31456C5.53197 7.22723 5.48291 7.10879 5.48291 6.98528C5.48357 6.86205 5.53304 6.7441 5.62049 6.65728C5.70794 6.57046 5.82623 6.52185 5.94945 6.5221C6.25489 6.51899 6.56033 6.51837 6.86577 6.5221C6.98719 6.52242 7.10355 6.57074 7.18949 6.65652C7.27543 6.7423 7.32398 6.85858 7.32455 6.98001C7.32546 7.04109 7.31425 7.10175 7.29159 7.15848C7.26893 7.21521 7.23525 7.26688 7.19251 7.31053C7.14977 7.35417 7.09881 7.38891 7.04257 7.41275C6.98633 7.43658 6.92592 7.44904 6.86484 7.4494C6.71026 7.45344 6.55568 7.45096 6.40078 7.45096Z" fill="#F4004D"/>
<path id="Vector_7" d="M6.40714 9.26317C6.558 9.26317 6.70886 9.261 6.85941 9.26317C6.92048 9.26268 6.98104 9.27431 7.03759 9.29738C7.09414 9.32045 7.14556 9.35451 7.18886 9.39759C7.23216 9.44066 7.26649 9.4919 7.28986 9.54834C7.31323 9.60477 7.32518 9.66528 7.32502 9.72636C7.32551 9.78765 7.31381 9.84843 7.29058 9.90515C7.26736 9.96187 7.23308 10.0134 7.18975 10.0567C7.14641 10.1001 7.09489 10.1344 7.03817 10.1576C6.98146 10.1808 6.92069 10.1925 6.85941 10.192C6.55428 10.1964 6.24852 10.197 5.94339 10.192C5.82001 10.1908 5.70217 10.1406 5.61574 10.0526C5.52931 9.9645 5.48136 9.84572 5.48244 9.72233C5.4847 9.60114 5.53411 9.4856 5.62018 9.40027C5.70626 9.31494 5.82221 9.26654 5.94339 9.26535C6.09767 9.26069 6.25256 9.26348 6.40714 9.26317Z" fill="#F4004D"/>
</g>
</svg>
