<svg width="29" height="26" viewBox="0 0 29 26" fill="none" xmlns="http://www.w3.org/2000/svg">
<path d="M14.0806 25.7645H3.58195C1.48159 25.7637 0 24.2462 0 22.0945V8.2567C0 6.10339 1.48003 4.58747 3.58038 4.58666C4.77332 4.58666 5.96626 4.57702 7.1592 4.5939C7.40405 4.5939 7.49948 4.51352 7.56363 4.28605C7.6841 3.86407 7.82412 3.44691 7.97275 3.03377C8.2088 2.36331 8.6397 1.78359 9.20708 1.37312C9.77446 0.96266 10.4509 0.741291 11.1448 0.738995C13.1004 0.728278 15.0561 0.728278 17.0117 0.738995C17.7057 0.739288 18.3828 0.959166 18.9509 1.36874C19.519 1.77831 19.9505 2.3577 20.1869 3.02815C20.3472 3.46862 20.4943 3.9123 20.6265 4.36563C20.6797 4.54567 20.765 4.59068 20.9394 4.58988C22.1715 4.58265 23.4035 4.58506 24.6356 4.58988C26.6608 4.58988 28.1604 6.12187 28.162 8.19481C28.162 12.8471 28.162 17.4996 28.162 22.1524C28.162 24.2285 26.6647 25.7693 24.6418 25.7693C21.1227 25.7683 17.6023 25.7667 14.0806 25.7645ZM14.0642 23.8355H24.5628C25.6455 23.8355 26.2838 23.1924 26.2838 22.0881C26.2838 17.4771 26.2838 12.8658 26.2838 8.25429C26.2838 7.16356 25.6494 6.50929 24.5926 6.50849C23.0969 6.50849 21.6012 6.50849 20.1055 6.50849C19.59 6.50849 19.2849 6.28424 19.1168 5.78509C18.8985 5.13243 18.692 4.47494 18.4745 3.82147C18.2242 3.06592 17.6829 2.66404 16.91 2.66323C15.0232 2.66323 13.1364 2.66323 11.2496 2.66323C10.4767 2.66323 9.93621 3.06512 9.68511 3.82308C9.47546 4.45806 9.27442 5.09626 9.06478 5.73124C8.87547 6.30272 8.58682 6.51251 7.99465 6.51251C6.52871 6.51251 5.0625 6.51251 3.59603 6.51251C2.50087 6.51251 1.87507 7.15553 1.87507 8.28885V22.0334C1.87507 23.219 2.48757 23.8411 3.65313 23.8411L14.0642 23.8355Z" fill="#A5B4CB"/>
<path d="M21.1207 14.6812C21.1332 18.6518 17.9831 21.9007 14.1078 21.9152C10.2325 21.9296 7.05338 18.7041 7.04008 14.7375C7.02678 10.7371 10.1691 7.47777 14.0507 7.47455C14.9755 7.47053 15.892 7.65377 16.7479 8.01381C17.6037 8.37384 18.3822 8.90361 19.0387 9.57285C19.6953 10.2421 20.2171 11.0377 20.5743 11.9142C20.9315 12.7907 21.1172 13.7309 21.1207 14.6812ZM19.2433 14.7005C19.2386 11.7812 16.9301 9.39557 14.1093 9.40039C13.4267 9.39645 12.7501 9.53164 12.1187 9.79814C11.4873 10.0646 10.9135 10.4571 10.4307 10.953C9.94787 11.4488 9.56553 12.038 9.30579 12.6867C9.04605 13.3353 8.91407 14.0304 8.91749 14.7318C8.92297 17.6254 11.2486 19.9869 14.0945 19.9885C16.9192 19.9893 19.248 17.5973 19.2433 14.7005Z" fill="#A5B4CB"/>
<path d="M23.477 10.3611C23.2909 10.3634 23.1083 10.3087 22.9525 10.2041C22.7967 10.0995 22.6747 9.9496 22.602 9.77357C22.5293 9.59753 22.5091 9.40325 22.5441 9.21541C22.579 9.02758 22.6676 8.85467 22.7984 8.71865C22.9292 8.58263 23.0965 8.48964 23.2789 8.4515C23.4612 8.41337 23.6505 8.4318 23.8227 8.50446C23.9949 8.57712 24.1421 8.70073 24.2458 8.85958C24.3494 9.01843 24.4047 9.20535 24.4048 9.39659C24.403 9.64989 24.305 9.89247 24.1317 10.0726C23.9584 10.2528 23.7235 10.3563 23.477 10.3611Z" fill="#A5B4CB"/>
</svg>
