<svg width="14" height="16" viewBox="0 0 14 16" fill="none" xmlns="http://www.w3.org/2000/svg">
<path id="Vector (Stroke)" fill-rule="evenodd" clip-rule="evenodd" d="M9.07144 0.966943C9.41722 0.823717 9.78782 0.75 10.1621 0.75C10.5364 0.75 10.907 0.823718 11.2527 0.966943C11.5985 1.11017 11.9127 1.3201 12.1773 1.58475C12.442 1.84939 12.6519 2.16357 12.7951 2.50935C12.9384 2.85513 13.0121 3.22573 13.0121 3.6C13.0121 3.97427 12.9384 4.34487 12.7951 4.69065C12.6522 5.03576 12.4428 5.34939 12.1789 5.61372L12.1773 5.61525L5.19477 12.6951C4.87127 13.0186 4.4325 13.2003 3.975 13.2003C3.5175 13.2003 3.07874 13.0186 2.75524 12.6951C2.43174 12.3716 2.25 11.9328 2.25 11.4753C2.25 11.0188 2.43101 10.5808 2.7533 10.2575L8.60935 4.30424C8.84172 4.06801 9.22161 4.06488 9.45785 4.29726C9.69408 4.52963 9.69721 4.90952 9.46483 5.14576L3.60378 11.1041C3.50533 11.2026 3.45 11.3361 3.45 11.4753C3.45 11.6146 3.50531 11.7481 3.60377 11.8466C3.70223 11.945 3.83576 12.0003 3.975 12.0003C4.11367 12.0003 4.24668 11.9455 4.34501 11.8478L4.34623 11.8466L11.3259 4.76967L11.3288 4.76673C11.482 4.61351 11.6036 4.43162 11.6865 4.23143C11.7694 4.03124 11.8121 3.81668 11.8121 3.6C11.8121 3.38332 11.7694 3.16876 11.6865 2.96857C11.6036 2.76839 11.482 2.58649 11.3288 2.43327C11.1756 2.28006 10.9937 2.15852 10.7935 2.0756C10.5933 1.99268 10.3788 1.95 10.1621 1.95C9.94541 1.95 9.73085 1.99268 9.53066 2.0756C9.33106 2.15828 9.14964 2.27935 8.9967 2.43193L8.99536 2.43327L2.01279 9.51313C1.49238 10.0335 1.2 10.7394 1.2 11.4753C1.2 12.2113 1.49237 12.9172 2.01278 13.4376C2.53319 13.958 3.23902 14.2503 3.975 14.2503C4.71098 14.2503 5.41681 13.958 5.93722 13.4376L11.7069 7.67546C11.9413 7.4413 12.3212 7.44155 12.5554 7.67601C12.7895 7.91048 12.7893 8.29038 12.5548 8.52454L6.78575 14.2861C6.04029 15.0316 5.02924 15.4503 3.975 15.4503C2.92076 15.4503 1.90971 15.0316 1.16425 14.2861C0.418793 13.5406 0 12.5296 0 11.4753C0 10.4218 0.418233 9.4114 1.16275 8.66609L8.14682 1.58474C8.41147 1.32009 8.72566 1.11017 9.07144 0.966943Z" fill="white"/>
</svg>
