<svg width="12" height="14" viewBox="0 0 12 14" fill="none" xmlns="http://www.w3.org/2000/svg">
<path fill-rule="evenodd" clip-rule="evenodd" d="M2.02848 2.68283C3.20312 2.56421 4.37795 2.50488 5.55289 2.50488C7.52153 2.50488 9.49545 2.60508 11.4571 2.79947C11.7868 2.83215 12.0276 3.12596 11.995 3.45572C11.9623 3.78547 11.6685 4.0263 11.3387 3.99362C9.41534 3.80302 7.48093 3.70488 5.55289 3.70488C4.41813 3.70488 3.28326 3.76219 2.14819 3.87685L2.14644 3.87702L2.14644 3.87702L0.956438 3.99369C0.626648 4.02602 0.33309 3.78488 0.300758 3.45509C0.268426 3.1253 0.509563 2.83174 0.839352 2.79941L2.02848 2.68283Z" fill="#A5B4CB"/>
<path fill-rule="evenodd" clip-rule="evenodd" d="M4.82595 2.14357L4.69767 2.90746C4.64279 3.23425 4.33338 3.45468 4.00658 3.3998C3.67979 3.34492 3.45936 3.03551 3.51424 2.70871L3.64257 1.94455C3.64501 1.93009 3.64755 1.91455 3.65018 1.89854C3.6891 1.66091 3.75464 1.26073 4.02417 0.955093C4.34682 0.589221 4.82741 0.475586 5.38345 0.475586H6.91179C7.47682 0.475586 7.9563 0.59928 8.27641 0.968176C8.54559 1.27837 8.60936 1.6787 8.64664 1.91275C8.64879 1.92623 8.65085 1.93916 8.65286 1.95149L8.78088 2.70797C8.83617 3.0347 8.61613 3.34438 8.2894 3.39967C7.96268 3.45497 7.65299 3.23493 7.5977 2.9082L7.46876 2.14631C7.44568 2.00471 7.43004 1.91587 7.40825 1.84296C7.38841 1.77658 7.37268 1.75766 7.37008 1.75466C7.36876 1.75314 7.36619 1.75033 7.35926 1.74584C7.35179 1.741 7.33516 1.7316 7.30393 1.72112C7.23811 1.69901 7.11804 1.67559 6.91179 1.67559H5.38345C5.17447 1.67559 5.05285 1.69812 4.98596 1.71978C4.95437 1.73001 4.93813 1.73904 4.93149 1.74323C4.92551 1.74701 4.92422 1.74877 4.9242 1.74879C4.92378 1.74926 4.9202 1.75332 4.91427 1.76504C4.90788 1.77765 4.89917 1.79835 4.8892 1.83152C4.86698 1.90543 4.85076 1.9963 4.82595 2.14357Z" fill="#A5B4CB"/>
<path fill-rule="evenodd" clip-rule="evenodd" d="M2.11313 4.64189C2.44381 4.62055 2.72919 4.87132 2.75053 5.202L3.12959 11.0745C3.14621 11.3116 3.15963 11.4869 3.18986 11.637C3.21893 11.7813 3.25601 11.8589 3.29262 11.9065C3.34426 11.9738 3.52181 12.1423 4.27511 12.1423H8.02011C8.77341 12.1423 8.95096 11.9738 9.00261 11.9065C9.03922 11.8589 9.0763 11.7813 9.10536 11.637C9.1356 11.4869 9.14901 11.3116 9.16563 11.0745L9.54469 5.202C9.56604 4.87132 9.85141 4.62055 10.1821 4.64189C10.5128 4.66324 10.7635 4.94861 10.7422 5.2793L10.3628 11.1567L10.3617 11.172C10.3466 11.3886 10.3291 11.6389 10.2817 11.8739C10.2321 12.1207 10.1423 12.3927 9.95428 12.6375C9.55676 13.155 8.89431 13.3423 8.02011 13.3423H4.27511C3.40091 13.3423 2.73846 13.155 2.34094 12.6375C2.15297 12.3927 2.06317 12.1207 2.01349 11.8739C1.96616 11.639 1.94864 11.3886 1.93348 11.172L1.93218 11.1535L1.55303 5.2793C1.53168 4.94861 1.78245 4.66324 2.11313 4.64189Z" fill="#A5B4CB"/>
<path fill-rule="evenodd" clip-rule="evenodd" d="M4.57422 9.53359C4.57422 9.20222 4.84285 8.93359 5.17422 8.93359H7.11672C7.44809 8.93359 7.71672 9.20222 7.71672 9.53359C7.71672 9.86496 7.44809 10.1336 7.11672 10.1336H5.17422C4.84285 10.1336 4.57422 9.86496 4.57422 9.53359Z" fill="#A5B4CB"/>
<path fill-rule="evenodd" clip-rule="evenodd" d="M4.08984 7.20059C4.08984 6.86922 4.35847 6.60059 4.68984 6.60059H7.60651C7.93788 6.60059 8.20651 6.86922 8.20651 7.20059C8.20651 7.53196 7.93788 7.80059 7.60651 7.80059H4.68984C4.35847 7.80059 4.08984 7.53196 4.08984 7.20059Z" fill="#A5B4CB"/>
</svg>
