<svg width="12" height="14" viewBox="0 0 12 14" fill="none" xmlns="http://www.w3.org/2000/svg">
<path fill-rule="evenodd" clip-rule="evenodd" d="M8.17955 0.991495C8.92444 0.896243 9.65914 1.20535 10.3803 1.88394L10.3815 1.88498C11.1048 2.56904 11.458 3.2868 11.4055 4.03765C11.3553 4.75692 10.9398 5.35249 10.4926 5.82489C10.4925 5.82495 10.4926 5.82483 10.4926 5.82489L5.70675 10.8905C5.55538 11.0551 5.35719 11.1894 5.17563 11.2865C4.99107 11.3852 4.77279 11.4725 4.56171 11.51L4.55772 11.5107L2.6803 11.8314C2.68015 11.8314 2.68045 11.8313 2.6803 11.8314C2.18167 11.9172 1.69095 11.7937 1.33789 11.4589C0.985318 11.1245 0.835548 10.6422 0.891196 10.1413L0.8914 10.1395L1.10852 8.23827C1.13654 8.02807 1.21322 7.80743 1.30031 7.62066C1.387 7.43478 1.50808 7.23102 1.65688 7.07261L1.65805 7.07137L6.44722 2.00221C6.89462 1.52961 7.46607 1.08273 8.17955 0.991495ZM7.31908 2.82674C7.31896 2.82687 7.31921 2.8266 7.31908 2.82674L2.5315 7.89422C2.53137 7.89437 2.53164 7.89408 2.5315 7.89422C2.4994 7.92858 2.44241 8.01089 2.38787 8.12784C2.33488 8.24145 2.30653 8.33949 2.29867 8.39281L2.08386 10.2738C2.08383 10.2741 2.08389 10.2736 2.08386 10.2738C2.06393 10.455 2.12105 10.5478 2.16362 10.5882C2.20567 10.628 2.29853 10.6795 2.47642 10.6488L4.35167 10.3285C4.35213 10.3284 4.35259 10.3284 4.35305 10.3283C4.40481 10.3188 4.50079 10.2866 4.60984 10.2283C4.7212 10.1687 4.7952 10.1093 4.82415 10.0775L4.83132 10.0696L9.62055 5.00054C10.0017 4.59796 10.1873 4.25691 10.2085 3.95398C10.2274 3.68264 10.1228 3.29226 9.55757 2.75746C8.99569 2.22894 8.60178 2.14727 8.33175 2.1818C8.03033 2.22035 7.69986 2.42461 7.31908 2.82674Z" fill="#A5B4CB"/>
<path fill-rule="evenodd" clip-rule="evenodd" d="M5.99112 2.66837C6.31854 2.61736 6.62532 2.84143 6.67633 3.16885C6.88487 4.50735 7.97115 5.53227 9.32278 5.66841C9.65248 5.70161 9.89284 5.99581 9.85963 6.32551C9.82642 6.65522 9.53223 6.89557 9.20252 6.86236C7.31082 6.67183 5.78377 5.23509 5.49064 3.35358C5.43962 3.02616 5.6637 2.71938 5.99112 2.66837Z" fill="#A5B4CB"/>
<path fill-rule="evenodd" clip-rule="evenodd" d="M0.297852 13.1479C0.297852 12.8165 0.566481 12.5479 0.897852 12.5479H11.3979C11.7292 12.5479 11.9979 12.8165 11.9979 13.1479C11.9979 13.4792 11.7292 13.7479 11.3979 13.7479H0.897852C0.566481 13.7479 0.297852 13.4792 0.297852 13.1479Z" fill="#A5B4CB"/>
</svg>
