<svg width="20" height="15" viewBox="0 0 20 15" fill="none" xmlns="http://www.w3.org/2000/svg">
<g id="Union">
<path id="Union_2" fill-rule="evenodd" clip-rule="evenodd" d="M10.0846 5.9879C9.29728 5.9879 8.65654 6.62864 8.65654 7.416C8.65654 8.20336 9.29728 8.8441 10.0846 8.8441C10.872 8.8441 11.5127 8.20336 11.5127 7.416C11.5127 6.62864 10.872 5.9879 10.0846 5.9879ZM10.0849 10.7483C8.24743 10.7483 6.75269 9.25356 6.75269 7.41608C6.75269 5.57859 8.24743 4.08385 10.0849 4.08385C11.9224 4.08385 13.4171 5.57859 13.4171 7.41608C13.4171 9.25356 11.9224 10.7483 10.0849 10.7483ZM19.4798 6.94185C18.8715 5.88315 15.5173 0.576341 9.82685 0.754377C4.56479 0.888618 1.50295 5.52517 0.689882 6.94185C0.522318 7.23604 0.522318 7.59592 0.689882 7.8901C1.28968 8.93452 4.5267 14.0804 10.1087 14.0804C10.1858 14.0804 10.2638 14.0795 10.3429 14.0776C15.6049 13.9433 18.6668 9.30678 19.4798 7.8901C19.6474 7.59592 19.6474 7.23604 19.4798 6.94185Z" fill="#F4004D"/>
</g>
</svg>
