<svg width="19" height="19" viewBox="0 0 19 19" fill="none" xmlns="http://www.w3.org/2000/svg">
<g id="eye-slash">
<path id="Vector" d="M11.6092 7.01709L7.39258 11.2338C6.85091 10.6921 6.51758 9.95042 6.51758 9.12542C6.51758 7.47542 7.85091 6.14209 9.50091 6.14209C10.3259 6.14209 11.0676 6.47542 11.6092 7.01709Z" stroke="#8494AB" stroke-width="1.5" stroke-linecap="round" stroke-linejoin="round"/>
<path id="Vector_2" d="M14.3508 3.93364C12.8925 2.83364 11.2258 2.23364 9.50085 2.23364C6.55918 2.23364 3.81751 3.96698 1.90918 6.96698C1.15918 8.14198 1.15918 10.117 1.90918 11.292C2.56751 12.3253 3.33418 13.217 4.16751 13.9336" stroke="#8494AB" stroke-width="1.5" stroke-linecap="round" stroke-linejoin="round"/>
<path id="Vector_3" d="M6.51758 15.4003C7.46758 15.8003 8.47591 16.017 9.50091 16.017C12.4426 16.017 15.1842 14.2836 17.0926 11.2836C17.8426 10.1086 17.8426 8.13364 17.0926 6.95864C16.8176 6.52531 16.5176 6.11698 16.2092 5.73364" stroke="#8494AB" stroke-width="1.5" stroke-linecap="round" stroke-linejoin="round"/>
<path id="Vector_4" d="M12.4262 9.70874C12.2095 10.8837 11.2512 11.8421 10.0762 12.0587" stroke="#8494AB" stroke-width="1.5" stroke-linecap="round" stroke-linejoin="round"/>
<path id="Vector_5" d="M7.39297 11.2336L1.16797 17.4586" stroke="#8494AB" stroke-width="1.5" stroke-linecap="round" stroke-linejoin="round"/>
<path id="Vector_6" d="M17.8344 0.791992L11.6094 7.01699" stroke="#8494AB" stroke-width="1.5" stroke-linecap="round" stroke-linejoin="round"/>
</g>
</svg>
