<svg width="24" height="21" viewBox="0 0 24 21" fill="none" xmlns="http://www.w3.org/2000/svg">
<g id="Group 1000004532">
<path id="Vector" d="M23.7215 18.947C23.6229 19.3422 23.4993 19.7223 23.2167 20.0367C22.8912 20.3996 22.4967 20.6851 22.0139 20.7013C20.8987 20.7382 19.7812 20.7128 18.7177 20.7128C18.7304 20.0327 18.7525 19.3381 18.7548 18.6436C18.7606 16.9406 18.7548 15.24 18.7548 13.5342C18.7548 12.8996 18.7101 12.2778 18.5007 11.6749C18.4915 11.6288 18.4864 11.5818 18.4856 11.5348C19.472 11.5924 20.4641 11.3934 21.4105 11.7401C22.687 12.2086 23.4476 13.1246 23.6786 14.4664C23.6884 14.5027 23.7018 14.5378 23.7186 14.5714L23.7215 18.947Z" fill="#828A9D"/>
<path id="Vector_2" d="M11.8618 20.7473H7.16202C6.5934 20.7473 6.34565 20.5004 6.34507 19.9351C6.34507 17.7026 6.34101 15.4695 6.34507 13.2364C6.34913 11.5635 7.40397 10.2367 9.03207 9.85826C9.27982 9.80458 9.53279 9.77826 9.78636 9.7798C11.1673 9.7723 12.5494 9.76826 13.9303 9.7798C15.5874 9.79191 16.9155 10.8447 17.288 12.4409C17.3466 12.7104 17.3747 12.9855 17.3716 13.2612C17.3785 15.4945 17.3797 17.7276 17.3751 19.9605C17.3751 20.4946 17.1192 20.7485 16.5813 20.749C15.0097 20.749 13.4365 20.7485 11.8618 20.7473Z" fill="#828A9D"/>
<path id="Vector_3" d="M11.8681 0.75C14.1234 0.754615 15.9766 2.58734 15.9801 4.81696C15.9792 5.90389 15.5465 6.94646 14.7761 7.71768C14.0058 8.4889 12.9601 8.92631 11.8669 8.93468C9.60813 8.94737 7.72473 7.06041 7.7433 4.80426C7.75612 3.72487 8.1963 2.694 8.96841 1.93508C9.74053 1.17617 10.7824 0.75038 11.8681 0.75Z" fill="#828A9D"/>
<path id="Vector_4" d="M5.02318 20.7478C4.28107 20.7478 3.51054 20.7553 2.73942 20.7443C2.34023 20.7391 1.92712 20.7605 1.54417 20.6664C0.583327 20.4305 0.00774776 19.6396 0.003106 18.6295C-0.00211599 17.4394 0.000204892 16.2499 0.003106 15.0604C0.00658732 13.0644 1.44263 11.5951 3.44904 11.5415C4.04028 11.5265 4.63211 11.5415 5.25352 11.5415C5.2013 11.7255 5.13748 11.8755 5.11775 12.0312C5.05973 12.4633 4.97792 12.8965 4.97444 13.3315C4.95935 15.3419 4.96457 17.3529 4.97037 19.3639C4.97037 19.8144 5.00345 20.2644 5.02318 20.7478Z" fill="#828A9D"/>
<path id="Vector_5" d="M7.70567 7.63331C7.68594 9.32528 6.29341 10.7029 4.61947 10.6861C2.91652 10.6688 1.53908 9.28836 1.55185 7.61312C1.55389 7.20964 1.63614 6.81055 1.79388 6.43879C1.95162 6.06703 2.18173 5.72994 2.47098 5.44692C2.76022 5.1639 3.1029 4.94054 3.47928 4.78966C3.85567 4.63879 4.25835 4.56339 4.66415 4.56781C6.35897 4.58915 7.72481 5.96615 7.70567 7.63331Z" fill="#828A9D"/>
<path id="Vector_6" d="M22.1717 7.61699C22.1787 9.29627 20.7989 10.6744 19.0966 10.686C17.4186 10.6969 16.0307 9.31992 16.015 7.62853C15.9999 5.95098 17.3832 4.5711 19.0838 4.56764C19.8999 4.56519 20.6836 4.88501 21.2626 5.45681C21.8417 6.02861 22.1687 6.80559 22.1717 7.61699Z" fill="#828A9D"/>
</g>
</svg>
