<svg width="23" height="19" viewBox="0 0 23 19" fill="none" xmlns="http://www.w3.org/2000/svg">
<g id="Group 1000003725">
<path id="Path 395" d="M11.5621 18.3701C10.0128 18.4261 8.46393 18.2468 6.96836 17.8385C6.51793 17.6778 6.08437 17.4734 5.67393 17.228C5.52948 17.1458 5.41602 17.0185 5.35099 16.8656C5.28596 16.7127 5.27298 16.5427 5.31403 16.3817C5.51467 15.0615 5.65052 13.7272 5.91206 12.4203C6.14504 11.3548 6.73207 10.3996 7.57748 9.71041C8.42288 9.02124 9.47682 8.63877 10.5674 8.62531C11.3672 8.56915 12.1708 8.62166 12.9564 8.78143C13.8947 9.03099 14.7383 9.55234 15.3812 10.2799C16.024 11.0075 16.4375 11.9089 16.5695 12.8708C16.7327 14.0356 16.8912 15.2004 17.0692 16.3629C17.1054 16.5403 17.0851 16.7246 17.0112 16.8898C16.9373 17.0551 16.8134 17.193 16.657 17.2842C16.1176 17.6316 15.5169 17.873 14.8871 17.9954C14.4596 18.1002 14.026 18.1784 13.5888 18.2296C12.7909 18.2991 11.9922 18.3397 11.5621 18.3701Z" fill="#F4004D"/>
<path id="Path 396" d="M11.1873 8.10381C10.427 8.10304 9.68391 7.87688 9.0521 7.45388C8.42029 7.03088 7.92808 6.43004 7.63768 5.72734C7.34728 5.02465 7.27174 4.25165 7.42061 3.50603C7.56947 2.76041 7.93606 2.07565 8.47403 1.53834C9.01199 1.00102 9.69718 0.63528 10.443 0.487324C11.1888 0.339368 11.9617 0.415837 12.6641 0.70709C13.3664 0.998343 13.9666 1.49131 14.3889 2.12363C14.8111 2.75596 15.0363 3.49927 15.0362 4.2596C15.0368 4.765 14.9376 5.26555 14.7444 5.73254C14.5511 6.19953 14.2676 6.62377 13.91 6.98092C13.5524 7.33807 13.1278 7.62111 12.6606 7.81381C12.1934 8.0065 11.6927 8.10505 11.1873 8.10381Z" fill="#F4004D"/>
<path id="Path 397" d="M15.7754 9.17971C16.2736 8.89438 16.8252 8.71461 17.3959 8.65155C17.9666 8.58849 18.5442 8.6435 19.0927 8.81315C19.6412 8.98281 20.1489 9.2635 20.5844 9.63775C21.0198 10.012 21.3736 10.4718 21.6237 10.9886C21.8751 11.6538 22.0547 12.344 22.1593 13.0474C22.2345 13.307 22.2169 13.5848 22.1096 13.833C22.0024 14.0811 21.8121 14.2842 21.5714 14.4074C20.8653 14.8552 20.0621 15.1271 19.2292 15.2006C18.8725 15.2458 18.5102 15.2498 18.1519 15.2857C17.9832 15.3028 17.9364 15.2404 17.9177 15.0795C17.7857 14.1427 17.6655 13.2058 17.4937 12.2799C17.2813 11.179 16.7414 10.1678 15.9448 9.37879C15.8927 9.32675 15.8431 9.27469 15.7957 9.22264C15.7874 9.20912 15.7806 9.19472 15.7754 9.17971Z" fill="#F4004D"/>
<path id="Path 398" d="M6.62769 9.19138C6.09729 9.69132 5.66005 10.2816 5.3364 10.9347C4.98853 11.7184 4.77374 12.5545 4.7009 13.4088C4.62282 13.9795 4.54476 14.5502 4.45107 15.1186C4.4381 15.1566 4.4158 15.1909 4.38621 15.2181C4.35662 15.2454 4.32067 15.2649 4.28165 15.2747C3.28588 15.2995 2.29651 15.1089 1.38131 14.7157C1.04318 14.5371 0.725847 14.3216 0.435097 14.0732C0.334213 13.9973 0.256552 13.8947 0.210888 13.7771C0.165224 13.6594 0.153369 13.5313 0.176674 13.4072C0.267322 12.742 0.402959 12.0836 0.582648 11.4367C0.784056 10.854 1.112 10.3232 1.54293 9.88227C1.97386 9.44138 2.49709 9.10142 3.07503 8.88675C3.65296 8.67209 4.27126 8.58808 4.88552 8.64076C5.49978 8.69343 6.09474 8.88146 6.62769 9.19138Z" fill="#F4004D"/>
<path id="Path 399" d="M4.53088 8.10305C4.09501 8.10374 3.66493 8.00335 3.27443 7.80973C2.88393 7.61612 2.54366 7.33458 2.28036 6.98723C2.01706 6.63988 1.83792 6.23621 1.757 5.80792C1.67608 5.37964 1.69561 4.93841 1.81403 4.51894C1.93245 4.09947 2.14654 3.71319 2.43948 3.39045C2.73242 3.06771 3.09624 2.81731 3.50231 2.65894C3.90838 2.50057 4.34565 2.43854 4.77974 2.47772C5.21384 2.51691 5.63294 2.65625 6.00409 2.88478C6.07543 2.91585 6.1322 2.97299 6.16282 3.04453C6.19344 3.11607 6.19559 3.19659 6.16881 3.26965C5.92108 4.44928 6.11148 5.67875 6.70439 6.7282C6.74882 6.78672 6.76949 6.85989 6.76225 6.933C6.75501 7.00612 6.72039 7.07379 6.66535 7.12246C6.40203 7.431 6.07472 7.67855 5.70613 7.84788C5.33753 8.01721 4.9365 8.10428 4.53088 8.10305Z" fill="#F4004D"/>
<path id="Path 400" d="M16.3203 4.0745C16.2977 3.90665 16.2672 3.57174 16.2032 3.24306C16.1816 3.1761 16.1856 3.10349 16.2144 3.03931C16.2433 2.97513 16.2949 2.92395 16.3594 2.89564C16.8554 2.58593 17.4354 2.43804 18.0191 2.47241C18.6029 2.50678 19.1615 2.72171 19.6177 3.08748C20.0739 3.45326 20.4052 3.95178 20.5657 4.51408C20.7262 5.07638 20.7079 5.67467 20.5135 6.22615C20.319 6.78194 19.9541 7.26221 19.4708 7.59861C18.9875 7.93502 18.4104 8.11042 17.8216 8.09985C17.4156 8.10017 17.0146 8.01052 16.6475 7.83732C16.2803 7.66412 15.956 7.4117 15.6981 7.09821C15.6488 7.05417 15.6181 6.99301 15.6123 6.92717C15.6065 6.86132 15.626 6.79574 15.6668 6.74376C16.1169 5.92747 16.3424 5.00639 16.3203 4.0745Z" fill="#F4004D"/>
</g>
</svg>
