<svg width="18" height="18" viewBox="0 0 18 18" fill="none" xmlns="http://www.w3.org/2000/svg">
<g id="Layer_1" clip-path="url(#clip0_757_4792)">
<path id="Vector" d="M6.63992 0.475098H11.7378L12.0345 0.502483C12.6747 0.560259 13.3263 0.560927 13.9528 0.686833C15.6118 1.0208 16.7671 1.98162 17.3505 3.58767C17.6324 4.36481 17.6977 5.17668 17.7003 5.99223C17.7064 7.94393 17.7154 9.89564 17.6947 11.847C17.6883 12.4648 17.6455 13.092 17.5274 13.6968C17.2083 15.3276 16.2744 16.4811 14.708 17.0903C13.9521 17.3842 13.156 17.4623 12.3543 17.4703C10.5554 17.4884 8.7562 17.5054 6.95734 17.4954C6.07096 17.4907 5.17989 17.487 4.30822 17.276C2.89636 16.934 1.84741 16.1348 1.22393 14.8146C0.839942 14.0024 0.722203 13.1288 0.713506 12.2431C0.694106 10.4026 0.673367 8.56177 0.688085 6.72162C0.690352 5.94601 0.746233 5.17148 0.855327 4.40355C1.0316 3.21162 1.60658 2.22241 2.58294 1.49103C3.41916 0.864169 4.38916 0.61503 5.41302 0.542559C5.82076 0.514172 6.23051 0.497473 6.63992 0.475098ZM9.2091 16.0046V15.9782C9.65898 15.9782 10.1092 15.9915 10.5584 15.9755C11.5231 15.9421 12.4941 15.9498 13.4494 15.8332C14.7097 15.6796 15.5727 14.9673 15.9543 13.7292C16.1289 13.1615 16.159 12.573 16.1657 11.9859C16.1831 10.4781 16.2049 8.96988 16.1915 7.46202C16.1834 6.56565 16.1607 5.66394 16.0577 4.77459C15.9001 3.40532 15.0315 2.47857 13.6828 2.21039C13.0941 2.0935 12.4824 2.05877 11.88 2.04875C10.3925 2.0237 8.90304 2.02838 7.41592 2.03339C6.56165 2.03606 5.70503 2.02504 4.85845 2.17365C3.56466 2.40042 2.67727 3.21964 2.41303 4.50508C2.2993 5.0598 2.26117 5.63656 2.24913 6.20463C2.22003 7.5739 2.20932 8.94316 2.22438 10.3124C2.23508 11.2702 2.26284 12.2311 2.35248 13.1845C2.43544 14.0696 2.84083 14.8136 3.59409 15.3309C4.17543 15.7317 4.84072 15.8833 5.53009 15.9094C6.75565 15.9551 7.98254 15.9732 9.2091 16.0036V16.0046Z" fill="white"/>
<path id="Vector_2" d="M4.82034 8.99794C4.81231 6.58903 6.78343 4.61996 9.2021 4.61963C10.3621 4.61857 11.4751 5.07723 12.2967 5.89489C13.1182 6.71256 13.5812 7.82236 13.5839 8.98057C13.6002 11.3881 11.6345 13.3612 9.2118 13.3696C6.79882 13.3779 4.8287 11.4172 4.82034 8.99794ZM9.19474 11.828C9.56754 11.8303 9.93714 11.7591 10.2823 11.6184C10.6275 11.4777 10.9414 11.2704 11.2061 11.0082C11.4707 10.746 11.6809 10.4343 11.8246 10.0908C11.9683 9.7473 12.0426 9.37886 12.0432 9.00662C12.0459 8.6344 11.975 8.26531 11.8346 7.92051C11.6941 7.57572 11.4868 7.26202 11.2246 6.9974C10.9624 6.73279 10.6505 6.52247 10.3067 6.37852C9.96285 6.23457 9.59397 6.15982 9.22116 6.15855C8.847 6.15529 8.4759 6.22608 8.1293 6.36685C7.7827 6.50762 7.46748 6.71557 7.20184 6.97868C6.9362 7.24179 6.72542 7.55486 6.58167 7.89978C6.43791 8.24471 6.36404 8.61466 6.36432 8.98825C6.36265 9.36049 6.43462 9.72938 6.5761 10.0738C6.71758 10.4182 6.92578 10.7313 7.18876 10.9951C7.45175 11.259 7.76433 11.4684 8.10856 11.6113C8.4528 11.7542 8.82192 11.8278 9.19474 11.828Z" fill="white"/>
<path id="Vector_3" d="M13.7824 3.42765C13.9173 3.42937 14.0505 3.45808 14.1741 3.51207C14.2977 3.56607 14.4092 3.64426 14.502 3.74202C14.5949 3.83978 14.6671 3.95513 14.7145 4.08125C14.762 4.20737 14.7836 4.34171 14.7781 4.47631C14.7748 4.60956 14.7452 4.74085 14.691 4.86267C14.6368 4.9845 14.5591 5.09447 14.4624 5.1863C14.3656 5.27813 14.2517 5.35003 14.1271 5.39788C14.0025 5.44574 13.8697 5.46861 13.7362 5.46519C13.6014 5.46199 13.4685 5.4322 13.3452 5.37754C13.2219 5.32288 13.1107 5.24443 13.0179 5.14669C12.9251 5.04895 12.8526 4.93386 12.8045 4.80804C12.7564 4.68221 12.7337 4.54814 12.7378 4.41352C12.7415 4.2803 12.7715 4.14911 12.826 4.02746C12.8805 3.9058 12.9585 3.79606 13.0555 3.70451C13.1525 3.61296 13.2666 3.54139 13.3913 3.49388C13.5161 3.44638 13.6489 3.42387 13.7824 3.42765Z" fill="white"/>
</g>
<defs>
<clipPath id="clip0_757_4792">
<rect width="17.0246" height="17.0246" fill="white" transform="translate(0.682617 0.475098)"/>
</clipPath>
</defs>
</svg>
