<svg width="13" height="14" viewBox="0 0 13 14" fill="none" xmlns="http://www.w3.org/2000/svg">
<path d="M3.26925 11.1167L5.33104 12.7375C5.59708 13.0076 6.19567 13.1427 6.59473 13.1427H9.12209C9.92021 13.1427 10.7848 12.5349 10.9844 11.7245L12.5806 6.7946C12.9131 5.84914 12.3146 5.03875 11.3169 5.03875H8.65652C8.25747 5.03875 7.92492 4.70109 7.99143 4.22836L8.32397 2.06731C8.45699 1.45952 8.05794 0.78419 7.45935 0.581591C6.92727 0.378993 6.26218 0.649124 5.99614 1.05432L3.26925 5.17382" fill="#A5B4CB"/>
<path d="M0.0429688 11.1167V4.49852C0.0429688 3.55306 0.442026 3.2154 1.37316 3.2154H2.03826C2.96939 3.2154 3.36845 3.55306 3.36845 4.49852V11.1167C3.36845 12.0622 2.96939 12.3999 2.03826 12.3999H1.37316C0.442026 12.3999 0.0429688 12.0622 0.0429688 11.1167Z" fill="#A5B4CB"/>
</svg>
