<svg width="19" height="18" viewBox="0 0 19 18" fill="none" xmlns="http://www.w3.org/2000/svg">
<path d="M0.649941 2.11131C0.641664 1.84565 0.691006 1.58168 0.794579 1.3369C0.898152 1.09212 1.05351 0.872381 1.24995 0.693345C1.67999 0.315746 2.23919 0.118914 2.81095 0.14354C3.37014 0.12021 3.91688 0.312927 4.33794 0.681626C4.53723 0.871417 4.69381 1.10141 4.79726 1.35643C4.90072 1.61145 4.94869 1.88564 4.93795 2.16063C4.9427 2.41701 4.89322 2.67129 4.79275 2.90721C4.69228 3.14314 4.54308 3.35504 4.35494 3.52928C3.92061 3.91228 3.35559 4.11352 2.77694 4.09129H2.75994C2.19683 4.11211 1.64821 3.91018 1.23295 3.52928C1.04294 3.34613 0.893024 3.1259 0.792672 2.88182C0.692319 2.63774 0.643711 2.37515 0.649941 2.11131ZM0.872948 17.0635V5.64354H4.68095V17.0635H0.872948ZM6.79095 17.0635H10.5979V10.6963C10.584 10.3807 10.6305 10.0657 10.7349 9.76756C10.8916 9.38478 11.1428 9.04795 11.4649 8.78856C11.8129 8.51345 12.2477 8.3717 12.6909 8.38866C13.9719 8.38866 14.6119 9.24327 14.6119 10.9673V17.0674H18.4189V10.5283C18.5196 9.14346 18.0907 7.77213 17.2189 6.69139C16.8172 6.25537 16.3252 5.91261 15.7771 5.68651C15.2291 5.46041 14.6382 5.35636 14.046 5.38231C13.354 5.36274 12.6694 5.5287 12.0631 5.86278C11.4569 6.19686 10.951 6.68729 10.5979 7.2827V7.31835H10.5809L10.5979 7.2827V5.65624H6.79095C6.81295 6.02224 6.82494 7.15663 6.82494 9.05663C6.82494 10.9566 6.81194 13.6245 6.78994 17.0635H6.79095Z" fill="white"/>
</svg>
