<svg width="15" height="19" viewBox="0 0 15 19" fill="none" xmlns="http://www.w3.org/2000/svg">
<path d="M7.81308 18.5187H7.53144C7.40094 18.4256 7.25918 18.3403 7.14183 18.2314C5.80062 16.9934 4.59219 15.6211 3.53586 14.1363C2.57452 12.7784 1.76151 11.3423 1.27943 9.74273C0.784673 8.09986 0.735854 6.45932 1.41368 4.85324C2.29475 2.76798 3.84707 1.41708 6.06079 0.838262C6.43631 0.73954 6.83061 0.701356 7.21646 0.634766H8.1318C8.45522 0.685058 8.7824 0.717188 9.10113 0.787969C12.7231 1.59124 15.0199 5.10237 14.3115 8.72386C14.0632 9.99373 13.5915 11.1756 12.9648 12.3011C11.7274 14.5223 10.1014 16.439 8.25573 18.1825C8.12195 18.311 7.96094 18.4079 7.81308 18.5187ZM7.5596 11.068C9.5879 11.1612 11.3252 9.54157 11.4261 7.4633C11.5247 5.4437 9.88175 3.70909 7.78445 3.61829C5.75098 3.52935 4.0109 5.15406 3.91701 7.22208C3.82642 9.2482 5.45807 10.9712 7.5596 11.068Z" fill="#A5B4CB"/>
</svg>
