<svg width="18" height="18" viewBox="0 0 18 18" fill="none" xmlns="http://www.w3.org/2000/svg">
<g id="Group 1000003661">
<path id="Vector" d="M0.686035 9.73774V4.67169C0.686035 2.33351 2.58369 0.444336 4.92186 0.444336H13.3935C15.7317 0.444336 17.6293 2.33351 17.6293 4.67169V10.5849C17.6293 12.9146 15.7317 14.8038 13.3935 14.8038H12.1228C11.8601 14.8038 11.606 14.9309 11.445 15.1427L10.1743 16.8285C9.61516 17.574 8.70022 17.574 8.14109 16.8285L6.87034 15.1427C6.73479 14.9563 6.42981 14.8038 6.19261 14.8038H4.92186C2.58369 14.8038 0.686035 12.9146 0.686035 10.5849V9.73774Z" fill="#F4004D"/>
<path id="Vector_2" d="M13.3934 6.16272H4.92175C4.57441 6.16272 4.28638 5.87468 4.28638 5.52734C4.28638 5.18 4.57441 4.89197 4.92175 4.89197H13.3934C13.7407 4.89197 14.0288 5.18 14.0288 5.52734C14.0288 5.87468 13.7407 6.16272 13.3934 6.16272Z" fill="white"/>
<path id="Vector_3" d="M10.0047 10.3986H4.92175C4.57441 10.3986 4.28638 10.1105 4.28638 9.76318C4.28638 9.41584 4.57441 9.12781 4.92175 9.12781H10.0047C10.3521 9.12781 10.6401 9.41584 10.6401 9.76318C10.6401 10.1105 10.3521 10.3986 10.0047 10.3986Z" fill="white"/>
</g>
</svg>
