<svg width="24" height="21" viewBox="0 0 24 21" fill="none" xmlns="http://www.w3.org/2000/svg">
<g id="Group 1000003724">
<path id="Path 393" d="M17.1388 9.89943C17.1186 10.5621 16.8386 11.1903 16.3592 11.6482C15.8798 12.1061 15.2395 12.3571 14.5765 12.347C12.3617 12.3532 10.1468 12.347 7.93116 12.347C7.51426 12.347 7.09733 12.3517 6.682 12.347C6.28442 12.3411 5.89595 12.4662 5.5765 12.703C4.4351 13.5191 3.29293 14.3339 2.14997 15.1474C1.61909 15.526 1.274 15.4534 0.953125 14.8976V3.00497C1.03919 2.5532 1.22775 2.1272 1.5043 1.75974C1.7257 1.47666 2.00568 1.24478 2.32504 1.07997C2.6444 0.915174 2.99563 0.821354 3.35463 0.804934C3.4491 0.798688 3.54434 0.797119 3.63958 0.797119C7.8726 0.797119 12.1053 0.799198 16.3378 0.803361C16.5388 0.797326 16.7364 0.855288 16.9023 0.968877C17.0442 1.1012 17.1283 1.28405 17.1365 1.47791C17.1495 4.28535 17.1503 7.09251 17.1388 9.89943Z" fill="#F4004D"/>
<path id="Path 394" d="M23.3797 8.01796C23.2984 7.48948 23.0475 7.00174 22.665 6.62818C22.2824 6.25462 21.7888 6.01546 21.2585 5.94672C20.7055 5.90012 20.1503 5.88554 19.5956 5.90302C19.2247 5.89756 18.8539 5.90302 18.462 5.90302V6.15986C18.462 7.36684 18.4737 8.57303 18.455 9.77923C18.4507 10.1516 18.3983 10.5219 18.2989 10.8808C18.0679 11.6929 17.5754 12.4061 16.8979 12.9098C16.2204 13.4136 15.3956 13.6798 14.5514 13.6672C12.1968 13.6726 9.84293 13.6672 7.4883 13.6672H7.22446C7.22446 14.0645 7.22446 14.4299 7.22446 14.7945C7.20789 15.1483 7.26549 15.5016 7.39362 15.8318C7.52175 16.162 7.71756 16.4617 7.96843 16.7117C8.21931 16.9617 8.51973 17.1564 8.85035 17.2834C9.18098 17.4103 9.53452 17.4668 9.88824 17.449C12.4547 17.449 15.0212 17.449 17.5876 17.449C18.0434 17.4415 18.4892 17.5832 18.857 17.8526C19.9774 18.6606 21.1047 19.4593 22.2289 20.2618C22.7512 20.6342 23.1244 20.5499 23.4172 19.9917V8.13895C23.4021 8.09945 23.3896 8.05905 23.3797 8.01796Z" fill="#F4004D"/>
</g>
</svg>
