<svg width="25" height="24" viewBox="0 0 25 24" fill="none" xmlns="http://www.w3.org/2000/svg">
<g id="Icon/Bulk/Notification">
<path id="Fill 1" d="M19.8945 11.6453C19.164 10.7923 18.8321 10.0531 18.8321 8.79716V8.37013C18.8321 6.73354 18.4554 5.67907 17.6365 4.62459C16.3743 2.98699 14.2494 2 12.1692 2H12.0808C10.0444 2 7.98606 2.94167 6.702 4.5128C5.83833 5.58842 5.41793 6.68822 5.41793 8.37013V8.79716C5.41793 10.0531 5.10784 10.7923 4.35549 11.6453C3.80191 12.2738 3.625 13.0815 3.625 13.9557C3.625 14.8309 3.91223 15.6598 4.48867 16.3336C5.24102 17.1413 6.30346 17.6569 7.38875 17.7466C8.96005 17.9258 10.5313 17.9933 12.1255 17.9933C13.7187 17.9933 15.29 17.8805 16.8622 17.7466C17.9465 17.6569 19.009 17.1413 19.7613 16.3336C20.3368 15.6598 20.625 14.8309 20.625 13.9557C20.625 13.0815 20.4481 12.2738 19.8945 11.6453Z" fill="#A5B4CB"/>
<path id="Fill 4" d="M14.1336 19.2285C13.6337 19.1217 10.5875 19.1217 10.0876 19.2285C9.66027 19.3272 9.19812 19.5568 9.19812 20.0604C9.22297 20.5408 9.50423 20.9648 9.89382 21.2337L9.89283 21.2347C10.3967 21.6275 10.9881 21.8773 11.6072 21.9669C11.9372 22.0122 12.2731 22.0102 12.615 21.9669C13.2332 21.8773 13.8245 21.6275 14.3284 21.2347L14.3274 21.2337C14.717 20.9648 14.9983 20.5408 15.0231 20.0604C15.0231 19.5568 14.561 19.3272 14.1336 19.2285Z" fill="#A5B4CB"/>
</g>
</svg>
