<svg width="4" height="17" viewBox="0 0 4 17" fill="none" xmlns="http://www.w3.org/2000/svg">
<g id="Group 1000003739">
<g id="Group 183">
<path id="Ellipse 17" d="M3.55717 15.1177C3.55717 14.1354 2.76087 13.3391 1.77859 13.3391C0.7963 13.3391 -1.20682e-07 14.1354 -7.77445e-08 15.1177C-3.48074e-08 16.0999 0.7963 16.8962 1.77859 16.8962C2.76087 16.8962 3.55717 16.0999 3.55717 15.1177Z" fill="#F4004D"/>
<path id="Ellipse 18" d="M3.55717 8.59593C3.55717 7.61364 2.76087 6.81734 1.77859 6.81734C0.7963 6.81734 -1.20682e-07 7.61364 -7.77445e-08 8.59593C-3.48074e-08 9.57821 0.7963 10.3745 1.77859 10.3745C2.76087 10.3745 3.55717 9.57821 3.55717 8.59593Z" fill="#F4004D"/>
<path id="Ellipse 19" d="M3.55717 2.66721C3.55717 1.68493 2.76087 0.888629 1.77859 0.888629C0.7963 0.888629 -1.20682e-07 1.68493 -7.77445e-08 2.66721C-3.48074e-08 3.6495 0.7963 4.4458 1.77859 4.4458C2.76087 4.4458 3.55717 3.6495 3.55717 2.66721Z" fill="#F4004D"/>
</g>
</g>
</svg>
