<svg width="21" height="16" viewBox="0 0 21 16" fill="none" xmlns="http://www.w3.org/2000/svg">
<g id="Vector">
<path fill-rule="evenodd" clip-rule="evenodd" d="M1.63347 7.82849C1.73361 8.0043 1.87324 8.2395 2.05115 8.516C2.4593 9.15031 3.0639 9.99414 3.84934 10.835C5.43415 12.5318 7.66476 14.1236 10.4377 14.1236C13.2107 14.1236 15.4413 12.5318 17.0261 10.835C17.8116 9.99414 18.4162 9.15031 18.8243 8.516C19.0022 8.2395 19.1419 8.0043 19.242 7.82849C19.1419 7.65268 19.0022 7.41748 18.8243 7.14098C18.4162 6.50667 17.8116 5.66284 17.0261 4.82193C15.4413 3.12521 13.2107 1.53337 10.4377 1.53337C7.66476 1.53337 5.43415 3.12521 3.84934 4.82193C3.0639 5.66284 2.4593 6.50667 2.05115 7.14098C1.87324 7.41748 1.73361 7.65268 1.63347 7.82849ZM20.1117 7.82849C20.7948 7.48567 20.7947 7.48541 20.7946 7.48512L20.7932 7.4825L20.7904 7.47676L20.7807 7.45774C20.7725 7.44176 20.7608 7.41925 20.7458 7.39065C20.7156 7.33345 20.6717 7.25182 20.6142 7.14924C20.4993 6.94419 20.3298 6.65483 20.1074 6.30922C19.6636 5.61947 19.004 4.69788 18.1405 3.77336C16.4273 1.93925 13.8209 0.000244141 10.4377 0.000244141C7.05452 0.000244141 4.44814 1.93925 2.73499 3.77336C1.87146 4.69788 1.21184 5.61947 0.768017 6.30922C0.545631 6.65483 0.376177 6.94419 0.261262 7.14924C0.203776 7.25182 0.159852 7.33345 0.129697 7.39065C0.114616 7.41925 0.102971 7.44176 0.0947865 7.45774L0.0851057 7.47676L0.0822161 7.4825L0.0812599 7.48441C0.0811161 7.4847 0.0806298 7.48567 0.763736 7.82849L0.0806298 7.48567C-0.0268766 7.70148 -0.0268766 7.9555 0.0806298 8.17131L0.763736 7.82849C0.0806298 8.17131 0.080486 8.17102 0.0806298 8.17131L0.0812599 8.17257L0.0822161 8.17448L0.0851057 8.18022L0.0947865 8.19924C0.102971 8.21522 0.114616 8.23773 0.129697 8.26633C0.159852 8.32353 0.203776 8.40516 0.261262 8.50774C0.376177 8.71279 0.545631 9.00214 0.768017 9.34776C1.21184 10.0375 1.87146 10.9591 2.73499 11.8836C4.44814 13.7177 7.05452 15.6567 10.4377 15.6567C13.8209 15.6567 16.4273 13.7177 18.1405 11.8836C19.004 10.9591 19.6636 10.0375 20.1074 9.34776C20.3298 9.00214 20.4993 8.71279 20.6142 8.50774C20.6717 8.40516 20.7156 8.32353 20.7458 8.26633C20.7608 8.23773 20.7725 8.21522 20.7807 8.19924L20.7904 8.18022L20.7932 8.17448L20.7942 8.17257C20.7943 8.17228 20.7948 8.17131 20.1117 7.82849ZM20.1117 7.82849L20.7948 8.17131C20.9023 7.9555 20.9021 7.70093 20.7946 7.48512L20.1117 7.82849Z" fill="#8494AB"/>
<path fill-rule="evenodd" clip-rule="evenodd" d="M10.4377 5.94688C9.40238 5.94688 8.56308 6.78929 8.56308 7.82845C8.56308 8.86761 9.40238 9.71001 10.4377 9.71001C11.473 9.71001 12.3123 8.86761 12.3123 7.82845C12.3123 6.78929 11.473 5.94688 10.4377 5.94688ZM7.03561 7.82845C7.03561 5.94256 8.55878 4.41375 10.4377 4.41375C12.3166 4.41375 13.8398 5.94256 13.8398 7.82845C13.8398 9.71433 12.3166 11.2431 10.4377 11.2431C8.55878 11.2431 7.03561 9.71433 7.03561 7.82845Z" fill="#8494AB"/>
</g>
</svg>
