<svg width="21" height="19" viewBox="0 0 21 19" fill="none" xmlns="http://www.w3.org/2000/svg">
<path id="Vector" d="M15.7319 1.21822C17.0247 1.12039 18.3174 1.02397 19.61 0.928964C19.8565 0.910248 20.0828 0.940136 20.2504 1.16279C20.4374 1.4116 20.4454 1.65967 20.2946 1.91909C19.8809 2.63156 19.4686 3.34486 19.0578 4.05901C16.3314 8.7811 13.6035 13.5022 10.8741 18.2224C10.7794 18.3748 10.6505 18.5018 10.4975 18.5934C10.4456 18.6249 10.3877 18.6453 10.3272 18.6533C10.2667 18.6614 10.2048 18.6569 10.1454 18.6402C10.0859 18.6236 10.03 18.595 9.98102 18.5562C9.93205 18.5175 9.89099 18.4694 9.86031 18.4147C9.72796 18.1772 9.61592 17.929 9.52546 17.673C8.77386 15.6019 8.02487 13.5301 7.27852 11.4577C7.24274 11.3589 7.24696 11.2938 7.3307 11.2183C8.04879 10.5711 8.76142 9.91793 9.47672 9.26718C10.2853 8.5322 11.0945 7.79762 11.9043 7.06342C12.5097 6.51401 13.1138 5.96464 13.7166 5.41531C13.755 5.38067 13.7232 5.3185 13.6723 5.32809C13.6702 5.32848 13.6681 5.32889 13.6661 5.3293C13.6623 5.33004 13.6587 5.33116 13.6551 5.33258C12.6044 5.75687 11.5538 6.18108 10.5034 6.6052C9.49522 7.01181 8.48707 7.41783 7.47891 7.82325C6.87179 8.06767 6.26243 8.30761 5.65863 8.55642C5.55299 8.59975 5.49537 8.56881 5.42153 8.49565C3.77884 6.813 2.13547 5.13077 0.491408 3.44897C0.304638 3.29306 0.220654 3.11561 0.219513 2.9321C0.222343 2.78182 0.279912 2.6395 0.381152 2.53251C0.482391 2.42552 0.620154 2.36141 0.767956 2.3525C5.75573 1.97376 10.7437 1.59567 15.7319 1.21822Z" fill="white"/>
</svg>
