<svg width="16" height="17" viewBox="0 0 16 17" fill="none" xmlns="http://www.w3.org/2000/svg">
<g id="Vector">
<path fill-rule="evenodd" clip-rule="evenodd" d="M11.3495 11.8304C11.5748 11.6051 11.9401 11.6051 12.1654 11.8304L15.3501 15.0151C15.5754 15.2404 15.5754 15.6057 15.3501 15.831C15.1248 16.0563 14.7595 16.0563 14.5342 15.831L11.3495 12.6463C11.1242 12.421 11.1242 12.0557 11.3495 11.8304Z" fill="#A5B4CB"/>
<path fill-rule="evenodd" clip-rule="evenodd" d="M7.3268 2.15384C4.20422 2.15384 1.67287 4.68523 1.67287 7.80785C1.67287 10.9305 4.20422 13.4618 7.3268 13.4618C10.4494 13.4618 12.9807 10.9305 12.9807 7.80785C12.9807 4.68523 10.4494 2.15384 7.3268 2.15384ZM0.519043 7.80785C0.519043 4.04798 3.56698 1 7.3268 1C11.0866 1 14.1346 4.04798 14.1346 7.80785C14.1346 11.5677 11.0866 14.6157 7.3268 14.6157C3.56698 14.6157 0.519043 11.5677 0.519043 7.80785Z" fill="#A5B4CB"/>
<path fill-rule="evenodd" clip-rule="evenodd" d="M0.269043 7.80785C0.269043 3.90991 3.4289 0.75 7.3268 0.75C11.2247 0.75 14.3846 3.90991 14.3846 7.80785C14.3846 9.4588 13.8177 10.9774 12.868 12.1795L15.5268 14.8384C15.8498 15.1613 15.8498 15.6849 15.5268 16.0078C15.2039 16.3307 14.6803 16.3307 14.3574 16.0078L11.6986 13.349C10.4964 14.2988 8.97783 14.8657 7.3268 14.8657C3.4289 14.8657 0.269043 11.7058 0.269043 7.80785ZM12.081 13.0242L14.711 15.6542C14.8386 15.7819 15.0456 15.7819 15.1733 15.6542C15.301 15.5266 15.301 15.3196 15.1733 15.1919L12.5433 12.5619C12.3964 12.723 12.2421 12.8773 12.081 13.0242ZM12.1894 12.2079C12.043 12.3696 11.8887 12.5239 11.727 12.6703L11.5263 12.4696C11.3986 12.3419 11.3986 12.1349 11.5263 12.0072C11.654 11.8795 11.861 11.8795 11.9886 12.0072L12.1894 12.2079ZM12.5118 11.8233C13.3723 10.7138 13.8846 9.32064 13.8846 7.80785C13.8846 4.18604 10.9485 1.25 7.3268 1.25C3.70505 1.25 0.769043 4.18604 0.769043 7.80785C0.769043 11.4296 3.70505 14.3657 7.3268 14.3657C8.83967 14.3657 10.2329 13.8534 11.3424 12.9928L11.1728 12.8231C11.0685 12.7189 10.9979 12.5937 10.961 12.4611C9.95899 13.2448 8.69744 13.7118 7.3268 13.7118C4.06615 13.7118 1.42287 11.0685 1.42287 7.80785C1.42287 4.54716 4.06615 1.90384 7.3268 1.90384C10.5875 1.90384 13.2307 4.54716 13.2307 7.80785C13.2307 9.17841 12.7637 10.4399 11.9802 11.4419C12.1127 11.4788 12.2379 11.5494 12.3422 11.6537L12.5118 11.8233ZM7.3268 2.40384C4.34229 2.40384 1.92287 4.8233 1.92287 7.80785C1.92287 10.7924 4.34229 13.2118 7.3268 13.2118C10.3113 13.2118 12.7307 10.7924 12.7307 7.80785C12.7307 4.8233 10.3113 2.40384 7.3268 2.40384Z" fill="#A5B4CB"/>
</g>
</svg>
