<svg width="20" height="20" viewBox="0 0 20 20" fill="none" xmlns="http://www.w3.org/2000/svg">
<g id="Group 1000003726">
<path id="Path 401" d="M19.4034 8.06582C19.1775 6.73232 18.662 5.46456 17.8931 4.35186C17.1243 3.23917 16.1208 2.3086 14.9533 1.62572C13.7154 0.869684 12.3117 0.426986 10.8639 0.335991C10.8162 0.32925 10.769 0.319073 10.7226 0.305542H9.62417C9.26895 0.353165 8.91139 0.388295 8.55851 0.451532C6.45227 0.808024 4.53565 1.88613 3.13725 3.501C2.19597 4.57692 1.51357 5.8541 1.14239 7.23462C0.771209 8.61514 0.721093 10.0623 0.995888 11.4652C1.27068 12.8681 1.86309 14.1894 2.72769 15.3279C3.59228 16.4663 4.7061 17.3917 5.98374 18.033C7.26138 18.6742 8.6689 19.0144 10.0984 19.0274C11.5279 19.0404 12.9414 18.7259 14.2305 18.108C15.5196 17.4901 16.65 16.5852 17.5352 15.4626C18.4204 14.3401 19.0367 13.0298 19.337 11.6321C19.4237 11.2347 19.4572 10.8256 19.5158 10.422C19.5252 10.3572 19.5384 10.2924 19.5494 10.2276V9.12914C19.5017 8.77392 19.4689 8.41714 19.4034 8.06582ZM10.1613 17.596C8.59601 17.593 7.0667 17.1262 5.76664 16.2544C4.46659 15.3825 3.45412 14.1449 2.8572 12.6979C2.26029 11.2509 2.10571 9.6594 2.413 8.12455C2.72029 6.5897 3.47566 5.18038 4.58364 4.07469C5.69162 2.96899 7.10251 2.21655 8.63799 1.91244C10.1735 1.60833 11.7646 1.7662 13.2104 2.36611C14.6562 2.96601 15.8917 3.98103 16.7608 5.28289C17.6299 6.58475 18.0937 8.11501 18.0933 9.68032C18.0907 11.7817 17.2536 13.796 15.7661 15.2803C14.2787 16.7647 12.2627 17.5976 10.1613 17.596Z" fill="#F4004D"/>
<path id="Path 402" d="M13.4802 11.3097C12.6834 10.7054 11.8829 10.1068 11.0787 9.51401C11.0193 9.47545 10.9715 9.42145 10.9404 9.35777C10.9093 9.29409 10.8961 9.22315 10.9023 9.15256C10.9085 7.92606 10.9062 6.70034 10.9023 5.47384C10.9172 5.31142 10.8787 5.14856 10.7926 5.01003C10.7065 4.87151 10.5775 4.7649 10.4253 4.7064C10.3115 4.66442 10.189 4.65151 10.0689 4.66888C9.94887 4.68624 9.83501 4.73331 9.73776 4.80583C9.64051 4.87834 9.56294 4.974 9.51203 5.08411C9.46113 5.19422 9.43852 5.3153 9.44628 5.43636C9.44081 6.13901 9.44628 6.84166 9.44628 7.5443C9.44628 8.24694 9.44628 8.94956 9.44628 9.6522C9.43923 9.79591 9.46944 9.93901 9.534 10.0676C9.59857 10.1962 9.69529 10.3059 9.81476 10.3861C10.0833 10.5766 10.3425 10.7764 10.6064 10.9778C11.2747 11.4791 11.9414 11.9826 12.6128 12.4807C12.6885 12.5438 12.7762 12.5908 12.8706 12.6188C12.965 12.6469 13.064 12.6554 13.1619 12.6439C13.2597 12.6324 13.3541 12.6012 13.4394 12.552C13.5247 12.5028 13.5991 12.4368 13.6581 12.3579C13.7171 12.279 13.7594 12.189 13.7824 12.0932C13.8054 11.9975 13.8087 11.8981 13.7921 11.801C13.7754 11.704 13.7392 11.6113 13.6856 11.5287C13.632 11.4461 13.5621 11.3753 13.4802 11.3206V11.3097Z" fill="#F4004D"/>
</g>
</svg>
