<svg width="23" height="18" viewBox="0 0 23 18" fill="none" xmlns="http://www.w3.org/2000/svg">
<path d="M22.8893 2.14841C22.0558 2.48551 21.1816 2.71133 20.2892 2.82028C21.2207 2.30779 21.928 1.46694 22.2733 0.461393C21.3815 0.955737 20.4157 1.30241 19.4132 1.48825C18.9795 1.05854 18.4654 0.718551 17.9002 0.487761C17.335 0.256971 16.7298 0.140184 16.1193 0.143522C14.9561 0.112587 13.8281 0.544417 12.983 1.34421C12.1378 2.14399 11.6445 3.24651 11.6112 4.40964C11.6069 4.73839 11.6405 5.06658 11.7112 5.38766C9.93797 5.3153 8.19823 4.88068 6.59892 4.1113C4.99962 3.34191 3.57454 2.25388 2.41125 0.913542C2.12369 1.37827 1.93133 1.89532 1.84537 2.43503C1.7594 2.97473 1.78155 3.52602 1.91051 4.0571C2.03946 4.58817 2.27265 5.08859 2.59654 5.52878C2.92044 5.96896 3.32859 6.34044 3.79726 6.62155C3.08672 6.60696 2.38932 6.42732 1.76025 6.09665V6.14548C1.78142 7.15522 2.15369 8.12605 2.81305 8.89108C3.47241 9.65611 4.37768 10.1674 5.37325 10.3374C4.98722 10.4369 4.58991 10.486 4.19125 10.4834C3.90479 10.4898 3.61847 10.4655 3.33725 10.4106C3.65399 11.2759 4.22726 12.0234 4.98045 12.5542C5.73365 13.0849 6.63088 13.3732 7.55225 13.3803C5.93095 14.5705 3.97047 15.2091 1.95926 15.2016C1.59898 15.2041 1.23881 15.1875 0.880249 15.1523C2.9685 16.4093 5.36189 17.0689 7.79926 17.0586C9.44305 17.1168 11.082 16.8473 12.6207 16.2661C14.1594 15.6848 15.5671 14.8034 16.7617 13.6728C17.9564 12.5423 18.9143 11.1854 19.5794 9.68112C20.2446 8.1768 20.6039 6.55512 20.6363 4.91061C20.6363 4.72661 20.6293 4.54434 20.6193 4.35934C21.503 3.76514 22.272 3.01616 22.8893 2.14841Z" fill="white"/>
</svg>
