<svg width="19" height="20" viewBox="0 0 19 20" fill="none" xmlns="http://www.w3.org/2000/svg">
<g id="Layer_1">
<g clip-path="url(#clip0_1314_2332)">
<path id="Vector" d="M9.29621 19.0642C7.62324 19.0642 5.95027 19.0771 4.2773 19.0604C2.75814 19.0453 1.59514 18.3403 0.814861 16.9599C0.477946 16.3586 0.301381 15.6723 0.303875 14.9737C0.295699 13.7606 0.298765 12.5464 0.303875 11.3337C0.303875 10.9054 0.541995 10.5683 0.895086 10.4637C1.24818 10.359 1.6212 10.4928 1.79544 10.8197C1.88333 10.9894 1.93101 11.1791 1.93443 11.3726C1.94669 12.5318 1.94005 13.6921 1.94056 14.8508C1.94056 16.2883 2.93494 17.3321 4.3003 17.3348H14.2998C15.6646 17.3348 16.6554 16.2883 16.657 14.8475C16.657 13.6684 16.657 12.4886 16.657 11.3089C16.6532 11.1254 16.7053 10.9455 16.8056 10.7955C16.9058 10.6455 17.0489 10.5334 17.2139 10.4755C17.5394 10.3606 17.9073 10.4599 18.1036 10.7593C18.2007 10.9071 18.2834 11.1023 18.2845 11.2766C18.2921 12.6176 18.3233 13.9613 18.2599 15.299C18.1741 17.1239 16.7638 18.7092 15.0576 18.9924C14.7871 19.0372 14.5138 19.0603 14.24 19.0615C12.5895 19.0674 10.9421 19.0642 9.29621 19.0642Z" fill="#F4004D"/>
<path id="Vector_2" d="M10.1099 3.08498V3.32341C10.1099 6.80914 10.1099 10.2949 10.1099 13.7806C10.1099 14.286 9.89168 14.6108 9.48494 14.7192C9.37162 14.7484 9.25364 14.7515 9.13911 14.7281C9.02457 14.7047 8.91618 14.6555 8.82135 14.5838C8.72652 14.512 8.6475 14.4195 8.5897 14.3125C8.5319 14.2056 8.49668 14.0867 8.48647 13.964C8.47982 13.8701 8.48187 13.7757 8.48187 13.6814C8.48187 10.2291 8.48187 6.77677 8.48187 3.32448V3.0332C8.40267 3.10979 8.3531 3.15403 8.30711 3.20258C7.2136 4.35586 6.1206 5.50967 5.02811 6.66403C4.80583 6.89922 4.55085 7.01789 4.23302 6.94615C4.09642 6.91638 3.96936 6.85004 3.86405 6.75349C3.75874 6.65694 3.67872 6.53343 3.63167 6.39482C3.58462 6.25621 3.57212 6.10715 3.59537 5.96197C3.61862 5.81679 3.67684 5.68035 3.76444 5.56577C3.80569 5.51441 3.84953 5.46543 3.89577 5.41905L8.63772 0.412693C9.07104 -0.0441957 9.52224 -0.0447351 9.95606 0.412693C11.5463 2.09065 13.1363 3.76861 14.7261 5.44656C14.9816 5.71357 15.0787 6.02374 14.9612 6.38569C14.8518 6.72229 14.6147 6.91487 14.2826 6.96018C13.9959 6.99955 13.7644 6.87549 13.5631 6.66242C12.4768 5.51165 11.3892 4.36179 10.3005 3.21282C10.2564 3.15438 10.2187 3.09086 10.1881 3.02349L10.1099 3.08498Z" fill="#F4004D"/>
</g>
</g>
<defs>
<clipPath id="clip0_1314_2332">
<rect x="0.296875" y="0.0683594" width="18" height="19" fill="white"/>
</clipPath>
</defs>
</svg>
