<svg width="14" height="17" viewBox="0 0 14 17" fill="none" xmlns="http://www.w3.org/2000/svg">
<path d="M2.79477 9.63281C3.30184 10.0911 3.88559 10.4566 4.51935 10.7125C5.54708 11.1523 6.67675 11.298 7.78243 11.1334C8.88811 10.9688 9.92639 10.5004 10.7815 9.78039C10.9376 9.65938 11.0282 9.64999 11.1812 9.771C11.9033 10.3108 12.4866 11.0148 12.8827 11.8248C13.2789 12.6347 13.4765 13.5273 13.4593 14.4287C13.456 15.0405 13.2113 15.6261 12.7783 16.0583C12.3454 16.4905 11.7594 16.7343 11.1476 16.7365C8.27825 16.7438 5.40887 16.7438 2.5395 16.7365C1.94237 16.7293 1.37066 16.4937 0.941768 16.0782C0.512879 15.6627 0.259341 15.0987 0.233247 14.5021C0.216922 13.5407 0.443053 12.5906 0.890733 11.7396C1.33841 10.8886 1.99323 10.164 2.79477 9.63281Z" fill="#A5B4CB"/>
<path d="M1.93311 4.99385C1.93234 4.02203 2.21973 3.07182 2.75899 2.26334C3.29825 1.45486 4.06511 0.824425 4.96265 0.451775C5.86019 0.0791259 6.84809 -0.0190019 7.8014 0.169778C8.75472 0.358557 9.63063 0.825758 10.3184 1.51234C11.0062 2.19892 11.475 3.07404 11.6654 4.02702C11.8559 4.98 11.7594 5.96806 11.3884 6.86625C11.0173 7.76443 10.3882 8.53241 9.58064 9.07308C8.7731 9.61375 7.8234 9.90282 6.85158 9.90375C5.5486 9.90375 4.29884 9.38676 3.37669 8.46622C2.45454 7.54568 1.93538 6.29683 1.93311 4.99385Z" fill="#A5B4CB"/>
</svg>
