<svg width="19" height="20" viewBox="0 0 19 20" fill="none" xmlns="http://www.w3.org/2000/svg">
<g id="Group 1000004054">
<path id="Vector" d="M17.9248 14.6166C17.3757 12.7276 15.5843 11.3759 13.5792 11.3675C12.1801 11.3612 6.58356 11.3612 5.18443 11.3675C3.17937 11.3768 1.38795 12.7285 0.838848 14.6166C0.762936 14.8801 0.715208 15.1471 0.654297 15.4142V19.3754C0.832939 19.78 1.14613 19.9171 1.59251 19.9157C4.18895 19.9086 14.5747 19.9086 17.1711 19.9157C17.6175 19.9157 17.9307 19.7822 18.1094 19.3754V15.4142C18.0484 15.1471 18.0007 14.8801 17.9248 14.6166Z" fill="#A5B4CB"/>
<path id="Vector_2" d="M9.38866 9.49258C8.10487 9.4946 6.87262 8.99821 5.96195 8.1122C5.05128 7.22618 4.53647 6.02281 4.53033 4.7658C4.51715 2.14826 6.69722 0.0034042 9.37457 0.000288616C10.015 -0.00662691 10.6505 0.110798 11.2443 0.345777C11.8381 0.580756 12.3785 0.928631 12.8342 1.3693C13.2899 1.80997 13.6519 2.3347 13.8993 2.91316C14.1467 3.49162 14.2745 4.11235 14.2754 4.73947C14.2764 5.3666 14.1504 5.98768 13.9047 6.56685C13.659 7.14601 13.2986 7.67177 12.8442 8.11373C12.3898 8.55569 11.8505 8.90511 11.2574 9.14177C10.6643 9.37844 10.0291 9.49768 9.38866 9.49258Z" fill="#A5B4CB"/>
</g>
</svg>
