<svg width="36" height="37" viewBox="0 0 36 37" fill="none" xmlns="http://www.w3.org/2000/svg">
<g id="Group 1000005212">
<circle id="Ellipse 1842" cx="18" cy="18.6367" r="16.7227" fill="#0077C8" stroke="white" stroke-width="2"/>
<path id="Vector" d="M9.3537 19.5564C9.38403 18.9406 9.72689 18.3835 10.4265 18.0821C11.1353 17.7768 11.801 17.9014 12.3762 18.402C13.2572 19.1694 14.1264 19.9498 15.0008 20.7248C15.1622 20.8679 15.3236 21.0111 15.485 21.1543C15.7456 21.3835 15.9651 21.3715 16.199 21.1142C17.8003 19.3525 19.4012 17.5907 21.0015 15.8289C22.5724 14.1005 24.1432 12.372 25.7141 10.6433C25.9022 10.4365 26.0924 10.3774 26.3104 10.454C26.5088 10.5236 26.6584 10.7043 26.6455 10.9111C26.6332 11.0275 26.5927 11.1393 26.5273 11.2375C24.7765 13.9907 23.0235 16.7427 21.2683 19.4933C19.8897 21.6549 18.5114 23.8164 17.1335 25.978C16.8482 26.4255 16.4586 26.7289 15.9188 26.8225C15.2753 26.9316 14.7366 26.7324 14.3254 26.2428C13.0057 24.6743 11.6891 23.1046 10.3756 21.5337C10.1724 21.2914 9.96934 21.049 9.76647 20.8064C9.49455 20.479 9.35268 20.1055 9.3537 19.5564Z" fill="white"/>
</g>
</svg>
