<svg width="13" height="12" viewBox="0 0 13 12" fill="none" xmlns="http://www.w3.org/2000/svg">
<path fill-rule="evenodd" clip-rule="evenodd" d="M6.64597 4.55547C5.82235 4.55547 5.15764 5.22017 5.15764 6.0438C5.15764 6.86743 5.82235 7.53214 6.64597 7.53214C7.4696 7.53214 8.13431 6.86743 8.13431 6.0438C8.13431 5.22017 7.4696 4.55547 6.64597 4.55547ZM3.95764 6.0438C3.95764 4.55743 5.1596 3.35547 6.64597 3.35547C8.13235 3.35547 9.33431 4.55743 9.33431 6.0438C9.33431 7.53017 8.13235 8.73214 6.64597 8.73214C5.1596 8.73214 3.95764 7.53017 3.95764 6.0438Z" fill="#A5B4CB"/>
<path fill-rule="evenodd" clip-rule="evenodd" d="M0.82588 4.20419C2.24245 1.97749 4.3325 0.613281 6.64605 0.613281C8.95974 0.613281 11.0499 1.97765 12.4665 4.20458C12.805 4.73529 12.954 5.40603 12.954 6.04036C12.954 6.67485 12.8049 7.34577 12.4662 7.87654C12.4661 7.87667 12.4661 7.8768 12.466 7.87694L11.9603 7.55418L12.4665 7.87615C12.4664 7.87628 12.4663 7.87641 12.4662 7.87654C11.0497 10.1032 8.9596 11.4674 6.64605 11.4674C4.33237 11.4674 2.2422 10.1031 0.82563 7.87615C0.825797 7.87641 0.825964 7.87667 0.826131 7.87694L1.33178 7.55418L0.82563 7.87615C0.487153 7.34544 0.338135 6.6747 0.338135 6.04036C0.338135 5.40587 0.487226 4.73496 0.82588 4.20419ZM0.82588 4.20419C0.825797 4.20432 0.825713 4.20445 0.82563 4.20458L1.33183 4.52658L0.826131 4.20379C0.826048 4.20392 0.825964 4.20405 0.82588 4.20419ZM6.64605 1.81328C4.8414 1.81328 3.09323 2.87558 1.83814 4.84865L1.83764 4.84944C1.65147 5.1411 1.53813 5.57251 1.53813 6.04036C1.53813 6.50822 1.65147 6.93963 1.83764 7.23129L1.83814 7.23208C3.09323 9.20515 4.8414 10.2674 6.64605 10.2674C8.4507 10.2674 10.1989 9.20515 11.454 7.23208L11.4545 7.23129C11.6406 6.93963 11.754 6.50822 11.754 6.04036C11.754 5.57251 11.6406 5.1411 11.4545 4.84944L11.454 4.84865C10.1989 2.87558 8.4507 1.81328 6.64605 1.81328Z" fill="#A5B4CB"/>
</svg>
