<svg width="209" height="65" viewBox="0 0 209 65" fill="none" xmlns="http://www.w3.org/2000/svg">
<g id="Layer_1" clip-path="url(#clip0_1130_637)">
<path id="Vector" d="M34.8364 5.06658C35.4428 6.40959 36.5118 8.85831 37.7586 11.9626C43.6833 12.1632 44.8935 12.3149 47.9326 12.6085L45.0494 5.26962C45.0494 5.26962 44.7304 4.54797 44.3846 3.92906C43.8799 3.03013 43.122 2.3011 42.2062 1.83358C41.2903 1.36607 40.2573 1.18093 39.237 1.30144C38.2167 1.42195 37.2546 1.84273 36.4716 2.51089C35.6887 3.17905 35.1198 4.06479 34.8364 5.0568V5.06658Z" fill="#FF8200"/>
<path id="Vector_2" d="M34.1985 3.6967C34.1011 3.89729 33.8649 4.34741 33.5215 5.04949C32.8689 6.39005 31.8169 8.64307 30.5117 11.7768C30.3494 12.1633 30.187 12.5628 30.0247 12.9754C28.9191 15.6786 27.6553 18.9566 26.3062 22.7923C26.165 23.1886 26.0262 23.5898 25.885 23.9959C25.4564 25.2337 25.0205 26.5262 24.5773 27.8733C23.5716 30.9458 22.7436 33.715 21.9668 36.4817C18.7208 33.9523 16.0373 31.5378 13.8286 29.6321C16.5609 20.7143 19.9678 12.0194 24.0197 3.62331C24.391 2.80237 24.9549 2.08415 25.6632 1.53026C26.3715 0.976369 27.203 0.603332 28.0863 0.443143L28.2203 0.418681C28.491 0.37624 28.7644 0.35335 29.0385 0.350185L39.2855 0.306152C38.216 0.375747 37.1836 0.726822 36.292 1.32411C35.4004 1.9214 34.6809 2.74388 34.2058 3.70892L34.1985 3.6967Z" fill="#00A3AD"/>
<path id="Vector_3" d="M61.2237 26.0215C60.1181 27 58.1603 28.6757 55.5645 30.7722C57.0888 36.5258 57.7122 39.6008 57.9996 40.9413L63.9681 35.9045C63.9681 35.9045 64.5623 35.3883 65.0517 34.877C65.7616 34.1315 66.2363 33.1919 66.4164 32.1763C66.5964 31.1606 66.4737 30.1142 66.0637 29.1683C65.6537 28.2225 64.9746 27.4194 64.1118 26.86C63.2489 26.3006 62.2408 26.0097 61.2139 26.0239L61.2237 26.0215Z" fill="#DD9CDF"/>
<path id="Vector_4" d="M62.3511 25.0136C62.1271 24.9769 61.6206 24.879 60.8632 24.7518C59.4022 24.5072 56.9475 24.1574 53.5822 23.8027L52.294 23.673C49.3987 23.3917 45.9091 23.1226 41.8643 22.9391L40.5956 22.8829C39.2904 22.829 37.9365 22.7826 36.5241 22.7483C33.3024 22.6676 30.3559 22.6651 27.4922 22.719C29.0044 18.6019 30.0345 15.7642 31.2374 12.9338C40.6971 12.9703 50.1403 13.7309 59.4849 15.2089C60.376 15.326 61.2253 15.6594 61.9593 16.1802C62.6933 16.7011 63.29 17.3937 63.6977 18.1982C63.7172 18.2398 63.7416 18.279 63.7635 18.3205C63.883 18.5684 63.9831 18.8252 64.063 19.0887L67.068 28.9301C66.6916 27.922 66.0583 27.031 65.2313 26.3462C64.4043 25.6615 63.4128 25.207 62.356 25.0282L62.3511 25.0136Z" fill="#F4004D"/>
<path id="Vector_5" d="M49.2013 57.6029C47.9496 56.8323 45.6849 55.3768 42.921 53.5103C37.9047 56.6904 35.8445 57.938 34.0693 58.9483L40.6296 63.1804C40.6296 63.1804 41.2968 63.5987 41.9275 63.9143C42.8468 64.3771 43.8819 64.5561 44.9023 64.4286C45.9227 64.3012 46.8827 63.8731 47.6613 63.1983C48.4398 62.5235 49.002 61.6322 49.2769 60.6369C49.5518 59.6415 49.5272 58.5866 49.2061 57.6053L49.2013 57.6029Z" fill="#0077C8"/>
<path id="Vector_6" d="M50.4944 58.3832C50.4628 58.1581 50.4092 57.6493 50.302 56.8787C50.0926 55.411 49.7054 52.9451 49.0406 49.6133C48.9578 49.2023 48.8718 48.7775 48.7825 48.3388C48.1908 45.4766 47.4067 42.0494 46.3864 38.1133C46.2816 37.7073 46.172 37.2963 46.0625 36.8902C45.7264 35.623 45.3668 34.3069 44.9837 32.9419C44.1046 29.8327 43.2572 26.8433 42.3538 24.1133C44.2824 24.2038 49.8028 24.5169 52.6982 24.8472C55.4968 33.9598 57.5947 43.2749 58.9735 52.7103C59.1266 53.5993 59.0621 54.5123 58.7855 55.3707C58.5089 56.229 58.0285 57.0069 57.3858 57.6371C57.3542 57.6689 57.3201 57.7056 57.2884 57.7325C57.0895 57.922 56.8753 58.0946 56.648 58.2486L48.1835 64.061C49.0306 63.4014 49.69 62.5295 50.0957 61.5329C50.5013 60.5363 50.6388 59.4501 50.4944 58.3832Z" fill="#FF8200"/>
<path id="Vector_7" d="M15.8862 55.6214C16.2223 54.183 16.8457 51.6291 17.7418 48.4049C13.1686 44.6156 11.145 42.8127 9.85199 41.6238L7.92093 49.2072C7.92093 49.2072 7.73585 49.9754 7.63601 50.675C7.48802 51.6971 7.64458 52.7403 8.08594 53.6731C8.5273 54.6059 9.23369 55.3866 10.1161 55.9166C10.9985 56.4467 12.0173 56.7025 13.0442 56.6517C14.0711 56.6009 15.06 56.2458 15.8862 55.6312V55.6214Z" fill="#00A3AD"/>
<path id="Vector_8" d="M15.5576 57.1015C15.7597 56.9988 16.2223 56.7908 16.9188 56.4435C18.2484 55.7781 20.4497 54.6381 23.3865 52.9551C23.7501 52.7496 24.1235 52.5343 24.5067 52.3093C27.0222 50.8415 30.0149 49.0214 33.4144 46.8076L34.4785 46.1128C35.5719 45.3936 36.6994 44.6451 37.8707 43.8402C40.5323 42.0251 43.0429 40.2149 45.3392 38.4951C46.3742 42.4899 47.1632 45.9489 47.7549 48.8209C40.0778 54.2907 31.9974 59.1655 23.5837 63.4031C22.7914 63.8278 21.9084 64.0527 21.0104 64.0587C20.1124 64.0647 19.2264 63.8514 18.4286 63.4374L18.3068 63.3762C18.0658 63.2435 17.8354 63.0922 17.6177 62.9236L9.46729 56.6807C10.3561 57.2812 11.3865 57.6362 12.4551 57.7101C13.5237 57.7839 14.5928 57.574 15.5551 57.1015H15.5576Z" fill="#DD9CDF"/>
<path id="Vector_9" d="M7.41937 23.4162C8.88045 23.2817 11.5226 23.0713 14.8489 22.9098C16.7776 17.6699 18.0706 14.3699 18.5309 13.2666L10.982 13.795C10.982 13.795 10.2003 13.8635 9.50626 13.9858C8.49441 14.1677 7.55869 14.6461 6.81684 15.3609C6.07499 16.0757 5.56015 16.9949 5.33708 18.003C5.11401 19.011 5.19268 20.0628 5.56319 21.026C5.9337 21.9892 6.57952 22.8208 7.41937 23.4162Z" fill="#F4004D"/>
<path id="Vector_10" d="M5.91694 23.5677C6.07765 23.7268 6.41857 24.1035 6.96648 24.6588C8.01358 25.718 9.78149 27.4549 12.2945 29.7299C12.6062 30.0112 12.9252 30.2999 13.2686 30.5935C15.4432 32.5334 18.1072 34.8133 21.268 37.3574C21.5919 37.6216 21.9231 37.8834 22.2591 38.1525C23.2851 38.9679 24.3558 39.807 25.471 40.6697C28.0279 42.6389 30.3243 44.3097 32.6717 45.961C29.226 48.2042 26.1967 50.0438 23.6617 51.5116C16.144 45.9607 9.06128 39.8384 2.47609 33.1987C1.82751 32.578 1.33815 31.8088 1.04979 30.9568C0.761435 30.1049 0.682661 29.1954 0.820204 28.3062C0.820204 28.2622 0.820209 28.2157 0.83969 28.1716C0.889687 27.901 0.959684 27.6344 1.04911 27.3742L4.39498 17.6233C4.11041 18.661 4.10118 19.7555 4.36818 20.7979C4.63518 21.8404 5.16912 22.7944 5.91694 23.5653V23.5677Z" fill="#0077C8"/>
<path id="Vector_11" d="M83.6148 16.5691V40.9438H80.678V16.5691H83.6148Z" fill="#0171B9"/>
<path id="Vector_12" d="M90.5743 29.9478V40.9439H87.7788V22.6628H90.4794V25.5201H90.7229C91.1409 24.5808 91.8308 23.7897 92.7026 23.2499C93.589 22.7052 94.6954 22.4321 96.0217 22.4304C97.9228 22.4304 99.4252 23.0135 100.529 24.1795C101.633 25.3456 102.183 27.0629 102.18 29.3314V40.9487H99.3846V29.5173C99.3846 28.0903 99.0153 26.9715 98.2767 26.161C97.538 25.3505 96.5177 24.9427 95.2157 24.9379C93.8406 24.9379 92.7229 25.3823 91.8625 26.2711C91.0021 27.1599 90.5727 28.3855 90.5743 29.9478Z" fill="#0171B9"/>
<path id="Vector_13" d="M114.071 22.6628V25.043H109.992V40.9438H107.197V25.043H104.257V22.6628H107.197V20.1407C107.185 19.4301 107.333 18.726 107.63 18.0809C107.892 17.5016 108.288 16.9935 108.784 16.5985C109.274 16.218 109.825 15.9243 110.413 15.73C111.027 15.5258 111.669 15.4234 112.315 15.4267C113.223 15.3986 114.127 15.5611 114.969 15.9037L114.163 18.3304C113.66 18.1514 113.131 18.0548 112.598 18.0442C111.692 18.0442 111.029 18.2766 110.615 18.7365C110.202 19.1964 109.992 19.8863 109.992 20.8061V22.6628H114.071Z" fill="#0171B9"/>
<path id="Vector_14" d="M116.669 40.9438V22.6627H119.37V25.4246H119.56C119.899 24.5101 120.532 23.7354 121.359 23.2229C122.235 22.6562 123.257 22.3618 124.298 22.3765C124.85 22.3765 125.337 22.3928 125.76 22.4254V25.2802C125.201 25.149 124.629 25.0857 124.055 25.0919C122.84 25.0518 121.657 25.4908 120.76 26.315C120.34 26.701 120.007 27.173 119.783 27.6992C119.56 28.2254 119.451 28.7936 119.465 29.3655V40.934L116.669 40.9438Z" fill="#0171B9"/>
<path id="Vector_15" d="M133.104 41.3718C132.023 41.3887 130.952 41.1674 129.965 40.7235C129.05 40.306 128.275 39.6325 127.732 38.7836C127.163 37.8789 126.872 36.8252 126.897 35.7551C126.891 35.2166 126.967 34.6803 127.123 34.165C127.253 33.7307 127.446 33.3183 127.698 32.9419C127.947 32.5822 128.26 32.2713 128.621 32.0245C128.978 31.7703 129.357 31.5493 129.753 31.364C130.184 31.1721 130.632 31.019 131.09 30.9066C131.611 30.772 132.079 30.662 132.488 30.5959C132.897 30.5299 133.389 30.454 133.949 30.3831C134.256 30.3423 134.599 30.3007 134.979 30.2583L135.885 30.1556C136.111 30.1311 136.372 30.1018 136.632 30.0602C136.893 30.0186 137.119 29.9843 137.27 29.955C137.421 29.9256 137.592 29.8816 137.757 29.8278C137.898 29.7931 138.032 29.7352 138.154 29.6565C138.242 29.5867 138.324 29.5089 138.398 29.4241C138.48 29.3371 138.539 29.2313 138.571 29.1159C138.604 28.9857 138.619 28.8516 138.617 28.7172V28.6218C138.617 27.4296 138.292 26.5131 137.643 25.8722C136.994 25.2312 136.038 24.9099 134.777 24.9083C134.178 24.9046 133.582 24.987 133.006 25.1529C132.513 25.2886 132.046 25.5079 131.626 25.8012C131.272 26.0514 130.951 26.3457 130.671 26.677C130.418 26.9807 130.205 27.3162 130.038 27.6751L127.384 26.7235C127.701 25.9576 128.155 25.2563 128.723 24.6539C129.244 24.0966 129.865 23.6441 130.554 23.3207C131.197 23.0186 131.873 22.7929 132.568 22.648C133.264 22.5069 133.972 22.4372 134.682 22.44C135.052 22.4392 135.422 22.4571 135.79 22.4938C136.207 22.5383 136.62 22.6119 137.027 22.714C137.47 22.8155 137.9 22.9631 138.313 23.1543C138.738 23.3581 139.134 23.6181 139.491 23.9274C139.884 24.258 140.222 24.6495 140.492 25.0869C140.794 25.5985 141.018 26.1526 141.157 26.7308C141.329 27.445 141.411 28.1781 141.4 28.9129V40.9584H138.605V38.468H138.464C138.291 38.8153 138.071 39.1371 137.811 39.4245C137.496 39.7739 137.142 40.0858 136.757 40.3541C136.266 40.687 135.724 40.9351 135.152 41.088C134.485 41.2767 133.796 41.3722 133.104 41.3718ZM133.532 38.8497C134.28 38.8582 135.023 38.7289 135.724 38.468C136.332 38.2489 136.886 37.8991 137.346 37.443C137.759 37.0276 138.089 36.5369 138.32 35.9973C138.543 35.4687 138.657 34.9005 138.656 34.3265V31.7555C138.364 32.1045 136.852 32.442 134.119 32.7682L133.822 32.8025C133.291 32.8693 132.764 32.9731 132.247 33.1131C131.798 33.2386 131.367 33.4176 130.961 33.6464C130.573 33.8602 130.25 34.1755 130.026 34.5589C129.801 34.9678 129.688 35.4297 129.7 35.897C129.68 36.3206 129.766 36.7424 129.95 37.1239C130.134 37.5055 130.411 37.8347 130.754 38.0815C131.452 38.5936 132.378 38.8497 133.532 38.8497Z" fill="#0171B9"/>
<path id="Vector_16" d="M161.427 41.2765C159.995 41.301 158.573 41.0279 157.251 40.4741C156.091 39.9961 155.082 39.2127 154.329 38.2064C153.613 37.2314 153.21 36.0608 153.172 34.8501H156.157C156.191 35.4053 156.353 35.9449 156.631 36.426C156.909 36.9071 157.294 37.3166 157.757 37.6218C158.731 38.3149 159.936 38.6606 161.371 38.659C162.934 38.659 164.218 38.2578 165.221 37.4554C165.701 37.0912 166.088 36.6175 166.349 36.0735C166.611 35.5295 166.74 34.9307 166.726 34.3266C166.746 33.6945 166.621 33.0662 166.359 32.4911C166.097 31.916 165.706 31.4097 165.216 31.0119C164.208 30.1753 162.8 29.757 160.991 29.757H159.043V27.137H160.991C162.452 27.137 163.629 26.7505 164.522 25.9775C164.965 25.6009 165.316 25.1282 165.55 24.5951C165.785 24.062 165.895 23.4824 165.874 22.9001C165.874 21.6623 165.473 20.6707 164.671 19.9254C163.869 19.1801 162.8 18.8074 161.466 18.8074C160.247 18.7773 159.051 19.1447 158.057 19.8545C157.601 20.169 157.226 20.5875 156.963 21.0756C156.699 21.5637 156.554 22.1076 156.54 22.6628H153.703C153.737 21.4557 154.137 20.2877 154.847 19.3138C155.572 18.3165 156.546 17.5298 157.672 17.0339C158.884 16.4936 160.197 16.2216 161.522 16.2364C162.55 16.225 163.57 16.4067 164.532 16.7721C165.382 17.0871 166.158 17.5752 166.811 18.2057C167.413 18.7979 167.892 19.5037 168.221 20.2826C168.556 21.0643 168.728 21.907 168.725 22.7582C168.76 24.009 168.388 25.2372 167.666 26.2564C166.942 27.2372 165.914 27.9488 164.744 28.2794V28.4702C166.266 28.7247 167.46 29.377 168.326 30.4273C169.191 31.4775 169.624 32.7822 169.624 34.3413C169.63 35.2994 169.416 36.246 169 37.1081C168.595 37.9559 168.014 38.7067 167.296 39.3097C166.523 39.9485 165.639 40.4394 164.69 40.7579C163.639 41.1125 162.536 41.2878 161.427 41.2765Z" fill="#0171B9"/>
<path id="Vector_17" d="M181.181 41.2765C180.602 41.2697 180.025 41.2099 179.457 41.0979C178.874 40.9788 178.308 40.7908 177.769 40.5378C177.201 40.2769 176.669 39.9431 176.186 39.5446C175.662 39.1009 175.2 38.5882 174.813 38.0205C174.364 37.3727 173.996 36.6719 173.717 35.9339C173.387 35.0417 173.149 34.1179 173.006 33.1769C172.826 32.0296 172.739 30.8695 172.745 29.7081C172.745 25.4075 173.526 22.079 175.086 19.7224C176.646 17.3658 178.804 16.1875 181.561 16.1875C183.574 16.1875 185.258 16.7811 186.614 17.9684C187.969 19.1557 188.796 20.7205 189.095 22.6628H186.212C185.98 21.5804 185.416 20.5982 184.6 19.8545C183.811 19.1581 182.8 18.8091 181.568 18.8075C179.678 18.8075 178.197 19.6343 177.124 21.288C176.051 22.9417 175.509 25.2567 175.497 28.233H175.687C176.333 27.239 177.214 26.4212 178.251 25.8527C179.296 25.2792 180.47 24.9844 181.661 24.9965C182.673 24.9931 183.675 25.1996 184.605 25.6032C185.518 25.9912 186.346 26.5574 187.04 27.2691C187.75 28.0115 188.307 28.8867 188.681 29.8451C189.092 30.8764 189.299 31.978 189.292 33.0888C189.298 34.1813 189.099 35.2651 188.705 36.2837C188.335 37.2524 187.784 38.1409 187.081 38.9012C186.361 39.6644 185.487 40.2634 184.517 40.6576C183.459 41.093 182.323 41.3038 181.181 41.2765ZM181.181 38.659C182.124 38.6708 183.052 38.4166 183.859 37.9251C184.663 37.4345 185.32 36.7357 185.761 35.9021C186.221 35.0404 186.457 34.0762 186.448 33.0986C186.48 31.6603 185.948 30.267 184.967 29.2188C184.503 28.7034 183.934 28.2942 183.298 28.019C182.662 27.7438 181.975 27.6091 181.283 27.6239C180.326 27.6178 179.387 27.8842 178.575 28.392C177.767 28.8921 177.1 29.5913 176.637 30.4231C176.174 31.255 175.93 32.1919 175.928 33.1451C175.923 34.0921 176.153 35.0254 176.598 35.8605C177.038 36.6943 177.69 37.3964 178.488 37.8958C179.294 38.4047 180.229 38.6704 181.181 38.6615V38.659Z" fill="#0171B9"/>
<path id="Vector_18" d="M206.732 38.0033C205.26 40.1854 203.184 41.2764 200.506 41.2764C197.827 41.2764 195.752 40.1854 194.282 38.0033C192.808 35.8212 192.071 32.7389 192.071 28.7564C192.071 24.8065 192.813 21.7323 194.299 19.5339C195.784 17.3355 197.853 16.2363 200.506 16.2363C203.16 16.2363 205.23 17.3355 206.715 19.5339C208.201 21.7323 208.943 24.8065 208.941 28.7564C208.941 32.7389 208.205 35.8212 206.732 38.0033ZM196.383 36.0756C197.357 37.7978 198.731 38.6589 200.506 38.6589C202.28 38.6589 203.654 37.7978 204.629 36.0756C205.603 34.3535 206.09 31.9137 206.09 28.7564C206.09 25.5991 205.598 23.1528 204.614 21.4175C203.63 19.6807 202.258 18.8123 200.496 18.8123C198.735 18.8123 197.363 19.6807 196.381 21.4175C195.397 23.156 194.905 25.6023 194.905 28.7564C194.905 31.9104 195.398 34.3502 196.383 36.0756Z" fill="#0171B9"/>
<path id="Vector_19" d="M82.6065 53.5103H80.8264V47.7126H82.6844C83.0471 47.6919 83.4099 47.7495 83.7485 47.8815C84.0871 48.0136 84.3935 48.2171 84.6472 48.4783C85.1196 48.9896 85.3533 49.7015 85.3533 50.5968C85.3533 51.4921 85.1098 52.2187 84.6228 52.7324C84.1358 53.2461 83.4783 53.5103 82.6065 53.5103ZM81.5253 52.889H82.5627C83.2624 52.889 83.79 52.6892 84.1455 52.2896C84.4904 51.8001 84.6766 51.2156 84.6788 50.6159C84.6809 50.0161 84.499 49.4303 84.1577 48.9382C83.9644 48.7323 83.7281 48.572 83.4658 48.4688C83.2035 48.3656 82.9217 48.3221 82.6406 48.3413H81.5253V52.889Z" fill="#1770A8"/>
<path id="Vector_20" d="M86.7902 48.3094C86.6999 48.3947 86.5805 48.4422 86.4566 48.4422C86.3326 48.4422 86.2133 48.3947 86.123 48.3094C86.0786 48.2693 86.0433 48.2203 86.0194 48.1654C85.9955 48.1106 85.9834 48.0512 85.9842 47.9914C85.9834 47.9311 85.9954 47.8714 86.0193 47.8162C86.0432 47.7609 86.0786 47.7114 86.123 47.6709C86.2133 47.5856 86.3326 47.5381 86.4566 47.5381C86.5805 47.5381 86.6999 47.5856 86.7902 47.6709C86.8346 47.7114 86.8699 47.7609 86.8938 47.8162C86.9178 47.8714 86.9298 47.9311 86.929 47.9914C86.9297 48.0512 86.9177 48.1106 86.8938 48.1654C86.8698 48.2203 86.8345 48.2693 86.7902 48.3094ZM86.1278 53.5102V49.1803H86.7926V53.5102H86.1278Z" fill="#1770A8"/>
<path id="Vector_21" d="M89.4273 55.23C89.211 55.2325 88.9951 55.2087 88.7845 55.1591C88.6077 55.1193 88.4378 55.0533 88.2804 54.9634C88.1489 54.8871 88.027 54.7951 87.9175 54.6894C87.8175 54.5911 87.7307 54.4801 87.6594 54.3591L88.1878 53.9873C88.2716 54.1044 88.3653 54.2141 88.4679 54.3151C88.7349 54.5424 89.0778 54.6595 89.4273 54.6429C89.7411 54.6589 90.0508 54.5656 90.304 54.3787C90.4162 54.2823 90.5044 54.1609 90.5615 54.0241C90.6186 53.8873 90.643 53.739 90.6327 53.591V52.7079H90.5767C90.5027 52.8345 90.4162 52.9533 90.3186 53.0626C90.1871 53.193 90.0299 53.2943 89.8571 53.36C89.6843 53.4257 89.4998 53.4544 89.3153 53.4442C89.0646 53.4463 88.8161 53.3972 88.5848 53.2999C88.3647 53.2069 88.1671 53.0676 88.0052 52.8914C87.8301 52.6982 87.6981 52.4697 87.618 52.2211C87.5222 51.9292 87.4754 51.6233 87.4792 51.316C87.474 50.9161 87.5572 50.5201 87.7227 50.1564C87.8617 49.8404 88.0882 49.5712 88.3753 49.381C88.6616 49.1977 88.9954 49.1032 89.3348 49.1094C89.4771 49.1086 89.6189 49.1275 89.7561 49.1657C89.8618 49.1939 89.9646 49.2324 90.0629 49.2807C90.1537 49.3287 90.236 49.3916 90.3064 49.4666C90.3624 49.5198 90.4145 49.577 90.4623 49.6378L90.5767 49.8115L90.6059 49.858H90.6741V49.1804H91.317V53.6473C91.3201 53.8505 91.2871 54.0526 91.2196 54.2442C91.1632 54.4106 91.0737 54.5637 90.9566 54.6943C90.8408 54.8199 90.704 54.9242 90.5524 55.0025C90.3905 55.0876 90.2175 55.1493 90.0386 55.186C89.8368 55.2212 89.632 55.236 89.4273 55.23ZM89.4054 52.8449C89.579 52.8541 89.7524 52.8222 89.9115 52.7516C90.0705 52.6811 90.2108 52.5739 90.321 52.4388C90.5531 52.1089 90.6665 51.7094 90.6425 51.3062C90.6635 50.8949 90.5507 50.4878 90.321 50.1466C90.216 50.0038 90.0774 49.8893 89.9177 49.8134C89.7579 49.7374 89.5819 49.7023 89.4054 49.7112C89.214 49.7068 89.0244 49.7487 88.8526 49.8335C88.6937 49.9134 88.5573 50.032 88.4557 50.1784C88.3476 50.3319 88.2653 50.5021 88.2122 50.6824C88.157 50.8856 88.13 51.0955 88.1318 51.3062C88.1124 51.7051 88.2273 52.0989 88.4581 52.4241C88.57 52.5667 88.7146 52.6799 88.8796 52.7541C89.0446 52.8282 89.225 52.8611 89.4054 52.8498V52.8449Z" fill="#1770A8"/>
<path id="Vector_22" d="M92.8681 48.3095C92.8241 48.353 92.772 48.3874 92.7147 48.4105C92.6575 48.4336 92.5962 48.445 92.5345 48.444C92.4727 48.4454 92.4113 48.4342 92.3539 48.411C92.2966 48.3879 92.2445 48.3534 92.2008 48.3095C92.1558 48.2699 92.1199 48.221 92.0955 48.166C92.0711 48.1111 92.0589 48.0516 92.0596 47.9915C92.0588 47.931 92.0711 47.8711 92.0954 47.8158C92.1198 47.7605 92.1557 47.7111 92.2008 47.671C92.245 47.6279 92.2972 47.594 92.3545 47.5714C92.4118 47.5487 92.4729 47.5377 92.5345 47.5389C92.6586 47.5372 92.7785 47.5846 92.8681 47.671C92.9125 47.7115 92.9478 47.761 92.9717 47.8163C92.9956 47.8715 93.0076 47.9312 93.0069 47.9915C93.0076 48.0514 92.9956 48.1107 92.9716 48.1655C92.9477 48.2204 92.9124 48.2695 92.8681 48.3095ZM92.196 53.5103V49.1804H92.8608V53.5103H92.196Z" fill="#1770A8"/>
<path id="Vector_23" d="M95.6393 49.1803V49.7454H94.7164V52.2797C94.7131 52.3941 94.7287 52.5081 94.7626 52.6173C94.7862 52.6968 94.8328 52.7675 94.8966 52.8204C94.9497 52.8628 95.0111 52.8937 95.0768 52.9109C95.1468 52.9287 95.2188 52.937 95.291 52.9353C95.3893 52.9332 95.4871 52.9217 95.5832 52.9011L95.7196 53.5004C95.5633 53.5561 95.3984 53.5835 95.2326 53.5812C95.0893 53.5809 94.9469 53.5569 94.8113 53.5102C94.6765 53.4633 94.5505 53.3939 94.4387 53.3047C94.3205 53.2109 94.2262 53.0902 94.1636 52.9525C94.0939 52.799 94.0589 52.6319 94.0613 52.4632V49.7478H93.4087V49.1803H94.0613V48.1382H94.7261V49.1803H95.6393Z" fill="#1770A8"/>
<path id="Vector_24" d="M97.5971 53.613C97.3405 53.6168 97.0862 53.5642 96.852 53.4588C96.6348 53.3598 96.4505 53.2002 96.3211 52.9989C96.2225 52.836 96.1586 52.6542 96.1334 52.4651C96.1083 52.2761 96.1224 52.0839 96.175 51.9006C96.2067 51.7968 96.2526 51.698 96.3113 51.607C96.3714 51.5215 96.4465 51.4477 96.5329 51.3893C96.6176 51.3295 96.7072 51.2771 96.8008 51.2327C96.904 51.188 97.0107 51.152 97.1198 51.1251C97.2289 51.095 97.3394 51.0705 97.451 51.0517C97.5484 51.0346 97.6653 51.0175 97.7992 51.0003L98.0427 50.971L98.257 50.9465L98.4348 50.9245L98.5882 50.8976L98.7051 50.8682C98.7388 50.8596 98.7709 50.8456 98.8001 50.8267C98.8221 50.8108 98.8425 50.7928 98.861 50.7728C98.8802 50.7519 98.8944 50.7268 98.9023 50.6994C98.9063 50.6678 98.9063 50.6357 98.9023 50.604V50.582C98.909 50.4621 98.8909 50.3422 98.8489 50.2297C98.807 50.1173 98.7423 50.0148 98.6588 49.9289C98.5666 49.8468 98.459 49.7842 98.3423 49.7447C98.2256 49.7052 98.1022 49.6896 97.9794 49.6989C97.8371 49.6979 97.6953 49.7169 97.5581 49.7552C97.4403 49.7866 97.329 49.8388 97.2294 49.9093C97.1457 49.969 97.0697 50.0389 97.0029 50.1172C96.9423 50.1919 96.8915 50.2741 96.852 50.3619L96.2212 50.1368C96.2967 49.9554 96.4049 49.7895 96.5403 49.6475C96.6631 49.5145 96.8102 49.4066 96.9737 49.3295C97.1292 49.2574 97.2927 49.204 97.4607 49.1705C97.6257 49.1359 97.7938 49.1187 97.9624 49.1192C98.0502 49.119 98.1381 49.1239 98.2254 49.1338C98.3248 49.1433 98.4233 49.1604 98.52 49.1852C98.6256 49.2095 98.7285 49.2448 98.8269 49.2904C98.9273 49.3398 99.0214 49.4015 99.1069 49.4739C99.2028 49.5518 99.2851 49.6452 99.3504 49.7503C99.4233 49.8707 99.4768 50.002 99.5087 50.1393C99.5512 50.3088 99.5716 50.4831 99.5696 50.6579V53.52H98.9048V52.9329H98.8707C98.831 53.0159 98.7793 53.0926 98.7173 53.1604C98.6436 53.2417 98.562 53.3155 98.4737 53.3806C98.3572 53.4608 98.228 53.5203 98.0914 53.5567C97.93 53.5983 97.7637 53.6173 97.5971 53.613ZM97.6994 53.0136C97.8772 53.0161 98.0539 52.9854 98.2205 52.9231C98.3647 52.8701 98.4959 52.7867 98.6052 52.6785C98.703 52.5803 98.7807 52.464 98.8342 52.336C98.8873 52.2107 98.9147 52.0759 98.9145 51.9397V51.3281C98.8463 51.4113 98.4859 51.492 97.8357 51.5728H97.7651C97.6391 51.5868 97.5145 51.6114 97.3926 51.6462C97.2853 51.6752 97.1822 51.7179 97.0857 51.7734C96.9941 51.824 96.9176 51.8983 96.8641 51.9886C96.8107 52.0859 96.7839 52.1956 96.7862 52.3067C96.7807 52.4066 96.8 52.5064 96.8425 52.597C96.885 52.6875 96.9494 52.766 97.0297 52.8253C97.2268 52.9591 97.4618 53.0252 97.6994 53.0136Z" fill="#1770A8"/>
<path id="Vector_25" d="M101.143 47.7126V53.5103H100.478V47.7126H101.143Z" fill="#1770A8"/>
<path id="Vector_26" d="M104.744 47.7126V53.5103H104.045V47.7126H104.744Z" fill="#1770A8"/>
<path id="Vector_27" d="M106.398 50.8929V53.5104H105.733V49.1805H106.373V49.8581H106.429C106.533 49.6323 106.703 49.4437 106.916 49.3175C107.155 49.1799 107.428 49.1121 107.703 49.1218C107.901 49.1115 108.098 49.1432 108.283 49.2149C108.467 49.2865 108.635 49.3965 108.774 49.5376C109.059 49.8784 109.201 50.317 109.169 50.7608V53.5104H108.504V50.7975C108.521 50.5069 108.427 50.2208 108.241 49.9975C108.147 49.8999 108.033 49.8238 107.907 49.7745C107.781 49.7251 107.646 49.7035 107.511 49.7113C107.363 49.7054 107.216 49.7303 107.079 49.7847C106.942 49.839 106.818 49.9215 106.714 50.0269C106.607 50.1429 106.524 50.2792 106.469 50.4279C106.415 50.5766 106.391 50.7346 106.398 50.8929Z" fill="#1770A8"/>
<path id="Vector_28" d="M111.982 49.1804V49.7454H111.007V53.5103H110.343V49.7332H109.644V49.1804H110.343V48.5688C110.34 48.4001 110.375 48.2328 110.445 48.0795C110.507 47.9414 110.601 47.8205 110.72 47.7273C110.836 47.6362 110.967 47.5659 111.107 47.5193C111.253 47.471 111.405 47.4471 111.558 47.4484C111.774 47.4411 111.988 47.4794 112.189 47.5609L111.999 48.1382C111.879 48.0952 111.753 48.072 111.626 48.0697C111.54 48.0618 111.454 48.0723 111.372 48.1005C111.291 48.1288 111.216 48.1742 111.154 48.2336C111.047 48.3733 110.995 48.5474 111.007 48.7229V49.1804H111.982Z" fill="#1770A8"/>
<path id="Vector_29" d="M112.598 53.5104V49.1805H113.241V49.8361H113.284C113.366 49.6188 113.517 49.4348 113.713 49.3126C113.921 49.1779 114.164 49.1081 114.412 49.112C114.543 49.112 114.655 49.112 114.76 49.112V49.792C114.628 49.7604 114.492 49.7448 114.356 49.7456C114.067 49.7361 113.786 49.8396 113.572 50.0342C113.47 50.1268 113.39 50.2404 113.337 50.3671C113.284 50.4938 113.258 50.6306 113.262 50.7681V53.5104H112.598Z" fill="#1770A8"/>
<path id="Vector_30" d="M116.504 53.613C116.247 53.6168 115.993 53.5642 115.759 53.4588C115.541 53.3598 115.357 53.2002 115.228 52.9989C115.091 52.7837 115.022 52.5324 115.028 52.2773C115.027 52.1498 115.046 52.0229 115.082 51.9006C115.113 51.7968 115.159 51.698 115.218 51.607C115.278 51.5215 115.353 51.4477 115.44 51.3893C115.524 51.3295 115.614 51.2771 115.707 51.2327C115.811 51.188 115.917 51.152 116.026 51.1251C116.135 51.095 116.246 51.0705 116.358 51.0517C116.455 51.0346 116.572 51.0175 116.706 51.0003L116.949 50.971L117.164 50.9465L117.341 50.9245L117.495 50.8976L117.612 50.8682C117.645 50.8596 117.677 50.8456 117.707 50.8267C117.729 50.8108 117.749 50.7928 117.768 50.7728C117.786 50.7513 117.8 50.7264 117.809 50.6994C117.813 50.6678 117.813 50.6357 117.809 50.604V50.582C117.815 50.4622 117.797 50.3424 117.755 50.23C117.713 50.1177 117.648 50.0152 117.565 49.9289C117.473 49.8468 117.366 49.7842 117.249 49.7447C117.132 49.7052 117.009 49.6896 116.886 49.6989C116.744 49.6979 116.602 49.7169 116.465 49.7552C116.347 49.7866 116.236 49.8388 116.136 49.9093C116.052 49.969 115.976 50.0389 115.909 50.1172C115.849 50.1919 115.798 50.2741 115.759 50.3619L115.128 50.1368C115.203 49.9554 115.311 49.7895 115.447 49.6475C115.57 49.5145 115.717 49.4066 115.88 49.3295C116.036 49.2574 116.199 49.204 116.367 49.1705C116.532 49.1359 116.7 49.1187 116.869 49.1192C116.957 49.119 117.045 49.1239 117.132 49.1338C117.231 49.1433 117.33 49.1604 117.427 49.1852C117.532 49.2095 117.635 49.2448 117.733 49.2904C117.834 49.3398 117.928 49.4015 118.013 49.4739C118.109 49.5518 118.192 49.6452 118.257 49.7503C118.33 49.8707 118.383 50.002 118.415 50.1393C118.458 50.3088 118.478 50.4831 118.476 50.6579V53.52H117.811V52.9329H117.785C117.745 53.0159 117.693 53.0926 117.631 53.1604C117.557 53.2417 117.476 53.3155 117.388 53.3806C117.271 53.4608 117.142 53.5203 117.005 53.5567C116.842 53.599 116.673 53.6179 116.504 53.613ZM116.606 53.0136C116.784 53.0161 116.96 52.9854 117.127 52.9231C117.271 52.8701 117.402 52.7867 117.512 52.6785C117.61 52.5803 117.687 52.464 117.741 52.336C117.794 52.2107 117.821 52.0759 117.821 51.9397V51.3281C117.753 51.4113 117.392 51.492 116.742 51.5728H116.672C116.546 51.5868 116.421 51.6114 116.299 51.6462C116.192 51.6752 116.089 51.7179 115.992 51.7734C115.901 51.824 115.824 51.8983 115.771 51.9886C115.717 52.0859 115.69 52.1956 115.693 52.3067C115.687 52.4067 115.706 52.5066 115.748 52.5973C115.791 52.6879 115.856 52.7663 115.936 52.8253C116.133 52.9591 116.368 53.0252 116.606 53.0136Z" fill="#1770A8"/>
<path id="Vector_31" d="M122.448 50.1393L121.851 50.3105C121.787 50.1168 121.66 49.9502 121.49 49.8372C121.321 49.7242 121.119 49.6713 120.916 49.6867C120.682 49.6777 120.452 49.7418 120.256 49.8702C120.177 49.9183 120.111 49.986 120.065 50.0669C120.019 50.1479 119.994 50.2393 119.993 50.3325C119.991 50.4069 120.005 50.4808 120.036 50.5486C120.066 50.6164 120.111 50.6764 120.168 50.7239C120.338 50.8459 120.531 50.9294 120.736 50.9686L121.379 51.1276C121.701 51.1878 122 51.3369 122.243 51.5581C122.337 51.6573 122.411 51.7745 122.459 51.9026C122.508 52.0307 122.53 52.1672 122.526 52.3042C122.528 52.4861 122.486 52.6658 122.404 52.8281C122.322 52.9903 122.203 53.1304 122.056 53.2363C121.714 53.462 121.316 53.5886 120.907 53.602C120.498 53.6153 120.093 53.515 119.737 53.3121C119.595 53.216 119.474 53.0922 119.381 52.948C119.288 52.8039 119.224 52.6423 119.194 52.473L119.825 52.314C119.942 52.7804 120.276 53.0145 120.826 53.0161C121.084 53.0274 121.339 52.9591 121.556 52.8204C121.641 52.7701 121.712 52.6986 121.761 52.6129C121.81 52.5271 121.836 52.4301 121.836 52.3311C121.836 52.0254 121.625 51.8223 121.196 51.722L120.465 51.5508C119.699 51.373 119.316 50.9775 119.316 50.3643C119.314 50.1886 119.353 50.0149 119.432 49.8578C119.51 49.7007 119.625 49.5648 119.767 49.4617C120.094 49.2169 120.496 49.0917 120.904 49.107C121.705 49.1094 122.216 49.4543 122.448 50.1393Z" fill="#1770A8"/>
<path id="Vector_32" d="M125.09 49.1803V49.7454H124.167V52.2797C124.164 52.3941 124.179 52.5081 124.213 52.6173C124.237 52.6968 124.284 52.7675 124.347 52.8204C124.4 52.8625 124.46 52.8933 124.525 52.9109C124.596 52.9287 124.669 52.9369 124.742 52.9353C124.84 52.9332 124.938 52.9217 125.034 52.9011L125.168 53.5004C125.012 53.5566 124.847 53.584 124.681 53.5812C124.392 53.5813 124.112 53.4839 123.885 53.3047C123.767 53.2107 123.674 53.09 123.612 52.9525C123.542 52.799 123.507 52.6319 123.51 52.4632V49.7478H122.857V49.1803H123.51V48.1382H124.174V49.1803H125.09Z" fill="#1770A8"/>
<path id="Vector_33" d="M125.777 53.5104V49.1804H126.419V49.836H126.466C126.545 49.6185 126.696 49.4342 126.892 49.3125C127.1 49.1781 127.343 49.1083 127.591 49.112C127.722 49.112 127.834 49.112 127.939 49.112V49.792C127.807 49.7604 127.671 49.7448 127.535 49.7455C127.246 49.7361 126.965 49.8396 126.751 50.0342C126.65 50.1272 126.57 50.2408 126.517 50.3674C126.463 50.494 126.438 50.6307 126.441 50.7681V53.5104H125.777Z" fill="#1770A8"/>
<path id="Vector_34" d="M131.136 51.7343V49.1804H131.801V53.5103H131.136V52.7765H131.09C130.984 53.0091 130.815 53.2073 130.603 53.3489C130.366 53.5006 130.09 53.5773 129.809 53.569C129.62 53.5771 129.431 53.5436 129.255 53.471C129.08 53.3983 128.922 53.2882 128.794 53.1483C128.518 52.8034 128.382 52.3664 128.414 51.9251V49.1804H129.078V51.8713C129.066 52.148 129.16 52.4189 129.341 52.6272C129.428 52.7215 129.534 52.7959 129.651 52.8453C129.769 52.8947 129.896 52.918 130.023 52.9134C130.155 52.913 130.285 52.8882 130.408 52.8401C130.539 52.7903 130.66 52.7183 130.766 52.6272C130.884 52.5243 130.976 52.3953 131.036 52.2505C131.104 52.0871 131.138 51.9114 131.136 51.7343Z" fill="#1770A8"/>
<path id="Vector_35" d="M134.455 53.6009C134.087 53.6092 133.723 53.5088 133.411 53.3122C133.112 53.12 132.876 52.8445 132.731 52.5196C132.575 52.152 132.494 51.7563 132.494 51.3564C132.494 50.9565 132.575 50.5608 132.731 50.1932C132.878 49.864 133.117 49.5855 133.421 49.3927C133.724 49.1999 134.077 49.1014 134.436 49.1095C134.852 49.0965 135.26 49.2288 135.59 49.4838C135.743 49.6019 135.871 49.7492 135.966 49.9171C136.062 50.085 136.124 50.2703 136.148 50.4623H135.483C135.428 50.2488 135.303 50.0596 135.13 49.9241C134.935 49.7728 134.692 49.6957 134.446 49.7064C134.266 49.7008 134.087 49.7383 133.924 49.8157C133.761 49.8931 133.618 50.0082 133.508 50.1516C133.256 50.4926 133.13 50.9114 133.153 51.3356C133.131 51.7666 133.255 52.1922 133.503 52.5441C133.613 52.6898 133.756 52.807 133.92 52.8858C134.084 52.9645 134.264 53.0026 134.446 52.9967C134.684 53.0037 134.918 52.9334 135.113 52.7961C135.299 52.6606 135.43 52.4627 135.483 52.2383H136.148C136.097 52.6224 135.902 52.9725 135.602 53.2168C135.278 53.478 134.871 53.6142 134.455 53.6009Z" fill="#1770A8"/>
<path id="Vector_36" d="M138.688 49.1803V49.7454H137.765V52.2797C137.763 52.394 137.778 52.5079 137.811 52.6173C137.835 52.6968 137.881 52.7675 137.945 52.8204C137.998 52.8625 138.06 52.8933 138.125 52.9109C138.195 52.9287 138.267 52.937 138.339 52.9353C138.438 52.9332 138.535 52.9217 138.632 52.9011L138.768 53.5004C138.612 53.5561 138.447 53.5835 138.281 53.5812C137.993 53.5819 137.713 53.4844 137.487 53.3047C137.369 53.2114 137.275 53.0905 137.214 52.9525C137.143 52.7995 137.107 52.6322 137.11 52.4632V49.7478H136.457V49.1803H137.11V48.1382H137.774V49.1803H138.688Z" fill="#1770A8"/>
<path id="Vector_37" d="M142.099 51.7343V49.1804H142.764V53.5103H142.099V52.7765H142.053C141.947 53.0091 141.778 53.2073 141.566 53.3489C141.329 53.5006 141.053 53.5773 140.772 53.569C140.583 53.5771 140.394 53.5436 140.218 53.471C140.043 53.3983 139.885 53.2882 139.757 53.1483C139.481 52.8034 139.345 52.3664 139.377 51.9251V49.1804H140.042V51.8713C140.029 52.148 140.123 52.4189 140.305 52.6272C140.391 52.7215 140.497 52.7959 140.614 52.8453C140.732 52.8947 140.859 52.918 140.986 52.9134C141.118 52.913 141.249 52.8882 141.371 52.8401C141.502 52.7903 141.623 52.7183 141.729 52.6272C141.847 52.5243 141.939 52.3953 141.999 52.2505C142.068 52.0871 142.102 51.9114 142.099 51.7343Z" fill="#1770A8"/>
<path id="Vector_38" d="M143.663 53.5104V49.1804H144.305V49.836H144.349C144.43 49.6183 144.581 49.434 144.778 49.3125C144.985 49.1782 145.228 49.1084 145.474 49.1119C145.606 49.1119 145.718 49.1119 145.825 49.1119V49.792C145.692 49.7602 145.555 49.7446 145.418 49.7455C145.13 49.7365 144.85 49.84 144.637 50.0342C144.535 50.1268 144.455 50.2403 144.402 50.367C144.348 50.4937 144.323 50.6306 144.327 50.7681V53.5104H143.663Z" fill="#1770A8"/>
<path id="Vector_39" d="M147.98 53.6009C147.707 53.6122 147.435 53.5636 147.183 53.4584C146.93 53.3532 146.704 53.1939 146.519 52.9917C146.14 52.5405 145.946 51.9617 145.976 51.3723C145.973 51.0618 146.02 50.7529 146.115 50.4574C146.2 50.1956 146.334 49.9524 146.509 49.7406C146.678 49.542 146.888 49.384 147.126 49.2783C147.376 49.1641 147.649 49.1065 147.924 49.1095C148.107 49.1092 148.289 49.1331 148.465 49.1804C148.644 49.2297 148.813 49.3083 148.966 49.4128C149.13 49.5214 149.273 49.659 149.388 49.8189C149.519 50.0065 149.616 50.2161 149.675 50.4378C149.749 50.7128 149.786 50.9968 149.782 51.2818V51.5656H146.643C146.633 51.9554 146.771 52.3346 147.031 52.6248C147.248 52.8259 147.523 52.9539 147.816 52.9907C148.109 53.0275 148.407 52.9715 148.667 52.8303C148.855 52.7126 148.998 52.534 149.071 52.3239L149.714 52.5049C149.613 52.8368 149.395 53.1203 149.1 53.3024C148.765 53.5114 148.375 53.6152 147.98 53.6009ZM146.634 50.9882H149.096C149.109 50.6513 148.993 50.3222 148.772 50.0684C148.663 49.9503 148.53 49.8572 148.382 49.7956C148.234 49.7339 148.075 49.7052 147.914 49.7113C147.738 49.7096 147.563 49.7446 147.401 49.814C147.251 49.8801 147.116 49.9757 147.004 50.0953C146.896 50.2162 146.809 50.3543 146.746 50.5039C146.679 50.6574 146.639 50.8212 146.626 50.9882H146.634Z" fill="#1770A8"/>
<path id="Vector_40" d="M154.311 49.1805V49.7456H153.337V53.5104H152.673V49.7334H151.976V49.1805H152.673V48.5689C152.669 48.3999 152.705 48.2324 152.777 48.0797C152.838 47.9416 152.932 47.8207 153.05 47.7274C153.166 47.6363 153.297 47.566 153.437 47.5195C153.583 47.471 153.736 47.447 153.89 47.4485C154.106 47.4417 154.321 47.48 154.521 47.5611L154.328 48.1384C154.209 48.0949 154.083 48.0717 153.956 48.0699C153.87 48.0619 153.784 48.0725 153.703 48.1007C153.622 48.129 153.548 48.1744 153.486 48.2338C153.377 48.3725 153.324 48.547 153.337 48.723V49.1805H154.311Z" fill="#1770A8"/>
<path id="Vector_41" d="M157.913 52.9869C157.731 53.1816 157.511 53.3368 157.267 53.4429C157.022 53.549 156.759 53.6038 156.493 53.6038C156.227 53.6038 155.964 53.549 155.72 53.4429C155.476 53.3368 155.256 53.1816 155.074 52.9869C154.698 52.5323 154.505 51.9528 154.533 51.3625C154.524 50.9545 154.608 50.5498 154.776 50.1785C154.925 49.8539 155.165 49.5794 155.466 49.3884C155.777 49.2057 156.13 49.1094 156.491 49.1094C156.851 49.1094 157.205 49.2057 157.516 49.3884C157.817 49.5794 158.056 49.8539 158.205 50.1785C158.374 50.5498 158.457 50.9545 158.449 51.3625C158.478 51.9522 158.287 52.5316 157.913 52.9869ZM155.919 52.8694C156.098 52.9563 156.294 53.0015 156.493 53.0015C156.692 53.0015 156.889 52.9563 157.068 52.8694C157.232 52.7849 157.371 52.6604 157.475 52.5074C157.586 52.3496 157.668 52.1731 157.718 51.9863C157.825 51.5766 157.825 51.146 157.718 50.7363C157.668 50.5482 157.585 50.3702 157.475 50.2103C157.372 50.0559 157.232 49.9298 157.068 49.8434C156.889 49.7565 156.692 49.7114 156.493 49.7114C156.294 49.7114 156.098 49.7565 155.919 49.8434C155.754 49.9304 155.614 50.0563 155.509 50.2103C155.401 50.3713 155.318 50.5489 155.266 50.7363C155.162 51.1464 155.162 51.5762 155.266 51.9863C155.318 52.1724 155.4 52.3484 155.509 52.5074C155.614 52.66 155.755 52.7843 155.919 52.8694Z" fill="#1770A8"/>
<path id="Vector_42" d="M159.15 53.5104V49.1804H159.791V49.836H159.837C159.917 49.619 160.067 49.4349 160.263 49.3125C160.471 49.1781 160.714 49.1083 160.962 49.112C161.093 49.112 161.205 49.112 161.31 49.112V49.792C161.178 49.7604 161.042 49.7448 160.906 49.7455C160.618 49.7362 160.338 49.8397 160.124 50.0342C160.023 50.1267 159.942 50.2401 159.888 50.3668C159.835 50.4935 159.809 50.6304 159.812 50.7681V53.5104H159.15Z" fill="#1770A8"/>
<path id="Vector_43" d="M166.938 49.1804C166.924 49.0459 166.88 48.9162 166.81 48.801C166.74 48.6857 166.644 48.588 166.531 48.515C166.266 48.3457 165.956 48.2605 165.642 48.2704C165.314 48.2547 164.99 48.3494 164.722 48.5395C164.612 48.6178 164.523 48.7217 164.461 48.8422C164.4 48.9628 164.369 49.0965 164.371 49.2318C164.37 49.3271 164.388 49.4218 164.422 49.5106C164.454 49.594 164.503 49.6698 164.566 49.7333C164.627 49.7955 164.694 49.852 164.765 49.902C164.841 49.9554 164.923 49.9997 165.009 50.0341C165.102 50.0708 165.182 50.1026 165.252 50.1246C165.323 50.1467 165.399 50.1711 165.496 50.1932L166.08 50.3522C166.183 50.3766 166.275 50.4035 166.36 50.4304C166.446 50.4573 166.543 50.4965 166.66 50.5454C166.767 50.5902 166.872 50.6425 166.972 50.702C167.07 50.764 167.163 50.8344 167.249 50.9124C167.342 50.9907 167.424 51.0812 167.493 51.1814C167.559 51.2881 167.611 51.4033 167.646 51.5239C167.688 51.661 167.708 51.8038 167.707 51.9471C167.709 52.1735 167.661 52.3976 167.566 52.6027C167.472 52.8077 167.335 52.9897 167.164 53.136C166.972 53.2977 166.749 53.4183 166.509 53.4907C166.223 53.5811 165.925 53.6248 165.625 53.6204C165.103 53.6458 164.588 53.4922 164.164 53.1849C163.985 53.0481 163.838 52.8733 163.733 52.6729C163.629 52.4725 163.57 52.2514 163.56 52.0254H164.291C164.303 52.2244 164.381 52.4136 164.512 52.5636C164.643 52.7126 164.811 52.8241 164.999 52.8865C165.207 52.9555 165.425 52.9894 165.645 52.9868C166.002 53.0003 166.355 52.8983 166.65 52.6957C166.775 52.613 166.878 52.5 166.948 52.367C167.018 52.234 167.054 52.0854 167.052 51.9349C167.053 51.8296 167.031 51.7253 166.989 51.6291C166.95 51.5379 166.895 51.4549 166.826 51.3845C166.748 51.313 166.661 51.2529 166.567 51.2059C166.467 51.1534 166.364 51.1077 166.258 51.0689C166.161 51.0347 166.041 50.998 165.903 50.9613L165.192 50.7582C164.218 50.4745 163.731 49.973 163.731 49.2538C163.726 48.95 163.819 48.6527 163.994 48.4049C164.174 48.1536 164.419 47.9565 164.702 47.8349C165.018 47.6978 165.359 47.6294 165.703 47.6343C166.043 47.6288 166.38 47.6973 166.692 47.8349C166.966 47.9529 167.204 48.141 167.383 48.3805C167.55 48.6079 167.643 48.881 167.651 49.1633L166.938 49.1804Z" fill="#1770A8"/>
<path id="Vector_44" d="M171.601 52.9869C171.419 53.1816 171.199 53.3368 170.955 53.4429C170.71 53.549 170.447 53.6038 170.181 53.6038C169.915 53.6038 169.652 53.549 169.408 53.4429C169.164 53.3368 168.944 53.1816 168.762 52.9869C168.386 52.5323 168.193 51.9528 168.221 51.3625C168.212 50.9545 168.296 50.5498 168.464 50.1785C168.613 49.8539 168.853 49.5794 169.154 49.3884C169.465 49.2057 169.818 49.1094 170.179 49.1094C170.539 49.1094 170.893 49.2057 171.204 49.3884C171.505 49.5794 171.744 49.8539 171.893 50.1785C172.062 50.5498 172.145 50.9545 172.137 51.3625C172.166 51.9522 171.975 52.5316 171.601 52.9869ZM169.607 52.8694C169.786 52.9563 169.982 53.0015 170.181 53.0015C170.38 53.0015 170.577 52.9563 170.756 52.8694C170.92 52.7849 171.059 52.6604 171.163 52.5074C171.274 52.3496 171.356 52.1731 171.406 51.9863C171.513 51.5766 171.513 51.146 171.406 50.7363C171.356 50.5482 171.273 50.3702 171.163 50.2103C171.06 50.0559 170.92 49.9298 170.756 49.8434C170.577 49.7565 170.38 49.7114 170.181 49.7114C169.982 49.7114 169.786 49.7565 169.607 49.8434C169.442 49.9304 169.302 50.0563 169.197 50.2103C169.089 50.3713 169.006 50.5489 168.954 50.7363C168.85 51.1464 168.85 51.5762 168.954 51.9863C169.006 52.1724 169.088 52.3484 169.197 52.5074C169.305 52.6612 169.449 52.7856 169.616 52.8694H169.607Z" fill="#1770A8"/>
<path id="Vector_45" d="M174.603 53.6007C174.235 53.609 173.871 53.5086 173.559 53.312C173.259 53.1207 173.022 52.845 172.877 52.5194C172.72 52.1518 172.639 51.7561 172.639 51.3562C172.639 50.9563 172.72 50.5606 172.877 50.193C173.025 49.8668 173.264 49.5901 173.564 49.3955C173.869 49.2019 174.223 49.1024 174.584 49.1093C175.001 49.096 175.41 49.2282 175.741 49.4836C175.893 49.6019 176.02 49.7493 176.115 49.9172C176.211 50.0851 176.272 50.2703 176.296 50.4621H175.631C175.578 50.2481 175.454 50.0585 175.28 49.9239C175.085 49.773 174.843 49.696 174.596 49.7062C174.416 49.7005 174.236 49.7378 174.073 49.8152C173.909 49.8926 173.767 50.0078 173.656 50.1514C173.405 50.493 173.279 50.9114 173.301 51.3354C173.279 51.7668 173.403 52.1928 173.654 52.5439C173.763 52.6896 173.906 52.8068 174.07 52.8856C174.234 52.9643 174.414 53.0024 174.596 52.9965C174.833 53.0032 175.067 52.9328 175.261 52.7959C175.447 52.661 175.579 52.4629 175.631 52.2381H176.296C176.246 52.6219 176.051 52.972 175.753 53.2166C175.427 53.4776 175.02 53.6137 174.603 53.6007Z" fill="#1770A8"/>
<path id="Vector_46" d="M178.227 53.613C177.97 53.6168 177.716 53.5642 177.482 53.4588C177.264 53.3598 177.08 53.2002 176.951 52.9989C176.816 52.7829 176.748 52.532 176.754 52.2773C176.752 52.1497 176.77 52.0226 176.807 51.9006C176.837 51.796 176.883 51.697 176.943 51.607C177.002 51.521 177.076 51.4471 177.163 51.3893C177.247 51.3295 177.337 51.2771 177.43 51.2327C177.534 51.188 177.64 51.152 177.749 51.1251C177.874 51.0933 177.993 51.0664 178.081 51.0517C178.168 51.037 178.295 51.0175 178.431 51.0003L178.675 50.971L178.892 50.9465L179.067 50.9245L179.22 50.8976L179.337 50.8682C179.371 50.8601 179.403 50.846 179.432 50.8267C179.455 50.8115 179.475 50.7934 179.493 50.7728C179.512 50.7519 179.526 50.7268 179.534 50.6994C179.538 50.6678 179.538 50.6357 179.534 50.604V50.582C179.542 50.4632 179.526 50.3441 179.487 50.2318C179.448 50.1195 179.386 50.0164 179.306 49.9289C179.213 49.847 179.105 49.7845 178.988 49.745C178.871 49.7055 178.747 49.6899 178.624 49.6989C178.481 49.6979 178.34 49.7169 178.202 49.7552C178.085 49.7866 177.973 49.8388 177.874 49.9093C177.79 49.969 177.714 50.0389 177.647 50.1172C177.587 50.1925 177.537 50.2746 177.496 50.3619L176.866 50.1368C176.942 49.9559 177.05 49.7902 177.185 49.6475C177.308 49.5145 177.456 49.4065 177.62 49.3295C177.776 49.2569 177.939 49.2035 178.107 49.1705C178.273 49.1358 178.442 49.1186 178.612 49.1192C178.699 49.119 178.787 49.1239 178.875 49.1338C178.973 49.1435 179.071 49.1606 179.167 49.1852C179.272 49.2095 179.375 49.2448 179.474 49.2904C179.574 49.3398 179.668 49.4015 179.754 49.4739C179.849 49.5527 179.931 49.6459 179.997 49.7503C180.068 49.8714 180.121 50.0025 180.153 50.1393C180.195 50.3088 180.216 50.4831 180.214 50.6579V53.52H179.549V52.9329H179.517C179.476 53.0155 179.423 53.092 179.362 53.1604C179.288 53.2423 179.207 53.3161 179.118 53.3806C179.002 53.4608 178.872 53.5203 178.736 53.5567C178.57 53.5999 178.398 53.6188 178.227 53.613ZM178.329 53.0136C178.507 53.0161 178.684 52.9854 178.85 52.9231C178.995 52.8707 179.126 52.7872 179.235 52.6785C179.333 52.581 179.411 52.4645 179.464 52.336C179.517 52.2107 179.544 52.0759 179.544 51.9397V51.3281C179.476 51.4113 179.116 51.492 178.468 51.5728H178.397C178.27 51.5866 178.145 51.6112 178.022 51.6462C177.916 51.6747 177.813 51.7175 177.718 51.7734C177.625 51.8233 177.548 51.8977 177.494 51.9886C177.44 52.0859 177.414 52.1956 177.416 52.3067C177.41 52.4066 177.43 52.5064 177.472 52.597C177.515 52.6875 177.579 52.766 177.659 52.8253C177.856 52.9591 178.091 53.0252 178.329 53.0136Z" fill="#1770A8"/>
<path id="Vector_47" d="M181.772 47.7126V53.5103H181.098V47.7126H181.772Z" fill="#1770A8"/>
<path id="Vector_48" d="M189.314 49.5302H188.618C188.548 49.1646 188.342 48.8394 188.043 48.6202C187.684 48.3623 187.243 48.2471 186.804 48.2968C186.366 48.3465 185.961 48.5576 185.669 48.8893C185.487 49.1041 185.351 49.3538 185.269 49.6232C185.078 50.2722 185.078 50.963 185.269 51.612C185.351 51.8816 185.487 52.1314 185.669 52.3459C185.832 52.5336 186.034 52.6838 186.26 52.7862C186.548 52.9117 186.862 52.9619 187.174 52.9319C187.486 52.902 187.785 52.7929 188.043 52.615C188.342 52.3958 188.548 52.0705 188.618 51.705H189.314C189.254 52.0741 189.104 52.4228 188.878 52.7202C188.663 53.0023 188.382 53.2267 188.06 53.3733C187.726 53.5243 187.362 53.6003 186.996 53.5959C186.645 53.5988 186.297 53.5271 185.976 53.3856C185.667 53.2499 185.391 53.0488 185.167 52.796C184.931 52.5209 184.751 52.2017 184.639 51.8566C184.385 51.0519 184.385 50.1882 184.639 49.3834C184.752 49.0386 184.932 48.7195 185.167 48.4441C185.391 48.1913 185.667 47.9901 185.976 47.8545C186.297 47.7129 186.645 47.6413 186.996 47.6441C187.362 47.641 187.725 47.7169 188.06 47.8667C188.382 48.0142 188.663 48.2385 188.878 48.5199C189.103 48.8159 189.253 49.1628 189.314 49.5302Z" fill="#1770A8"/>
<path id="Vector_49" d="M191.306 53.6129C191.049 53.6168 190.795 53.5642 190.561 53.4588C190.344 53.3598 190.159 53.2002 190.03 52.9989C189.893 52.7836 189.824 52.5324 189.83 52.2773C189.83 52.1497 189.848 52.0228 189.884 51.9005C189.915 51.7968 189.961 51.698 190.02 51.607C190.08 51.5221 190.154 51.4484 190.239 51.3893C190.325 51.33 190.416 51.2776 190.51 51.2327C190.616 51.1917 190.726 51.1598 190.838 51.1373C190.947 51.1073 191.058 51.0828 191.17 51.0639C191.267 51.0468 191.384 51.0297 191.518 51.0125L191.761 50.9832L191.976 50.9587L192.153 50.9367L192.307 50.9098L192.424 50.8805C192.457 50.8714 192.489 50.8573 192.519 50.8389C192.541 50.823 192.561 50.805 192.58 50.785C192.598 50.7635 192.612 50.7386 192.621 50.7117C192.625 50.68 192.625 50.6479 192.621 50.6163V50.5942C192.629 50.4753 192.612 50.356 192.572 50.2437C192.533 50.1314 192.47 50.0284 192.39 49.9411C192.297 49.8589 192.189 49.7961 192.072 49.7566C191.955 49.7171 191.831 49.7017 191.708 49.7111C191.566 49.7101 191.425 49.7291 191.289 49.7674C191.171 49.7988 191.06 49.851 190.96 49.9215C190.876 49.9812 190.8 50.0511 190.734 50.1294C190.673 50.2041 190.622 50.2863 190.583 50.3741L189.952 50.149C190.027 49.9676 190.136 49.8017 190.271 49.6598C190.394 49.5268 190.541 49.4188 190.704 49.3417C190.86 49.2693 191.023 49.2159 191.191 49.1827C191.356 49.1481 191.525 49.1309 191.693 49.1314C191.781 49.1312 191.869 49.1361 191.956 49.146C192.055 49.1557 192.154 49.1728 192.251 49.1974C192.356 49.2221 192.459 49.2573 192.558 49.3026C192.658 49.3521 192.752 49.4137 192.838 49.4861C192.933 49.564 193.016 49.6574 193.081 49.7625C193.153 49.8834 193.206 50.0145 193.239 50.1515C193.282 50.321 193.302 50.4953 193.3 50.6701V53.5322H192.636V52.9451H192.601C192.562 53.0281 192.51 53.1048 192.448 53.1726C192.374 53.254 192.293 53.3277 192.204 53.3928C192.088 53.473 191.959 53.5326 191.822 53.5689C191.653 53.6085 191.479 53.6233 191.306 53.6129ZM191.408 53.0136C191.586 53.0161 191.763 52.9854 191.929 52.9231C192.073 52.8701 192.205 52.7867 192.314 52.6785C192.412 52.5803 192.49 52.464 192.543 52.336C192.596 52.2107 192.623 52.0759 192.623 51.9397V51.3281C192.555 51.4113 192.195 51.492 191.545 51.5727H191.474C191.348 51.5868 191.223 51.6114 191.101 51.6461C190.994 51.6751 190.891 51.7179 190.795 51.7733C190.702 51.8233 190.626 51.8978 190.573 51.9886C190.52 52.0859 190.493 52.1956 190.495 52.3066C190.489 52.4067 190.508 52.5066 190.551 52.5972C190.593 52.6879 190.658 52.7663 190.739 52.8252C190.936 52.9591 191.171 53.0252 191.408 53.0136Z" fill="#1770A8"/>
<path id="Vector_50" d="M194.187 53.5104V49.1805H194.83V49.8361H194.873C194.955 49.6188 195.106 49.4348 195.302 49.3126C195.51 49.1779 195.753 49.1081 196.001 49.112C196.132 49.112 196.244 49.112 196.349 49.112V49.792C196.217 49.7604 196.081 49.7448 195.945 49.7456C195.656 49.7361 195.375 49.8396 195.161 50.0342C195.06 50.1268 194.979 50.2404 194.926 50.3671C194.873 50.4938 194.847 50.6306 194.852 50.7681V53.5104H194.187Z" fill="#1770A8"/>
<path id="Vector_51" d="M198.499 53.6009C198.226 53.6122 197.954 53.5636 197.702 53.4584C197.449 53.3532 197.223 53.1939 197.038 52.9917C196.659 52.5405 196.465 51.9617 196.495 51.3723C196.492 51.0616 196.54 50.7525 196.636 50.4574C196.72 50.1953 196.853 49.9519 197.028 49.7406C197.197 49.542 197.407 49.384 197.645 49.2783C197.895 49.1641 198.168 49.1065 198.443 49.1095C198.626 49.1092 198.808 49.1331 198.984 49.1804C199.163 49.2293 199.332 49.3078 199.486 49.4128C199.65 49.5214 199.794 49.6589 199.909 49.8189C200.04 50.0067 200.136 50.2162 200.194 50.4378C200.269 50.7128 200.305 50.9968 200.301 51.2818V51.5656H197.162C197.152 51.9554 197.29 52.3346 197.55 52.6248C197.768 52.8258 198.043 52.9536 198.336 52.9905C198.63 53.0273 198.928 52.9713 199.188 52.8303C199.377 52.7131 199.518 52.5342 199.59 52.3239L200.233 52.5049C200.132 52.8368 199.914 53.1203 199.619 53.3024C199.284 53.5118 198.894 53.6157 198.499 53.6009ZM197.15 50.9882H199.605C199.618 50.6513 199.502 50.3222 199.281 50.0684C199.172 49.9503 199.039 49.8572 198.891 49.7956C198.743 49.7339 198.584 49.7052 198.424 49.7113C198.247 49.7096 198.072 49.7446 197.91 49.814C197.76 49.8801 197.625 49.9757 197.513 50.0953C197.409 50.2166 197.327 50.3548 197.27 50.5039C197.202 50.6571 197.161 50.821 197.15 50.9882Z" fill="#1770A8"/>
</g>
<defs>
<clipPath id="clip0_1130_637">
<rect width="208.182" height="64.1708" fill="white" transform="translate(0.759277 0.293945)"/>
</clipPath>
</defs>
</svg>
