<svg width="256" height="101" viewBox="0 0 256 101" fill="none" xmlns="http://www.w3.org/2000/svg">
<g id="Group 1000004297">
<path id="Vector" d="M143.754 20.2664V45.8113H141.211V24.1163L132.277 39.08H131.913L122.979 24.1163V45.7871H120.436V20.2422H123.584L132.131 34.5522L140.679 20.2422L143.754 20.2664Z" fill="#58595B"/>
<path id="Vector_2" d="M162.373 27.5547H164.916L157.095 47.4821C156.393 49.2739 155.376 50.7025 154.093 51.7437C152.809 52.7848 151.332 53.2207 149.734 53.0996V50.8478C151.913 51.0899 153.584 49.8308 154.722 47.0463L155.182 45.8598L147.022 27.5547H149.565L156.393 42.7121L162.373 27.5547Z" fill="#58595B"/>
<path id="Vector_3" d="M189.275 46.2471C185.4 46.2471 182.204 44.9638 179.686 42.4214C177.168 39.879 175.885 36.7313 175.885 33.0509C175.885 29.3705 177.144 26.2228 179.686 23.6804C182.228 21.1138 185.425 19.8547 189.275 19.8547C191.647 19.8547 193.802 20.4116 195.764 21.5497C197.725 22.6877 199.25 24.2131 200.316 26.1259L198.064 27.4335C197.265 25.8838 196.078 24.6247 194.48 23.7046C192.882 22.7845 191.163 22.3245 189.25 22.3245C186.054 22.3245 183.463 23.3656 181.429 25.4238C179.396 27.4819 178.403 30.0485 178.403 33.0509C178.403 36.0534 179.42 38.6199 181.429 40.6781C183.439 42.7362 186.054 43.7774 189.25 43.7774C191.139 43.7774 192.882 43.3173 194.48 42.3972C196.054 41.4771 197.265 40.2422 198.064 38.6684L200.316 39.9517C199.275 41.8645 197.749 43.4142 195.764 44.5522C193.778 45.6902 191.623 46.2471 189.275 46.2471Z" fill="#58595B"/>
<path id="Vector_4" d="M219.662 27.5545H222.083V45.8112H219.662V42.2277C217.991 44.9153 215.522 46.2471 212.277 46.2471C209.662 46.2471 207.459 45.327 205.618 43.4625C203.778 41.5981 202.858 39.3463 202.858 36.6829C202.858 34.0194 203.778 31.7434 205.618 29.9032C207.459 28.063 209.686 27.1187 212.277 27.1187C215.522 27.1187 217.967 28.4504 219.662 31.138V27.5545ZM207.362 41.816C208.742 43.2204 210.461 43.9226 212.471 43.9226C214.48 43.9226 216.199 43.2204 217.58 41.816C218.96 40.4117 219.662 38.7168 219.662 36.6829C219.662 34.649 218.96 32.954 217.58 31.5497C216.199 30.1453 214.48 29.4431 212.471 29.4431C210.461 29.4431 208.742 30.1453 207.362 31.5497C205.982 32.954 205.279 34.649 205.279 36.6829C205.279 38.7168 205.982 40.4117 207.362 41.816Z" fill="#58595B"/>
<path id="Vector_5" d="M229.589 30.5811C230.703 28.3777 232.64 27.2639 235.352 27.2639V29.5884C233.706 29.5884 232.325 30.0726 231.236 31.0412C230.146 32.0097 229.589 33.5593 229.589 35.6417V45.787H227.168V27.5303H229.589V30.5811Z" fill="#58595B"/>
<path id="Vector_6" d="M245.982 27.1187C248.694 27.1187 250.873 28.063 252.544 29.9758C254.214 31.8886 255.038 34.1405 255.038 36.7555C255.038 37.0218 255.013 37.4093 254.965 37.8935H238.936C239.178 39.7337 239.953 41.2107 241.284 42.3003C242.616 43.3899 244.238 43.9226 246.2 43.9226C247.58 43.9226 248.79 43.632 249.807 43.0751C250.824 42.494 251.575 41.7676 252.083 40.8233L254.19 42.0582C253.391 43.3415 252.301 44.3826 250.897 45.1333C249.493 45.8839 247.919 46.2713 246.151 46.2713C243.27 46.2713 240.945 45.3754 239.154 43.5594C237.362 41.7676 236.442 39.4674 236.442 36.7071C236.442 33.9468 237.338 31.7192 239.105 29.879C240.897 28.0145 243.173 27.1187 245.982 27.1187ZM245.982 29.4431C244.093 29.4431 242.495 30 241.212 31.138C239.928 32.2761 239.178 33.7289 238.936 35.5448H252.544C252.301 33.632 251.551 32.1308 250.316 31.0654C249.081 29.9758 247.652 29.4431 245.982 29.4431Z" fill="#58595B"/>
<path id="Vector_7" d="M135.061 66.2957C136.175 66.8768 137.047 67.6758 137.676 68.717C138.306 69.7581 138.62 70.9204 138.62 72.2521C138.62 74.3344 137.87 76.0778 136.393 77.4821C134.916 78.8865 133.1 79.5645 130.945 79.5645H120V53.9954H130.146C132.228 53.9954 134.02 54.6733 135.448 56.0293C136.877 57.3852 137.628 59.0559 137.628 61.0898C137.652 63.2932 136.78 65.0366 135.061 66.2957ZM130.17 57.9421H124.214V64.6492H130.17C131.09 64.6492 131.865 64.3344 132.519 63.6806C133.148 63.0269 133.463 62.2278 133.463 61.2835C133.463 60.3392 133.148 59.5402 132.519 58.8864C131.889 58.2327 131.09 57.9421 130.17 57.9421ZM130.969 75.5935C131.938 75.5935 132.761 75.2545 133.439 74.5523C134.117 73.8502 134.456 73.0027 134.456 72.01C134.456 71.0172 134.117 70.1698 133.439 69.4676C132.761 68.7654 131.938 68.4264 130.969 68.4264H124.214V75.5693L130.969 75.5935Z" fill="#00A3AD"/>
<path id="Vector_8" d="M154.698 61.2834H158.645V79.5402H154.698V77.2157C153.512 79.0801 151.623 80.0244 149.032 80.0244C146.95 80.0244 145.255 79.3465 143.947 78.0148C142.664 76.683 142.01 74.8428 142.01 72.4941V61.2834H145.957V72.0825C145.957 73.4385 146.32 74.5038 147.047 75.2302C147.773 75.9566 148.766 76.3198 150.049 76.3198C151.429 76.3198 152.543 75.884 153.415 75.0123C154.286 74.1406 154.698 72.8331 154.698 71.0414V61.2834Z" fill="#00A3AD"/>
<path id="Vector_9" d="M173.56 60.8235C176.054 60.8235 178.209 61.7436 179.976 63.608C181.744 65.4482 182.64 67.7242 182.64 70.4361C182.64 73.148 181.744 75.3756 179.976 77.24C178.209 79.1044 176.054 80.0245 173.56 80.0245C170.775 80.0245 168.669 78.9834 167.168 76.9252V79.5645H163.221V53.9954H167.168V63.8986C168.669 61.8404 170.8 60.8235 173.56 60.8235ZM168.814 74.6008C169.904 75.7146 171.284 76.2715 172.93 76.2715C174.577 76.2715 175.957 75.7146 177.047 74.6008C178.136 73.487 178.693 72.1068 178.693 70.4119C178.693 68.717 178.136 67.3368 177.047 66.223C175.957 65.1092 174.577 64.5523 172.93 64.5523C171.284 64.5523 169.904 65.1092 168.814 66.223C167.725 67.3368 167.168 68.717 167.168 70.4119C167.168 72.1068 167.725 73.487 168.814 74.6008Z" fill="#00A3AD"/>
<path id="Vector_10" d="M196.563 60.8235C199.056 60.8235 201.211 61.7436 202.979 63.608C204.747 65.4482 205.642 67.7242 205.642 70.4361C205.642 73.148 204.747 75.3756 202.979 77.24C201.211 79.1044 199.056 80.0245 196.563 80.0245C193.778 80.0245 191.671 78.9834 190.17 76.9252V79.5645H186.224V53.9954H190.17V63.8986C191.671 61.8404 193.778 60.8235 196.563 60.8235ZM191.817 74.6008C192.906 75.7146 194.287 76.2715 195.933 76.2715C197.58 76.2715 198.96 75.7146 200.049 74.6008C201.139 73.487 201.696 72.1068 201.696 70.4119C201.696 68.717 201.139 67.3368 200.049 66.223C198.96 65.1092 197.58 64.5523 195.933 64.5523C194.287 64.5523 192.906 65.1092 191.817 66.223C190.727 67.3368 190.17 68.717 190.17 70.4119C190.17 72.1068 190.727 73.487 191.817 74.6008Z" fill="#00A3AD"/>
<path id="Vector_11" d="M209.226 79.5405V52.906H213.173V79.5405H209.226Z" fill="#00A3AD"/>
<path id="Vector_12" d="M220.824 72.1069C221.115 73.487 221.793 74.5524 222.834 75.303C223.875 76.0536 225.158 76.4168 226.66 76.4168C228.742 76.4168 230.316 75.6662 231.381 74.1408L234.626 76.0294C232.834 78.6929 230.171 80.0004 226.635 80.0004C223.657 80.0004 221.26 79.1045 219.444 77.2885C217.628 75.4725 216.708 73.1722 216.708 70.4119C216.708 67.6516 217.604 65.3998 219.42 63.5596C221.212 61.7194 223.536 60.7993 226.345 60.7993C229.008 60.7993 231.212 61.7436 232.931 63.608C234.65 65.4725 235.497 67.7485 235.497 70.4362C235.497 70.8478 235.449 71.4047 235.352 72.0827L220.824 72.1069ZM220.8 68.8865H231.526C231.26 67.4095 230.655 66.2715 229.686 65.5209C228.718 64.7703 227.604 64.3829 226.321 64.3829C224.868 64.3829 223.633 64.7945 222.664 65.5935C221.696 66.3926 221.066 67.5064 220.8 68.8865Z" fill="#00A3AD"/>
<path id="Vector_13" d="M50.3634 13.511C54.0943 13.511 57.1189 10.4864 57.1189 6.75548C57.1189 3.02453 54.0943 0 50.3634 0C46.6324 0 43.6079 3.02453 43.6079 6.75548C43.6079 10.4864 46.6324 13.511 50.3634 13.511Z" fill="#00A3AD"/>
<path id="Vector_14" d="M19.5401 26.2956C23.2711 26.2956 26.2956 23.2711 26.2956 19.5401C26.2956 15.8092 23.2711 12.7847 19.5401 12.7847C15.8092 12.7847 12.7847 15.8092 12.7847 19.5401C12.7847 23.2711 15.8092 26.2956 19.5401 26.2956Z" fill="#F4004D"/>
<path id="Vector_15" d="M6.75548 57.1189C10.4864 57.1189 13.511 54.0943 13.511 50.3634C13.511 46.6324 10.4864 43.6079 6.75548 43.6079C3.02453 43.6079 0 46.6324 0 50.3634C0 54.0943 3.02453 57.1189 6.75548 57.1189Z" fill="#DD9CDF"/>
<path id="Vector_16" d="M19.5401 87.9424C23.2711 87.9424 26.2956 84.9178 26.2956 81.1869C26.2956 77.4559 23.2711 74.4314 19.5401 74.4314C15.8092 74.4314 12.7847 77.4559 12.7847 81.1869C12.7847 84.9178 15.8092 87.9424 19.5401 87.9424Z" fill="#FF8200"/>
<path id="Vector_17" d="M50.3634 100.727C54.0943 100.727 57.1189 97.7022 57.1189 93.9713C57.1189 90.2403 54.0943 87.2158 50.3634 87.2158C46.6324 87.2158 43.6079 90.2403 43.6079 93.9713C43.6079 97.7022 46.6324 100.727 50.3634 100.727Z" fill="#00A3AD"/>
<path id="Vector_18" d="M81.1869 87.9424C84.9178 87.9424 87.9424 84.9178 87.9424 81.1869C87.9424 77.4559 84.9178 74.4314 81.1869 74.4314C77.4559 74.4314 74.4314 77.4559 74.4314 81.1869C74.4314 84.9178 77.4559 87.9424 81.1869 87.9424Z" fill="#F4004D"/>
<path id="Vector_19" d="M93.9715 57.1189C97.7025 57.1189 100.727 54.0943 100.727 50.3634C100.727 46.6324 97.7025 43.6079 93.9715 43.6079C90.2406 43.6079 87.2161 46.6324 87.2161 50.3634C87.2161 54.0943 90.2406 57.1189 93.9715 57.1189Z" fill="#DD9CDF"/>
<path id="Vector_20" d="M81.1869 26.2956C84.9178 26.2956 87.9424 23.2711 87.9424 19.5401C87.9424 15.8092 84.9178 12.7847 81.1869 12.7847C77.4559 12.7847 74.4314 15.8092 74.4314 19.5401C74.4314 23.2711 77.4559 26.2956 81.1869 26.2956Z" fill="#FF8200"/>
<path id="Vector_21" d="M62.2278 26.5133C64.889 26.5133 67.0463 24.356 67.0463 21.6949C67.0463 19.0337 64.889 16.8765 62.2278 16.8765C59.5667 16.8765 57.4094 19.0337 57.4094 21.6949C57.4094 24.356 59.5667 26.5133 62.2278 26.5133Z" fill="#FF8200"/>
<path id="Vector_22" d="M38.4988 26.5133C41.16 26.5133 43.3173 24.356 43.3173 21.6949C43.3173 19.0337 41.16 16.8765 38.4988 16.8765C35.8377 16.8765 33.6804 19.0337 33.6804 21.6949C33.6804 24.356 35.8377 26.5133 38.4988 26.5133Z" fill="#00A3AD"/>
<path id="Vector_23" d="M21.6949 43.3173C24.356 43.3173 26.5133 41.16 26.5133 38.4988C26.5133 35.8377 24.356 33.6804 21.6949 33.6804C19.0337 33.6804 16.8765 35.8377 16.8765 38.4988C16.8765 41.16 19.0337 43.3173 21.6949 43.3173Z" fill="#F4004D"/>
<path id="Vector_24" d="M21.6949 67.0463C24.356 67.0463 26.5133 64.889 26.5133 62.2278C26.5133 59.5667 24.356 57.4094 21.6949 57.4094C19.0337 57.4094 16.8765 59.5667 16.8765 62.2278C16.8765 64.889 19.0337 67.0463 21.6949 67.0463Z" fill="#DD9CDF"/>
<path id="Vector_25" d="M38.4988 83.8502C41.16 83.8502 43.3173 81.6929 43.3173 79.0318C43.3173 76.3707 41.16 74.2134 38.4988 74.2134C35.8377 74.2134 33.6804 76.3707 33.6804 79.0318C33.6804 81.6929 35.8377 83.8502 38.4988 83.8502Z" fill="#FF8200"/>
<path id="Vector_26" d="M62.2278 83.8502C64.889 83.8502 67.0463 81.6929 67.0463 79.0318C67.0463 76.3707 64.889 74.2134 62.2278 74.2134C59.5667 74.2134 57.4094 76.3707 57.4094 79.0318C57.4094 81.6929 59.5667 83.8502 62.2278 83.8502Z" fill="#00A3AD"/>
<path id="Vector_27" d="M79.0318 67.0463C81.6929 67.0463 83.8502 64.889 83.8502 62.2278C83.8502 59.5667 81.6929 57.4094 79.0318 57.4094C76.3707 57.4094 74.2134 59.5667 74.2134 62.2278C74.2134 64.889 76.3707 67.0463 79.0318 67.0463Z" fill="#F4004D"/>
<path id="Vector_28" d="M79.0318 43.3173C81.6929 43.3173 83.8502 41.16 83.8502 38.4988C83.8502 35.8377 81.6929 33.6804 79.0318 33.6804C76.3707 33.6804 74.2134 35.8377 74.2134 38.4988C74.2134 41.16 76.3707 43.3173 79.0318 43.3173Z" fill="#DD9CDF"/>
<path id="Vector_29" d="M50.3633 66.4895C58.6008 66.4895 65.2786 62.9121 65.2786 58.4991C65.2786 54.0862 58.6008 50.5088 50.3633 50.5088C42.1258 50.5088 35.448 54.0862 35.448 58.4991C35.448 62.9121 42.1258 66.4895 50.3633 66.4895Z" fill="#0077C8"/>
<path id="Vector_30" d="M50.3633 48.7894C54.3751 48.7894 57.6273 45.5372 57.6273 41.5254C57.6273 37.5137 54.3751 34.2615 50.3633 34.2615C46.3515 34.2615 43.0994 37.5137 43.0994 41.5254C43.0994 45.5372 46.3515 48.7894 50.3633 48.7894Z" fill="#0077C8"/>
</g>
</svg>
