<svg width="159" height="39" viewBox="0 0 159 39" fill="none" xmlns="http://www.w3.org/2000/svg">
<g id="Group 1000004127">
<g id="Group 1000004125">
<path id="Vector" d="M66.0182 12.8037C66.0182 19.3239 62.0195 22.664 56.4778 22.664C51.1901 22.664 46.6833 19.4556 46.6833 12.8037V0.177246H50.8044V12.8037C50.8044 16.7741 53.0718 18.8817 56.506 18.8817C59.9402 18.8817 61.8972 16.586 61.8972 12.8037V0.177246H66.0182V12.8037Z" fill="#3BBFAD"/>
<path id="Vector_2" d="M80.7428 14.0642C80.7428 11.7027 79.4538 9.90562 76.9793 9.90562C76.4297 9.91967 75.8886 10.0445 75.3885 10.2727C74.8883 10.501 74.4394 10.8279 74.0687 11.2338C73.6979 11.6397 73.4129 12.1163 73.2308 12.635C73.0487 13.1537 72.9732 13.7038 73.0088 14.2524V22.1934H69.2454V6.63142H72.6795L72.9242 8.74837C73.5692 8.02866 74.3559 7.4499 75.2351 7.04839C76.1142 6.64688 77.0667 6.43128 78.0331 6.41504C81.6836 6.41504 84.6192 9.15294 84.6192 14.036V22.1934H80.7804L80.7428 14.0642Z" fill="#3BBFAD"/>
<path id="Vector_3" d="M92.0145 2.33168C92.0145 2.93305 91.7756 3.50977 91.3504 3.93501C90.9251 4.36025 90.3484 4.59914 89.747 4.59914C89.1456 4.59914 88.5689 4.36025 88.1436 3.93501C87.7184 3.50977 87.4795 2.93305 87.4795 2.33168C87.4795 1.7303 87.7184 1.15358 88.1436 0.728341C88.5689 0.303104 89.1456 0.064209 89.747 0.064209C90.3484 0.064209 90.9251 0.303104 91.3504 0.728341C91.7756 1.15358 92.0145 1.7303 92.0145 2.33168ZM87.8276 22.2404H91.6664V6.6032H87.8276V22.2404Z" fill="#3BBFAD"/>
<path id="Vector_4" d="M102.533 22.6638C98.0264 22.6638 94.2817 19.9541 94.2817 14.4407C94.2817 8.92717 98.0452 6.2269 102.533 6.2269C103.583 6.18651 104.63 6.37033 105.603 6.76619C106.577 7.16205 107.455 7.76085 108.178 8.52262L105.751 11.0723C104.898 10.2968 103.79 9.86152 102.637 9.84922C102.034 9.83282 101.435 9.94127 100.877 10.1677C100.319 10.3941 99.8133 10.7337 99.3927 11.165C98.972 11.5962 98.6451 12.1099 98.4327 12.6737C98.2202 13.2374 98.1267 13.839 98.1581 14.4407C98.1135 15.0372 98.196 15.6364 98.4003 16.1986C98.6046 16.7608 98.926 17.2732 99.3431 17.7019C99.7603 18.1307 100.264 18.4659 100.82 18.6855C101.377 18.9051 101.973 19.004 102.571 18.9757C103.195 19.0004 103.817 18.899 104.4 18.6775C104.984 18.456 105.517 18.119 105.967 17.6867L108.555 20.2082C107.778 21.0155 106.841 21.6511 105.804 22.0741C104.767 22.497 103.653 22.6979 102.533 22.6638Z" fill="#3BBFAD"/>
<path id="Vector_5" d="M126.234 6.6691V22.1934H122.611L122.423 19.926C121.539 21.7512 119.111 22.6356 117.38 22.6639C112.789 22.6639 109.383 19.8413 109.383 14.4125C109.383 8.98367 112.939 6.25514 117.474 6.28337C118.446 6.2478 119.41 6.46071 120.276 6.90196C121.142 7.34321 121.881 7.99819 122.423 8.80489L122.546 6.6691H126.234ZM113.222 14.4125C113.186 15.0308 113.28 15.6498 113.497 16.2298C113.714 16.8098 114.05 17.3381 114.483 17.7809C114.916 18.2237 115.437 18.5713 116.012 18.8013C116.587 19.0313 117.203 19.1388 117.822 19.1168C123.872 19.1168 123.872 9.70814 117.822 9.70814C117.201 9.67902 116.58 9.78144 116.001 10.0087C115.421 10.236 114.896 10.583 114.46 11.027C114.024 11.471 113.687 12.0021 113.47 12.5855C113.253 13.1689 113.162 13.7915 113.203 14.4125H113.222Z" fill="#3BBFAD"/>
<path id="Vector_6" d="M133.3 8.45693C133.745 7.71286 134.393 7.11077 135.167 6.72094C135.942 6.33112 136.812 6.16961 137.675 6.25527C139.145 6.23113 140.572 6.75806 141.673 7.73244L139.942 11.0725C139.189 10.3845 138.195 10.0225 137.176 10.0658C136.65 10.02 136.12 10.0911 135.624 10.2739C135.128 10.4568 134.679 10.747 134.309 11.1237C133.939 11.5004 133.656 11.9543 133.482 12.4529C133.307 12.9516 133.245 13.4826 133.3 14.008V22.1936H129.451V6.66926H133.017L133.3 8.45693Z" fill="#3BBFAD"/>
<path id="Vector_7" d="M151.026 19.1074C152.539 19.1301 154.012 18.6168 155.184 17.6584L157.64 20.0858C155.824 21.7528 153.434 22.6529 150.969 22.5979C145.606 22.5979 142.426 19.2955 142.426 14.3183C142.426 9.61398 145.644 6.18921 150.677 6.18921C155.88 6.18921 159.145 9.407 158.524 15.7955H146.396C146.651 17.7243 148.316 19.1074 151.026 19.1074ZM150.809 9.59515C149.847 9.51913 148.889 9.77845 148.096 10.329C147.304 10.8795 146.727 11.6874 146.462 12.6154H154.836C154.582 10.6019 153.011 9.59515 150.809 9.59515Z" fill="#3BBFAD"/>
<path id="Vector_8" d="M118.81 33.738C118.855 34.3316 118.773 34.9281 118.569 35.4874C118.365 36.0467 118.044 36.5559 117.627 36.9809C117.21 37.4059 116.707 37.7368 116.151 37.9516C115.596 38.1663 115.001 38.2598 114.407 38.2259H110.945V29.41H114.407C114.988 29.3753 115.57 29.4628 116.115 29.6669C116.659 29.8711 117.155 30.1874 117.571 30.5953C117.986 31.0033 118.31 31.4938 118.524 32.0351C118.737 32.5765 118.835 33.1566 118.81 33.738ZM114.407 36.6265C114.787 36.6477 115.167 36.5861 115.52 36.4459C115.874 36.3058 116.193 36.0904 116.455 35.8148C116.717 35.5392 116.917 35.2098 117.039 34.8496C117.161 34.4894 117.204 34.1069 117.164 33.7286C117.181 33.3623 117.122 32.9965 116.989 32.6546C116.857 32.3127 116.654 32.0023 116.395 31.7435C116.135 31.4846 115.824 31.2831 115.482 31.1518C115.139 31.0205 114.773 30.9624 114.407 30.9812H112.591V36.6265H114.407Z" fill="#545252"/>
<path id="Vector_9" d="M120.89 38.2258V29.4099H127.476V31.0188H122.517V33.0416H127.297V34.594H122.517V36.5887H127.476V38.2258H120.89Z" fill="#545252"/>
<path id="Vector_10" d="M132.98 38.2258L129.32 29.4099H131.202L133.855 36.0901L136.527 29.4099H138.409L134.702 38.2258H132.98Z" fill="#545252"/>
<path id="Vector_11" d="M148.325 33.8602C148.359 34.465 148.265 35.0702 148.05 35.6365C147.835 36.2029 147.503 36.7178 147.077 37.1479C146.65 37.578 146.138 37.9138 145.574 38.1335C145.009 38.3532 144.405 38.452 143.8 38.4234C143.195 38.4577 142.589 38.3635 142.023 38.147C141.458 37.9306 140.944 37.5967 140.516 37.1674C140.089 36.738 139.757 36.223 139.543 35.6562C139.329 35.0895 139.237 34.4838 139.274 33.879C139.238 33.2697 139.33 32.6597 139.543 32.0878C139.757 31.516 140.087 30.9948 140.512 30.5575C140.938 30.1202 141.45 29.7765 142.016 29.5481C142.582 29.3197 143.19 29.2118 143.8 29.2311C144.409 29.2091 145.016 29.3145 145.582 29.5408C146.148 29.767 146.66 30.109 147.086 30.5448C147.512 30.9806 147.843 31.5007 148.056 32.0716C148.269 32.6425 148.361 33.2517 148.325 33.8602ZM140.911 33.8602C140.886 34.2512 140.943 34.6432 141.078 35.0111C141.213 35.379 141.423 35.7148 141.694 35.9971C141.966 36.2794 142.293 36.5021 142.656 36.6509C143.018 36.7997 143.408 36.8715 143.8 36.8616C144.192 36.8716 144.583 36.7996 144.946 36.6502C145.309 36.5008 145.637 36.2773 145.909 35.994C146.181 35.7106 146.39 35.3736 146.524 35.0046C146.659 34.6355 146.714 34.2426 146.688 33.8508C146.736 33.4478 146.696 33.0393 146.571 32.6532C146.446 32.2671 146.24 31.9123 145.966 31.6132C145.692 31.314 145.356 31.0775 144.982 30.9197C144.609 30.7619 144.205 30.6866 143.8 30.6989C143.39 30.6856 142.982 30.7619 142.604 30.9224C142.226 31.0829 141.888 31.3239 141.613 31.6284C141.338 31.9329 141.133 32.2936 141.012 32.6856C140.891 33.0775 140.856 33.4912 140.911 33.8978V33.8602Z" fill="#545252"/>
<path id="Vector_12" d="M157.64 29.391V38.2258H156.605L151.976 32.2701V38.2164H150.311V29.4004H151.637L155.956 34.8669V29.3816L157.64 29.391Z" fill="#545252"/>
</g>
<g id="Group 1000004126">
<path id="Vector_13" d="M13.3294 0.177246V12.8601H0.646484V25.543C5.10074 25.5478 9.47678 24.3727 13.3294 22.1371C17.178 19.9069 20.3761 16.7087 22.6063 12.8601C24.8378 9.0058 26.0126 4.63091 26.0123 0.177246H13.3294Z" fill="#545252"/>
<path id="Vector_14" d="M25.9842 38.226V25.543H38.6576V12.8601C34.2062 12.8538 29.8328 14.0292 25.9842 16.2661C22.1308 18.4932 18.9288 21.6919 16.6978 25.543C14.477 29.4 13.315 33.7754 13.3295 38.226H25.9842Z" fill="#3BBFAD"/>
</g>
</g>
</svg>
