<?xml version="1.0" standalone="no"?>
<!DOCTYPE svg PUBLIC "-//W3C//DTD SVG 1.1//EN" "http://www.w3.org/Graphics/SVG/1.1/DTD/svg11.dtd" >
<svg xmlns="http://www.w3.org/2000/svg" xmlns:xlink="http://www.w3.org/1999/xlink" version="1.1">
<metadata>
Created by FontForge 20170731 at Fri Apr  8 01:49:08 2011
 By Aleksey,,,
[c] Copyright 2001, Greg Thompson. Agenda is a Registered Trademark of Greg Thompson. Produced by The Font Bureau, Inc. All Rights Reserved.
</metadata>
<defs>
<font id="Agenda-Semibold" horiz-adv-x="1544" >
  <font-face 
    font-family="Agenda Regular"
    font-weight="400"
    font-stretch="normal"
    units-per-em="2048"
    panose-1="2 0 5 3 4 0 0 2 0 4"
    ascent="1638"
    descent="-410"
    x-height="928"
    cap-height="1307"
    bbox="-168 -483 2052 1909"
    underline-thickness="20"
    underline-position="-100"
    unicode-range="U+0020-2122"
  />
<missing-glyph horiz-adv-x="467" 
 />
    <glyph glyph-name="fi" unicode="fi" horiz-adv-x="1096" 
d="M995 0h-243v731h-344v-731h-240v731h-150v197h150v119q0 102 29.5 179t83 128.5t127.5 77.5t163 26q60 0 112 -7.5t89 -23.5l-45 -196q-29 12 -64.5 20.5t-64.5 8.5q-190 0 -190 -230v-102h587v-928z" />
    <glyph glyph-name="fl" unicode="fl" horiz-adv-x="1149" 
d="M1114 147l-117 -184q-47 4 -91.5 22.5t-79.5 53.5t-56.5 88.5t-21.5 128.5v954q-29 25 -71.5 38.5t-82.5 13.5q-186 0 -186 -230v-104h170v-197h-170v-731h-240v731h-150v197h150v119q0 102 29.5 179t83 128.5t127.5 77.5t163 26q74 0 136 -13.5t114 -36t93.5 -51
t74.5 -59.5v-1011q0 -30 9.5 -54.5t26.5 -42.5t40 -29t49 -14z" />
    <glyph glyph-name="f_f" unicode="ff" horiz-adv-x="1286" 
d="M1352 1427l-47 -196q-29 12 -63.5 20.5t-63.5 8.5q-193 0 -193 -230v-102h258l-43 -197h-215v-731h-237v731h-340v-731h-240v731h-150v197h150v119q0 102 29.5 179t83 128.5t127.5 77.5t163 26q96 0 172.5 -25.5t135.5 -62.5q51 43 119.5 65.5t150.5 22.5q60 0 113 -7.5
t90 -23.5zM768 1198q-40 32 -86 48t-88 16q-186 0 -186 -230v-104h340v119q0 42 4.5 79.5t15.5 71.5z" />
    <glyph glyph-name="f_f_i" unicode="ffi" horiz-adv-x="1675" 
d="M1573 0h-244v731h-344v-731h-237v731h-340v-731h-240v731h-150v197h150v119q0 102 29.5 179t83 128.5t127.5 77.5t163 26q96 0 172.5 -25.5t135.5 -62.5q51 43 119.5 65.5t150.5 22.5q60 0 113 -7.5t90 -23.5l-47 -196q-29 12 -63.5 20.5t-63.5 8.5q-193 0 -193 -230
v-102h588v-928zM768 1198q-40 32 -86 48t-88 16q-186 0 -186 -230v-104h340v119q0 42 4.5 79.5t15.5 71.5z" />
    <glyph glyph-name="f_f_l" unicode="ffl" horiz-adv-x="1729" 
d="M1692 147l-115 -184q-47 4 -92 22.5t-80.5 53.5t-57.5 88.5t-22 128.5v954q-29 25 -71 38.5t-83 13.5q-186 0 -186 -230v-104h172v-197h-172v-731h-237v731h-340v-731h-240v731h-150v197h150v119q0 102 29.5 179t83 128.5t127.5 77.5t163 26q96 0 172.5 -25.5
t135.5 -62.5q51 43 119.5 65.5t150.5 22.5q74 0 136 -13.5t114 -36t93.5 -51t74.5 -59.5v-1011q0 -30 9.5 -54.5t26.5 -42.5t40 -29t49 -14zM768 1198q-40 32 -86 48t-88 16q-186 0 -186 -230v-104h340v119q0 42 4.5 79.5t15.5 71.5z" />
    <glyph glyph-name=".notdef" horiz-adv-x="467" 
 />
    <glyph glyph-name=".null" horiz-adv-x="0" 
 />
    <glyph glyph-name="nonmarkingreturn" horiz-adv-x="682" 
 />
    <glyph glyph-name="space" unicode=" " horiz-adv-x="467" 
 />
    <glyph glyph-name="space" unicode="&#xa0;" horiz-adv-x="467" 
 />
    <glyph glyph-name="exclam" unicode="!" horiz-adv-x="567" 
d="M426 1307l-37 -924l-207 45l-35 879h279zM438 121q0 -18 -16 -43t-39 -48.5t-48.5 -40t-43.5 -16.5t-43 16t-48.5 39.5t-40 49t-16.5 43.5q0 17 16 41.5t39.5 47.5t49 39.5t43.5 16.5t43 -16t48 -39t39.5 -47.5t16.5 -42.5z" />
    <glyph glyph-name="quotedbl" unicode="&#x22;" horiz-adv-x="694" 
d="M616 1307l-38 -523h-121l-39 523h198zM276 1307l-40 -523h-123l-35 523h198z" />
    <glyph glyph-name="numbersign" unicode="#" horiz-adv-x="811" 
d="M799 764h-129l-52 -219h123v-139h-155l-92 -406h-156l94 406h-170l-92 -406h-156l95 406h-97v139h129l52 219h-123v139h155l92 404h156l-94 -404h170l92 404h156l-95 -404h97v-139zM516 764h-170l-51 -219h170z" />
    <glyph glyph-name="dollar" unicode="$" horiz-adv-x="979" 
d="M905 373q0 -88 -27 -156.5t-75 -118t-115 -80t-147 -41.5v-176h-135v172q-93 5 -178 30.5t-154 70.5l49 205q28 -20 62 -39t73 -33t82.5 -22.5t91.5 -8.5q54 0 97 14t73 38t46 57t16 71q0 70 -55.5 121.5t-157.5 83.5q-177 57 -275 158.5t-98 238.5q0 76 24.5 138.5
t68.5 109.5t104 78t131 43v182h135v-174q78 -3 146.5 -20.5t127.5 -48.5l-45 -199q-54 28 -118.5 47t-135.5 19q-47 0 -84.5 -12.5t-64 -33.5t-40.5 -50t-14 -62q0 -62 52.5 -104t144.5 -74q90 -31 163 -72t124.5 -93.5t79.5 -117t28 -141.5z" />
    <glyph glyph-name="percent" unicode="%" horiz-adv-x="1440" 
d="M1374 274q0 -67 -23 -122.5t-63.5 -95t-95.5 -61.5t-119 -22t-119 21.5t-95.5 61.5t-63.5 95t-23 123q0 66 23 120.5t63 93.5t95 61t120 22q63 0 118 -22t95.5 -61t64 -93.5t23.5 -120.5zM1198 274q0 31 -10 55.5t-27 42t-40 27t-48 9.5t-47.5 -9.5t-40 -27t-27.5 -42
t-10 -55.5q0 -30 10 -55.5t27 -44t39.5 -29t48.5 -10.5q25 0 48 10t40 28t27 43.5t10 57.5zM1300 1264l-1056 -1307l-107 88l1055 1307zM666 1038q0 -67 -23 -122.5t-63.5 -95t-95.5 -61.5t-119 -22t-119 21.5t-95.5 61.5t-64 95t-23.5 123q0 65 23 119.5t63.5 94t95.5 61.5
t120 22q63 0 117.5 -22t95.5 -61.5t64.5 -94t23.5 -119.5zM489 1038q0 31 -10 55.5t-27 41.5t-39.5 26.5t-47.5 9.5q-26 0 -48.5 -9.5t-39.5 -26.5t-27 -41.5t-10 -55.5t9.5 -56.5t26.5 -44t40 -28.5t49 -10q25 0 47.5 10t39.5 28t27 43.5t10 57.5z" />
    <glyph glyph-name="ampersand" unicode="&#x26;" horiz-adv-x="1321" 
d="M1309 0h-318l-90 90q-81 -56 -178 -86.5t-213 -30.5q-98 0 -178.5 28t-137.5 76.5t-88.5 115t-31.5 143.5q0 60 14 110t42.5 93t71 80t99.5 71q-72 78 -108.5 151.5t-36.5 151.5t29.5 141.5t79 108t115.5 68.5t140 24q75 0 144.5 -24t123 -69t85.5 -108.5t32 -142.5
q0 -106 -60 -192.5t-177 -155.5l239 -240q50 62 86.5 131.5t61.5 137.5l159 -162q-27 -74 -65 -140.5t-84 -125.5zM678 989q0 28 -10 55t-29.5 48t-48.5 34t-66 13q-32 0 -58.5 -12.5t-45.5 -32t-29 -45t-10 -50.5q0 -26 9 -50t26 -48.5t41 -50t53 -53.5q168 92 168 192z
M743 248l-290 291q-70 -38 -105 -83t-35 -110q0 -37 16 -68t43.5 -53.5t64.5 -35.5t79 -13q62 0 118.5 19t108.5 53z" />
    <glyph glyph-name="quotesingle" unicode="'" horiz-adv-x="352" 
d="M276 1307l-40 -523h-123l-35 523h198z" />
    <glyph glyph-name="parenleft" unicode="(" horiz-adv-x="553" 
d="M541 1419q-51 -97 -92.5 -207t-71 -228.5t-46 -243t-16.5 -251.5q0 -133 13 -256t39.5 -241.5t67.5 -234t97 -232.5l-249 53q-48 101 -87 203.5t-66 214t-41.5 236t-14.5 270.5q0 144 15 274.5t43.5 250t69.5 229t93 212.5z" />
    <glyph glyph-name="parenright" unicode=")" horiz-adv-x="553" 
d="M479 485q0 -144 -15 -274.5t-43.5 -249.5t-70 -229t-94.5 -213l-244 53q51 97 92.5 206.5t71 228t46 243t16.5 250.5q0 133 -13.5 256.5t-40.5 241t-68 233t-96 233.5l248 -55q48 -101 87 -203.5t66.5 -214t42.5 -236t15 -270.5z" />
    <glyph glyph-name="asterisk" unicode="*" horiz-adv-x="879" 
d="M858 1057l-291 -78l166 -203l-131 -145l-164 254l-139 -221l-176 81l192 234l-254 65l23 191l274 -111l-16 260l195 43l-19 -301l238 101z" />
    <glyph glyph-name="plus" unicode="+" horiz-adv-x="928" 
d="M854 469h-283v-272h-213v272h-284v195h284v272h213v-272h283v-195z" />
    <glyph glyph-name="comma" unicode="," horiz-adv-x="430" 
d="M362 123q0 -45 -19 -101.5t-49.5 -112.5t-69 -108t-77.5 -88l-79 15q24 28 45 62t37 69.5t26 71t12 67.5q-18 3 -39 17.5t-39 33.5t-30 39t-12 35q0 20 16.5 45t39.5 46.5t48 36.5t43 15q15 0 40 -14.5t49 -36.5t41 -46.5t17 -45.5z" />
    <glyph glyph-name="hyphen" unicode="-" horiz-adv-x="674" 
d="M600 469h-526v195h526v-195z" />
    <glyph glyph-name="hyphen" unicode="&#xad;" horiz-adv-x="674" 
d="M600 469h-526v195h526v-195z" />
    <glyph glyph-name="period" unicode="." horiz-adv-x="430" 
d="M362 121q0 -18 -16 -43t-39 -48.5t-48.5 -40t-43.5 -16.5t-43 16t-48 39.5t-39.5 49t-16.5 43.5q0 17 16 41.5t39 47.5t48.5 39.5t43.5 16.5t43 -16t48 -39t39.5 -47.5t16.5 -42.5z" />
    <glyph glyph-name="slash" unicode="/" horiz-adv-x="1006" 
d="M940 1311l-846 -1655l-168 88l846 1655z" />
    <glyph glyph-name="zero" unicode="0" horiz-adv-x="1063" 
d="M989 655q0 -175 -37 -303.5t-100 -212.5t-146 -125t-174 -41q-93 0 -176 41t-145.5 125t-99.5 212.5t-37 303.5q0 174 37 302t99.5 212t145.5 125t176 41q91 0 174 -41t146 -125t100 -212t37 -302zM748 655q0 122 -18 210.5t-48 146t-69 85t-81 27.5t-81 -27.5t-68.5 -85
t-47.5 -146t-18 -210.5q0 -123 18 -212t47.5 -146t68.5 -84t81 -27t81 27t69 84t48 146t18 212z" />
    <glyph glyph-name="one" unicode="1" horiz-adv-x="594" 
d="M475 0h-242v1102l-221 -23l47 209l416 39v-1327z" />
    <glyph glyph-name="two" unicode="2" horiz-adv-x="954" 
d="M881 0h-813v59q103 120 193.5 238t158 226.5t106.5 204.5t39 171q0 54 -15 96t-41 70t-62 42.5t-78 14.5q-65 0 -127 -18.5t-113 -52.5l-49 204q59 38 136 59t171 21q92 0 170 -27t134.5 -80.5t88 -132.5t31.5 -184q0 -87 -32 -177t-84 -180t-118 -178t-135 -171h439
v-205z" />
    <glyph glyph-name="three" unicode="3" horiz-adv-x="905" 
d="M831 397q0 -95 -33.5 -172.5t-96.5 -132.5t-153 -85t-204 -30q-27 0 -57.5 3t-61 8t-59.5 13t-53 19l-25 224q48 -26 106 -44t117 -18q49 0 96 13.5t84 41.5t59.5 71t22.5 102q0 43 -18.5 82.5t-51 68.5t-75.5 46.5t-92 17.5h-15.5t-21.5 -2l-43 186q46 9 86.5 26.5
t71 41t48 52.5t17.5 62q0 30 -11 54t-31 40.5t-47.5 25.5t-59.5 9q-56 0 -102 -13t-97 -42l-45 203q56 29 122.5 47t143.5 18q84 0 153 -22t118.5 -62t76.5 -96t27 -123q0 -52 -16.5 -95t-43 -75t-59.5 -54t-67 -32q52 -12 104 -42t93 -77t67 -111.5t26 -146.5z" />
    <glyph glyph-name="four" unicode="4" horiz-adv-x="1020" 
d="M946 328h-145v-328h-238v328h-510l-41 186l598 793h191v-779h145v-200zM567 940l-4 4q-23 -38 -47.5 -73.5t-50.5 -69.5l-209 -275h307v277q0 32 1 66t3 71z" />
    <glyph glyph-name="five" unicode="5" horiz-adv-x="948" 
d="M874 410q0 -93 -31 -173t-91.5 -138.5t-150 -92t-206.5 -33.5q-36 0 -72.5 4t-69.5 11t-62 16.5t-50 20.5l-24 227q57 -34 122 -52t134 -18q51 0 96.5 15.5t79.5 44.5t54 70.5t20 93.5q0 54 -20 97t-54 73t-79.5 46.5t-96.5 16.5q-71 0 -122.5 -9t-96.5 -26l20 703h612
l-45 -205h-333l-9 -264q11 2 26 3t26 1q83 0 159.5 -29.5t135 -85t93.5 -135.5t35 -182z" />
    <glyph glyph-name="six" unicode="6" horiz-adv-x="1049" 
d="M985 412q0 -98 -34.5 -178.5t-95 -138.5t-143.5 -90t-180 -32q-93 0 -176 31.5t-145.5 93t-99.5 151.5t-37 208q0 131 43 261.5t120.5 248.5t183.5 218t232 169l244 -90q-174 -90 -301.5 -210t-200.5 -270q34 25 77.5 39.5t98.5 14.5q84 0 159 -31t132 -87t90 -134.5
t33 -173.5zM750 399q0 48 -15.5 89.5t-44 72t-67.5 47.5t-86 17q-34 0 -68.5 -7.5t-64.5 -25.5t-53.5 -48t-35.5 -75q-2 -14 -2 -27.5v-27.5q0 -51 18.5 -94.5t50 -75.5t72 -50t85.5 -18q42 0 80 16t67.5 45t46.5 70t17 92z" />
    <glyph glyph-name="seven" unicode="7" horiz-adv-x="934" 
d="M903 1307l-549 -1307h-256l471 1102h-557v205h891z" />
    <glyph glyph-name="eight" unicode="8" horiz-adv-x="1059" 
d="M985 371q0 -93 -35 -167t-96.5 -125t-145 -78.5t-180.5 -27.5t-180 27.5t-144 78.5t-95.5 125t-34.5 167q0 68 24 124.5t59.5 99t77.5 71.5t78 43q-35 15 -69 42t-60.5 63t-42.5 81t-16 96q0 75 29.5 138.5t83 109t127 71t161.5 25.5t162 -25t128 -71t84 -109.5
t30 -140.5q0 -48 -16 -92t-42.5 -80.5t-60 -63t-68.5 -40.5q36 -13 78.5 -42.5t79 -73.5t60.5 -101t24 -125zM709 983q0 34 -14 63t-38 50t-56.5 33t-70.5 12q-36 0 -68 -12t-56 -33t-38 -50t-14 -63q0 -30 13.5 -58.5t38 -52.5t58.5 -42.5t75 -28.5q40 11 71.5 29.5
t53.5 42.5t33.5 52t11.5 58zM743 375q0 44 -21.5 80.5t-55.5 65t-74.5 48t-77.5 29.5q-36 -10 -74 -29.5t-68.5 -48t-50.5 -65t-20 -80.5q0 -43 18 -79.5t49 -63t70.5 -41.5t83.5 -15q45 0 85.5 15t70.5 41.5t47.5 63t17.5 79.5z" />
    <glyph glyph-name="nine" unicode="9" horiz-adv-x="1049" 
d="M975 852q0 -131 -43.5 -262t-120.5 -249t-183.5 -217.5t-232.5 -168.5l-243 92q177 91 305.5 210.5t199.5 268.5q-35 -24 -79.5 -38.5t-100.5 -14.5q-84 0 -159 30.5t-131.5 86t-90 134t-33.5 173.5q0 97 35 178t96 138.5t144 89.5t180 32q93 0 176 -31.5t145.5 -92.5
t99 -151.5t36.5 -207.5zM735 885q0 51 -18.5 94.5t-49.5 75.5t-71.5 50.5t-85.5 18.5q-42 0 -80 -16t-66.5 -45.5t-45.5 -71t-17 -92.5q0 -48 15.5 -89.5t44 -71.5t67.5 -47t86 -17q34 0 67.5 7.5t63 26t53 48.5t35.5 75q0 14 1 27t1 27z" />
    <glyph glyph-name="colon" unicode=":" horiz-adv-x="430" 
d="M362 807q0 -18 -16 -42.5t-39 -47.5t-48.5 -39t-43.5 -16t-43 16t-48 39t-39.5 47.5t-16.5 42.5t16 43t39 48t48.5 39.5t43.5 16.5t43 -16.5t48 -39.5t39.5 -48t16.5 -43zM362 121q0 -18 -16 -43t-39 -48.5t-48.5 -40t-43.5 -16.5t-43 16t-48 39.5t-39.5 49t-16.5 43.5
q0 17 16 41.5t39 47.5t48.5 39.5t43.5 16.5t43 -16t48 -39t39.5 -47.5t16.5 -42.5z" />
    <glyph glyph-name="semicolon" unicode=";" horiz-adv-x="430" 
d="M362 807q0 -18 -16 -42.5t-39 -47.5t-48.5 -39t-43.5 -16t-43 16t-48 39t-39.5 47.5t-16.5 42.5t16 43t39 48t48.5 39.5t43.5 16.5t43 -16.5t48 -39.5t39.5 -48t16.5 -43zM362 123q0 -45 -19 -101.5t-49.5 -112.5t-69 -108t-77.5 -88l-79 15q24 28 45 62t37 69.5t26 71
t12 67.5q-18 3 -39 17.5t-39 33.5t-30 39t-12 35q0 20 16.5 45t39.5 46.5t48 36.5t43 15q15 0 40 -14.5t49 -36.5t41 -46.5t17 -45.5z" />
    <glyph glyph-name="less" unicode="&#x3c;" horiz-adv-x="928" 
d="M854 176l-780 256v270l780 263v-203l-608 -195l608 -188v-203z" />
    <glyph glyph-name="equal" unicode="=" horiz-adv-x="928" 
d="M854 653h-780v195h780v-195zM854 285h-780v194h780v-194z" />
    <glyph glyph-name="greater" unicode="&#x3e;" horiz-adv-x="928" 
d="M854 432l-780 -256v203l608 188l-608 195v203l780 -263v-270z" />
    <glyph glyph-name="question" unicode="?" horiz-adv-x="795" 
d="M729 999q0 -45 -11 -84.5t-33 -78.5t-54.5 -79.5t-75.5 -88.5t-61.5 -91t-18.5 -88q0 -26 2.5 -54.5t7.5 -51.5l-213 43q-8 29 -11 53t-3 51q0 82 31 156t88 133q24 25 42 46.5t30 43t18 44.5t6 51q0 20 -9 40.5t-26 37.5t-42.5 27.5t-59.5 10.5q-62 0 -114 -19t-103 -50
l-49 211q52 34 122.5 53.5t153.5 19.5q84 0 154.5 -23.5t121.5 -67t79 -105.5t28 -140zM532 121q0 -18 -16 -43t-39 -48.5t-48.5 -40t-43.5 -16.5t-43 16t-48 39.5t-39.5 49t-16.5 43.5q0 17 16 41.5t39 47.5t48.5 39.5t43.5 16.5t43.5 -16t48.5 -39t39 -47.5t16 -42.5z" />
    <glyph glyph-name="at" unicode="@" horiz-adv-x="1550" 
d="M1479 688q0 -80 -23.5 -154.5t-68 -132.5t-110 -92.5t-149.5 -34.5q-27 0 -55.5 7t-53 22t-43.5 39t-26 59q-15 -36 -38.5 -60t-52 -38.5t-61.5 -20.5t-67 -6q-51 0 -95.5 17.5t-77 48.5t-51 73t-18.5 91q0 51 19.5 91t53 69.5t78 46.5t93.5 22l150 15v26q0 35 -27 59.5
t-90 24.5q-53 0 -107.5 -16.5t-97.5 -42.5l-39 153q24 15 54.5 27.5t65 22t70 15t70.5 5.5q66 0 121.5 -17t96 -50.5t63 -83t22.5 -113.5v-268q0 -38 15.5 -53t38.5 -15q34 0 65 16.5t55 49.5t38 82.5t14 115.5q0 111 -44.5 201.5t-118.5 155t-170 100t-198 35.5
q-103 0 -200 -35t-172 -102t-120.5 -165t-45.5 -223q0 -122 44 -218.5t116.5 -163.5t165 -102.5t190.5 -35.5q57 0 103.5 4t84.5 17l-18 -152q-26 -11 -71 -14.5t-103 -3.5q-88 0 -173 20.5t-160.5 60.5t-139.5 98t-110.5 132.5t-72.5 165.5t-26 196t27.5 196t76 166
t115.5 133.5t145.5 98.5t166 61t177.5 21t177 -20.5t164.5 -60t143 -96t113.5 -128t74.5 -158t26.5 -184.5zM883 553v53l-101 -10q-43 -5 -71.5 -26t-28.5 -64q0 -29 21.5 -51.5t58.5 -22.5q24 0 46 9t38.5 24.5t26.5 38t10 49.5z" />
    <glyph glyph-name="A" unicode="A" horiz-adv-x="1278" 
d="M1247 0h-258l-125 315h-461l-124 -315h-248l536 1321h146zM791 518l-109 281q-11 29 -23.5 66.5t-23.5 74.5h-4q-10 -37 -23 -74.5t-24 -66.5l-109 -281h316z" />
    <glyph glyph-name="B" unicode="B" horiz-adv-x="1083" 
d="M1010 401q0 -98 -36.5 -173t-97.5 -125.5t-139.5 -76.5t-163.5 -26h-454v1307h397q71 0 138.5 -22.5t120 -66.5t84.5 -108t32 -147q0 -32 -7.5 -66t-22 -64.5t-36 -55t-49.5 -38.5q45 -14 87 -45t74.5 -75t52.5 -99.5t20 -118.5zM649 950q0 42 -14.5 71.5t-38.5 48
t-55.5 27.5t-65.5 9h-119v-309h119q34 0 65.5 8.5t55.5 27.5t38.5 47.5t14.5 69.5zM758 399q0 52 -19.5 90t-52 63t-74 37.5t-86.5 12.5h-170v-405h170q45 0 86.5 12t74 37t52 63t19.5 90z" />
    <glyph glyph-name="B" unicode="&#xe000;" horiz-adv-x="1083" 
d="M1010 401q0 -98 -36.5 -173t-97.5 -125.5t-139.5 -76.5t-163.5 -26h-454v1307h397q71 0 138.5 -22.5t120 -66.5t84.5 -108t32 -147q0 -32 -7.5 -66t-22 -64.5t-36 -55t-49.5 -38.5q45 -14 87 -45t74.5 -75t52.5 -99.5t20 -118.5zM649 950q0 42 -14.5 71.5t-38.5 48
t-55.5 27.5t-65.5 9h-119v-309h119q34 0 65.5 8.5t55.5 27.5t38.5 47.5t14.5 69.5zM758 399q0 52 -19.5 90t-52 63t-74 37.5t-86.5 12.5h-170v-405h170q45 0 86.5 12t74 37t52 63t19.5 90z" />
    <glyph glyph-name="C" unicode="C" horiz-adv-x="1219" 
d="M1145 1241l-47 -223q-24 15 -56.5 29t-71.5 25t-82.5 17.5t-88.5 6.5q-91 0 -175 -29.5t-148.5 -86.5t-103 -140t-38.5 -191q0 -107 38.5 -190t103.5 -140t150.5 -86.5t180.5 -29.5q99 0 173 17t130 48l-23 -227q-56 -28 -130.5 -41.5t-186.5 -13.5q-83 0 -167 19
t-161 56.5t-144.5 93t-117 130t-78 166.5t-28.5 202q0 111 29 203.5t79 167t117 130.5t144.5 93.5t161 56.5t165.5 19q128 0 221.5 -24t153.5 -58z" />
    <glyph glyph-name="D" unicode="D" horiz-adv-x="1319" 
d="M1245 653q0 -155 -58 -276.5t-155.5 -205t-224.5 -127.5t-266 -44h-422v1307h422q139 0 266 -44t224.5 -128t155.5 -205.5t58 -276.5zM983 651q0 111 -37.5 194t-102.5 138t-151.5 82t-183.5 27h-133v-881h133q97 0 183.5 27t151.5 81.5t102.5 137.5t37.5 194z" />
    <glyph glyph-name="E" unicode="E" horiz-adv-x="926" 
d="M913 0h-794v1307h729v-215h-473v-328h393v-217h-393v-332h538v-215z" />
    <glyph glyph-name="E" unicode="&#xe001;" horiz-adv-x="926" 
d="M913 0h-794v1307h729v-215h-473v-328h393v-217h-393v-332h538v-215z" />
    <glyph glyph-name="F" unicode="F" horiz-adv-x="872" 
d="M860 1092h-485v-328h405v-217h-405v-547h-256v1307h741v-215z" />
    <glyph glyph-name="G" unicode="G" horiz-adv-x="1376" 
d="M1276 111q-88 -72 -207.5 -105t-273.5 -33q-89 0 -177 19.5t-168.5 58t-149 96t-119 133t-79 169t-28.5 204.5q0 113 29.5 207t80.5 170t119.5 133t147.5 95.5t164 57.5t169 19q137 0 246 -29.5t178 -74.5l-47 -219q-66 43 -157 70.5t-191 27.5q-93 0 -180 -30.5
t-153.5 -89.5t-107 -145.5t-40.5 -199.5q0 -109 39 -194t104 -143t151 -88t181 -30q74 0 130.5 14t96.5 40v248h-262v202h504v-583z" />
    <glyph glyph-name="H" unicode="H" horiz-adv-x="1343" 
d="M1225 0h-258v545h-590v-545h-258v1307h258v-541h590v541h258v-1307z" />
    <glyph glyph-name="I" unicode="I" horiz-adv-x="539" 
d="M397 0h-258v1307h258v-1307z" />
    <glyph glyph-name="J" unicode="J" horiz-adv-x="545" 
d="M403 266q0 -128 -37.5 -226.5t-97 -168.5t-131.5 -111.5t-141 -56.5l-164 166q70 15 128.5 47t99.5 83t64 122.5t23 165.5v1020h256v-1041z" />
    <glyph glyph-name="K" unicode="K" horiz-adv-x="1157" 
d="M1139 0h-320l-440 573h-2v-573h-258v1307h258v-586h2l455 586h284l-497 -641z" />
    <glyph glyph-name="L" unicode="L" horiz-adv-x="924" 
d="M911 0h-792v1307h258v-1092h534v-215z" />
    <glyph glyph-name="M" unicode="M" horiz-adv-x="1686" 
d="M1608 0h-250l-47 537q-5 60 -10 130t-7 138h-4q-13 -33 -29 -69t-33 -71.5t-34.5 -70t-32.5 -64.5l-274 -538h-101l-278 538q-31 60 -64.5 132.5t-62.5 140.5h-4q-2 -69 -7 -140t-10 -126l-47 -537h-235l112 1307h193l317 -611q18 -34 38 -73t39.5 -79t37.5 -80t33 -75h4
q14 34 31 73t36 79t38.5 79.5t37.5 75.5l312 611h184z" />
    <glyph glyph-name="N" unicode="N" horiz-adv-x="1438" 
d="M1319 -20h-111l-563 614q-35 37 -70.5 77.5t-70.5 81.5t-68.5 80.5t-64.5 75.5l-4 -2q3 -80 3.5 -156.5t0.5 -144.5v-606h-252v1307h198l504 -551q26 -29 58 -64t65 -73t65 -75.5t58 -70.5l4 2q-3 68 -3.5 139.5t-0.5 137.5v555h252v-1327z" />
    <glyph glyph-name="O" unicode="O" 
d="M1470 655q0 -106 -27 -197.5t-75 -167t-114 -134.5t-143.5 -100t-164 -62t-174.5 -21q-89 0 -175 21t-163.5 62t-143.5 100t-114 134.5t-75 167.5t-27 197t27 196t75 167t114 134.5t143.5 99.5t164 62t174.5 21t174.5 -21t164 -62t143.5 -99.5t114 -134.5t75 -167
t27 -196zM1208 651q0 106 -37.5 190.5t-99 143t-140 90t-159.5 31.5q-82 0 -160.5 -31t-139.5 -89.5t-98.5 -143t-37.5 -191.5q0 -106 37.5 -190.5t98.5 -143.5t139.5 -90.5t160.5 -31.5q81 0 159 31.5t139.5 90t99.5 143t38 191.5z" />
    <glyph glyph-name="P" unicode="P" horiz-adv-x="1047" 
d="M983 926q0 -92 -35 -163t-92 -119.5t-130.5 -73.5t-150.5 -25h-204v-545h-252v1307h456q77 0 150.5 -24.5t130.5 -73t92 -119.5t35 -164zM729 920q0 43 -16.5 75.5t-43.5 54t-62 32t-72 10.5h-164v-344h164q37 0 72 10t62 31t43.5 53.5t16.5 77.5z" />
    <glyph glyph-name="Q" unicode="Q" 
d="M1554 -70l-145 -211q-11 -3 -24 -3.5t-27 -0.5q-49 0 -93.5 5.5t-86.5 17.5t-84 30t-86 44q-45 25 -90 49t-86 45t-76.5 39t-63.5 32q-80 9 -156.5 35t-145.5 69t-127 101t-100 130.5t-65.5 158.5t-23.5 184q0 105 27 196t75 167t114 134.5t143.5 99.5t164 62t174.5 21
t174.5 -21t164 -62t143.5 -99.5t114 -134.5t75 -167t27 -196q0 -123 -39.5 -228t-105.5 -185t-152 -132.5t-180 -70.5v-4q22 -3 43 -8.5t44 -14t49.5 -20.5t58.5 -27q66 -32 124.5 -44.5t104.5 -12.5q35 0 67.5 4t69.5 18zM1208 651q0 106 -37.5 190.5t-99 143t-140 90
t-159.5 31.5q-82 0 -160.5 -31t-139.5 -89.5t-98.5 -143t-37.5 -191.5q0 -106 37.5 -190.5t98.5 -143.5t139.5 -90.5t160.5 -31.5q81 0 159 31.5t139.5 90t99.5 143t38 191.5z" />
    <glyph glyph-name="R" unicode="R" horiz-adv-x="1114" 
d="M1180 0h-312l-381 545h-116v-545h-252v1307h436q77 0 150.5 -24.5t130.5 -73t92 -119.5t35 -164q0 -62 -17 -114t-46.5 -94t-68.5 -73.5t-83 -50.5zM709 920q0 43 -16.5 75.5t-43.5 54t-62.5 32t-72.5 10.5h-143v-344h143q37 0 72 10t62.5 31t44 53.5t16.5 77.5z" />
    <glyph glyph-name="S" unicode="S" horiz-adv-x="999" 
d="M926 385q0 -90 -29.5 -163.5t-88 -126t-145 -81t-200.5 -28.5q-54 0 -105 7t-96 19t-82.5 28t-64.5 34l-27 252q75 -56 171 -89.5t198 -33.5q48 0 86.5 11.5t66.5 32.5t43 51t15 67t-11 65.5t-35 51.5t-61 41.5t-88 33.5q-184 54 -273 152t-89 243q0 75 27.5 142t81 118
t133 81t184.5 30q51 0 98 -7t86.5 -17.5t70.5 -24t50 -25.5l-49 -211q-19 12 -46.5 24.5t-60.5 23t-69 17.5t-72 7q-45 0 -80 -11.5t-59 -31t-36 -45.5t-12 -55q0 -60 45.5 -97t135.5 -65q88 -28 159.5 -64.5t122 -86.5t78 -116t27.5 -153z" />
    <glyph glyph-name="S" unicode="&#xe002;" horiz-adv-x="999" 
d="M926 385q0 -90 -29.5 -163.5t-88 -126t-145 -81t-200.5 -28.5q-54 0 -105 7t-96 19t-82.5 28t-64.5 34l-27 252q75 -56 171 -89.5t198 -33.5q48 0 86.5 11.5t66.5 32.5t43 51t15 67t-11 65.5t-35 51.5t-61 41.5t-88 33.5q-184 54 -273 152t-89 243q0 75 27.5 142t81 118
t133 81t184.5 30q51 0 98 -7t86.5 -17.5t70.5 -24t50 -25.5l-49 -211q-19 12 -46.5 24.5t-60.5 23t-69 17.5t-72 7q-45 0 -80 -11.5t-59 -31t-36 -45.5t-12 -55q0 -60 45.5 -97t135.5 -65q88 -28 159.5 -64.5t122 -86.5t78 -116t27.5 -153z" />
    <glyph glyph-name="T" unicode="T" horiz-adv-x="1077" 
d="M1065 1092h-397v-1092h-258v1092h-398v215h1053v-215z" />
    <glyph glyph-name="U" unicode="U" horiz-adv-x="1337" 
d="M1219 465q0 -116 -42.5 -207.5t-116.5 -154.5t-174 -96.5t-216 -33.5t-217 33.5t-175 96.5t-116.5 154.5t-42.5 207.5v842h258v-820q0 -65 19.5 -118.5t57 -91t92.5 -58t126 -20.5q70 0 125 20t93 57.5t57.5 90.5t19.5 118v822h252v-842z" />
    <glyph glyph-name="V" unicode="V" horiz-adv-x="1219" 
d="M1188 1307l-498 -1321h-162l-497 1321h266l223 -600q25 -67 50 -144t48 -155h5q21 77 46 153.5t50 145.5l223 600h246z" />
    <glyph glyph-name="W" unicode="W" horiz-adv-x="1868" 
d="M1837 1307l-451 -1321h-135l-217 639q-25 71 -49.5 148t-50.5 173h-4q-26 -96 -51 -174t-48 -147l-217 -639h-135l-448 1321h254l190 -566q22 -62 44.5 -132.5t39.5 -147.5h4q19 77 39.5 147t42.5 133l191 566h221l190 -566q20 -58 42 -131.5t40 -148.5h4q17 74 39.5 148
t42.5 132l193 566h229z" />
    <glyph glyph-name="X" unicode="X" horiz-adv-x="1282" 
d="M1208 0h-286l-195 313q-22 35 -45 77.5t-45 80.5h-4q-20 -37 -45.5 -80.5t-46.5 -77.5l-197 -313h-270l418 662l-398 645h285l184 -295q20 -32 42.5 -72.5t39.5 -75.5h4q17 35 40.5 75.5t43.5 72.5l187 295h268l-397 -633z" />
    <glyph glyph-name="Y" unicode="Y" horiz-adv-x="1300" 
d="M1270 1307l-494 -713v-594h-252v590l-493 717h278l240 -342q26 -38 55 -83t53 -87h5q24 42 54.5 89t55.5 81l238 342h260z" />
    <glyph glyph-name="Z" unicode="Z" horiz-adv-x="1104" 
d="M1030 0h-956v61l391 695q22 40 48 83.5t52.5 87.5t52 85.5t48.5 77.5l-2 2h-558v215h902v-62l-396 -696q-23 -41 -48.5 -84.5t-51.5 -86.5t-51 -84t-47 -77l2 -2h614v-215z" />
    <glyph glyph-name="bracketleft" unicode="[" horiz-adv-x="616" 
d="M604 -453h-485v1893h485v-203h-246v-1487h246v-203z" />
    <glyph glyph-name="backslash" unicode="\" horiz-adv-x="1004" 
d="M1077 -256l-168 -88l-846 1655l168 88z" />
    <glyph glyph-name="bracketright" unicode="]" horiz-adv-x="616" 
d="M498 -453h-486v203h246v1487h-246v203h486v-1893z" />
    <glyph glyph-name="asciicircum" unicode="^" horiz-adv-x="1024" 
d="M870 1098l-139 -60q-60 35 -119 75t-110 85q-51 -43 -105 -84t-114 -76l-129 58q34 26 73 60t77.5 72.5t74.5 80t65 82.5q14 18 33.5 30.5t34.5 12.5t34.5 -11.5t33.5 -31.5q29 -41 64.5 -82t74 -79.5t77.5 -72t74 -59.5z" />
    <glyph glyph-name="underscore" unicode="_" horiz-adv-x="1075" 
d="M1079 -473h-1081v194h1081v-194z" />
    <glyph glyph-name="grave" unicode="`" horiz-adv-x="1024" 
d="M645 1098l-139 -60q-84 50 -156.5 104.5t-138.5 123.5q-16 15 -25.5 31t-9.5 28t12 31t29.5 36t36.5 29.5t33 12.5q12 0 32.5 -11.5t34.5 -31.5q29 -41 65 -82t74.5 -79.5t77.5 -72t74 -59.5z" />
    <glyph glyph-name="a" unicode="a" horiz-adv-x="936" 
d="M922 113l-164 -144q-23 5 -45.5 16t-42 28t-35 39.5t-23.5 49.5q-16 -35 -41 -59t-57 -40t-69.5 -23t-77.5 -7q-65 0 -121 22.5t-97 62t-64.5 94t-23.5 118.5q0 65 25 117.5t67.5 91t99 61.5t120.5 29l202 19v45q0 52 -39 87.5t-124 35.5q-68 0 -137.5 -21t-120.5 -53
l-45 192q60 39 142.5 59.5t172.5 20.5q85 0 156 -21.5t122.5 -63.5t80 -105t28.5 -146v-339q0 -73 30.5 -112.5t80.5 -53.5zM575 334v82l-145 -13q-37 -3 -63 -15.5t-43 -31t-25 -41t-8 -45.5q0 -21 8 -40.5t23 -34.5t36.5 -24t47.5 -9q34 0 65 12.5t54 35t36.5 54
t13.5 70.5z" />
    <glyph glyph-name="b" unicode="b" horiz-adv-x="1124" 
d="M1061 475q0 -108 -35 -200t-102.5 -158.5t-166 -104t-225.5 -37.5q-68 0 -131.5 11.5t-118 29.5t-98 40.5t-73.5 45.5v1356h239v-573q14 12 40 24t59 21.5t70.5 15.5t74.5 6q98 0 183.5 -34.5t148.5 -97t99 -150.5t36 -195zM815 463q0 58 -19 108t-53.5 87t-81.5 58
t-102 21q-40 0 -73.5 -8t-60 -20.5t-45.5 -27t-30 -26.5v-430q12 -8 30.5 -15.5t41.5 -14.5t48.5 -11t49.5 -4q69 0 124 20.5t93 58t58 89.5t20 115z" />
    <glyph glyph-name="b" unicode="&#xe003;" horiz-adv-x="1124" 
d="M1061 475q0 -108 -35 -200t-102.5 -158.5t-166 -104t-225.5 -37.5q-68 0 -131.5 11.5t-118 29.5t-98 40.5t-73.5 45.5v1356h239v-573q14 12 40 24t59 21.5t70.5 15.5t74.5 6q98 0 183.5 -34.5t148.5 -97t99 -150.5t36 -195zM815 463q0 58 -19 108t-53.5 87t-81.5 58
t-102 21q-40 0 -73.5 -8t-60 -20.5t-45.5 -27t-30 -26.5v-430q12 -8 30.5 -15.5t41.5 -14.5t48.5 -11t49.5 -4q69 0 124 20.5t93 58t58 89.5t20 115z" />
    <glyph glyph-name="c" unicode="c" horiz-adv-x="922" 
d="M858 874l-45 -208q-54 35 -107.5 49t-113.5 14q-56 0 -107 -19t-89 -54.5t-60.5 -85.5t-22.5 -111t23 -111t61.5 -85.5t90 -55t108.5 -19.5q63 0 114.5 13t108.5 41l-24 -213q-48 -23 -107 -34t-127 -11q-95 0 -185 33t-159.5 95t-111.5 151t-42 200q0 113 42.5 202
t112 151t158.5 95t183 33q93 0 166 -17.5t133 -52.5z" />
    <glyph glyph-name="d" unicode="d" horiz-adv-x="1126" 
d="M1016 0h-219v109h-2q-35 -57 -107 -95.5t-178 -38.5q-81 0 -160.5 31t-143.5 92.5t-103.5 153t-39.5 211.5q0 110 37 200t100.5 154.5t149.5 99.5t185 35q37 0 74 -6t70 -15.5t59 -22t40 -25.5v575h238v-1458zM778 287v362q-11 13 -29.5 28.5t-44.5 28.5t-60 22t-75 9
q-55 0 -103 -20.5t-83 -57.5t-55.5 -88t-20.5 -112q0 -62 20.5 -113t55.5 -88t83 -57.5t103 -20.5q39 0 72 9t59 24t45.5 34.5t32.5 39.5z" />
    <glyph glyph-name="e" unicode="e" horiz-adv-x="1006" 
d="M942 592q0 -19 -1.5 -38.5t-4.5 -35.5l-119 -119h-506q3 -36 24 -74.5t59.5 -71t93 -53t124.5 -20.5q82 0 149.5 21t115.5 53l-25 -221q-53 -26 -123.5 -43t-161.5 -17q-103 0 -195 35.5t-161 100t-109.5 155t-40.5 201.5q0 116 40 207t106 153.5t151.5 95.5t176.5 33
q96 0 171.5 -31t128 -82t80 -116t27.5 -133zM709 598q0 29 -12 58.5t-34.5 53t-54 38t-69.5 14.5t-74.5 -14t-66.5 -39t-51.5 -59.5t-29.5 -74.5h390q0 7 1 12t1 11z" />
    <glyph glyph-name="f" unicode="f" horiz-adv-x="709" 
d="M772 1427l-45 -196q-29 12 -64.5 20.5t-64.5 8.5q-190 0 -190 -230v-102h282l-47 -197h-235v-731h-240v731h-150v197h150v119q0 102 29.5 179t83 128.5t127.5 77.5t163 26q60 0 112 -7.5t89 -23.5z" />
    <glyph glyph-name="g" unicode="g" horiz-adv-x="967" 
d="M928 -154q0 -68 -31 -126.5t-87.5 -101.5t-135.5 -67t-176 -24q-98 0 -178.5 26t-138 71.5t-89 108t-31.5 134.5q0 57 17.5 101.5t46 76.5t64 52.5t71.5 29.5l-113 111q2 24 12.5 46t26.5 40.5t36.5 32.5t41.5 22q-29 17 -55.5 41.5t-46.5 56.5t-31.5 70.5t-11.5 83.5
q0 71 26 130.5t73.5 102t115 66.5t151.5 24q39 0 70.5 -4t58.5 -12q28 -8 62 -12t69 -4q36 0 76 9t66 23l43 -190q-10 -6 -24 -11.5t-29.5 -9t-31.5 -6t-30 -2.5q12 -17 22.5 -48t10.5 -66q0 -60 -22.5 -115t-64.5 -97t-102 -68t-135 -28q-42 -2 -65 -10t-23 -33
q0 -8 5.5 -16.5t19.5 -13.5l196 -70q64 -23 114.5 -52.5t85.5 -68.5t53 -89t18 -114zM633 633q0 27 -11 52t-30.5 43.5t-47 30t-59.5 11.5t-59.5 -11.5t-47.5 -30t-31 -43.5t-11 -52q0 -28 11 -52.5t31 -43t47.5 -29t59.5 -10.5q30 0 57 10.5t47 29t32 43t12 52.5zM694 -152
q0 44 -29.5 78t-86.5 51l-136 39q-35 -1 -63.5 -12t-48.5 -30.5t-31.5 -46.5t-11.5 -58q0 -29 13 -56t39 -48t64.5 -33.5t90.5 -12.5q50 0 87.5 11.5t62.5 29.5t37.5 41t12.5 47z" />
    <glyph glyph-name="h" unicode="h" horiz-adv-x="1061" 
d="M958 0h-243v584q0 31 -10 59.5t-31 50.5t-54.5 35.5t-80.5 13.5q-45 0 -79.5 -13.5t-58 -36t-35.5 -52t-12 -61.5v-580h-243v1458h241v-620h2q35 52 99 83t168 31q76 0 138 -22t106 -63.5t68.5 -101t24.5 -134.5v-631z" />
    <glyph glyph-name="i" unicode="i" horiz-adv-x="477" 
d="M375 1219q0 -17 -14.5 -40.5t-35.5 -45.5t-44 -37t-41 -15q-17 0 -40.5 15t-45.5 37t-37 45.5t-15 40.5t15 40.5t37 45t45.5 36.5t40.5 15q18 0 41 -15t44 -36.5t35.5 -45t14.5 -40.5zM362 0h-247v928h247v-928z" />
    <glyph glyph-name="j" unicode="j" horiz-adv-x="477" 
d="M375 1219q0 -17 -14.5 -40.5t-35.5 -45.5t-44 -37t-41 -15q-17 0 -40.5 15t-45.5 37t-37 45.5t-15 40.5t15 40.5t37 45t45.5 36.5t40.5 15q18 0 41 -15t44 -36.5t35.5 -45t14.5 -40.5zM362 -74q0 -81 -25 -148t-66 -118t-93.5 -85.5t-107.5 -49.5l-150 145q44 12 80 33.5
t61.5 54.5t39.5 79t14 106v985h247v-1002z" />
    <glyph glyph-name="k" unicode="k" horiz-adv-x="981" 
d="M981 0h-297l-330 406h-2v-406h-241v1458h241v-940h2l336 410h275l-367 -455z" />
    <glyph glyph-name="l" unicode="l" horiz-adv-x="514" 
d="M477 147l-115 -184q-47 4 -92 22.5t-80 53.5t-57 88.5t-22 128.5v1202h241v-1171q0 -30 10 -54.5t27 -42.5t39.5 -29t48.5 -14z" />
    <glyph glyph-name="m" unicode="m" horiz-adv-x="1614" 
d="M1513 0h-243v584q0 31 -7 59.5t-26 50.5t-51 35.5t-82 13.5q-48 0 -81.5 -13.5t-54 -36t-29.5 -52t-9 -61.5v-580h-244v584q0 31 -7 59.5t-26 50.5t-51 35.5t-82 13.5q-48 0 -81.5 -13.5t-54 -36t-29.5 -52t-9 -61.5v-580h-244v928h220l4 -125h2q29 68 95.5 108.5
t178.5 40.5q94 0 167 -37t108 -106q17 31 45.5 57t67 45t84.5 30t97 11q80 0 143.5 -22.5t107.5 -64t67.5 -101.5t23.5 -135v-629z" />
    <glyph glyph-name="n" unicode="n" horiz-adv-x="1053" 
d="M950 0h-243v584q0 31 -10 59.5t-31.5 50.5t-55 35.5t-80.5 13.5q-44 0 -78.5 -13.5t-58 -36t-35.5 -52t-12 -61.5v-580h-244v928h222v-123h2q29 68 99 107.5t187 39.5q76 0 138.5 -22t106.5 -63.5t68.5 -101t24.5 -134.5v-631z" />
    <glyph glyph-name="o" unicode="o" horiz-adv-x="1124" 
d="M1061 463q0 -109 -38.5 -199.5t-106 -155t-158 -100t-195.5 -35.5q-104 0 -195.5 35.5t-159 100t-106.5 155t-39 199.5q0 110 39 200.5t106.5 155t159 100t195.5 35.5t194.5 -35.5t158 -100t106.5 -155t39 -200.5zM819 459q0 62 -20.5 113.5t-56 88.5t-82 57.5
t-97.5 20.5t-97.5 -20.5t-82 -57.5t-56 -88.5t-20.5 -113.5t20.5 -113t56 -88t82 -57.5t97.5 -20.5t97.5 20.5t82 57.5t56 88t20.5 113z" />
    <glyph glyph-name="p" unicode="p" horiz-adv-x="1118" 
d="M1055 465q0 -110 -37 -200t-100.5 -154.5t-149.5 -100t-184 -35.5q-37 0 -74.5 6t-70.5 16t-59 22.5t-40 25.5v-518h-238v1401h220v-109h2q35 57 106.5 95t177.5 38q81 0 160.5 -31t143.5 -92.5t103.5 -152.5t39.5 -211zM811 459q0 61 -20.5 112.5t-55.5 88t-83 57
t-103 20.5q-39 0 -72 -9t-59 -24t-45.5 -34t-32.5 -39v-363q11 -13 29.5 -28.5t45 -28.5t60 -22t74.5 -9q55 0 103 21t83 58t55.5 88t20.5 112z" />
    <glyph glyph-name="q" unicode="q" horiz-adv-x="1114" 
d="M1014 -473h-240v518q-14 -12 -38.5 -24.5t-56 -22.5t-67.5 -16.5t-73 -6.5q-102 0 -189.5 36t-151 100.5t-99.5 152.5t-36 193q0 106 36 197t102.5 157t160.5 103.5t211 37.5q48 0 91 -7.5t78.5 -18.5t62.5 -24t45 -23l96 71h68v-1423zM774 262v412q-12 10 -32.5 21.5
t-45 20.5t-51.5 15t-51 6q-64 0 -116.5 -20.5t-90.5 -57.5t-59 -89t-21 -115q0 -59 21 -109t57.5 -87t85.5 -58t104 -21q40 0 72 8t56.5 20.5t42 27t28.5 26.5z" />
    <glyph glyph-name="r" unicode="r" horiz-adv-x="715" 
d="M700 930l-61 -258q-12 5 -34 9.5t-44 4.5q-41 0 -79.5 -11t-68.5 -38t-48.5 -72.5t-18.5 -113.5v-451h-244v928h242v-199h2q12 52 37 92t59.5 67t77 40.5t90.5 13.5q20 0 47.5 -3t42.5 -9z" />
    <glyph glyph-name="s" unicode="s" horiz-adv-x="786" 
d="M725 268q0 -57 -21.5 -108.5t-65 -90.5t-109.5 -62t-154 -23t-155 18t-120 47l-26 232q27 -22 60.5 -40.5t71 -32.5t77 -22t79.5 -8q53 0 85 24.5t32 59.5q0 38 -27 62t-79 41q-68 22 -120.5 50t-89.5 64t-56 81.5t-19 103.5q0 63 24 114.5t67.5 88t104 57t132.5 20.5
q40 0 80 -5.5t74.5 -14t61.5 -18.5t42 -19l-43 -189q-32 20 -84 38t-117 18q-48 0 -75 -22.5t-27 -57.5q0 -34 25 -54.5t81 -37.5q147 -47 219 -121t72 -193z" />
    <glyph glyph-name="s" unicode="&#xe004;" horiz-adv-x="786" 
d="M725 268q0 -57 -21.5 -108.5t-65 -90.5t-109.5 -62t-154 -23t-155 18t-120 47l-26 232q27 -22 60.5 -40.5t71 -32.5t77 -22t79.5 -8q53 0 85 24.5t32 59.5q0 38 -27 62t-79 41q-68 22 -120.5 50t-89.5 64t-56 81.5t-19 103.5q0 63 24 114.5t67.5 88t104 57t132.5 20.5
q40 0 80 -5.5t74.5 -14t61.5 -18.5t42 -19l-43 -189q-32 20 -84 38t-117 18q-48 0 -75 -22.5t-27 -57.5q0 -34 25 -54.5t81 -37.5q147 -47 219 -121t72 -193z" />
    <glyph glyph-name="t" unicode="t" horiz-adv-x="758" 
d="M741 928l-43 -197h-270v-420q0 -71 35.5 -99t103.5 -28q48 0 80 13l-20 -189q-20 -9 -52 -14.5t-69 -5.5q-71 0 -129.5 19t-100.5 55t-65 89t-23 121v459h-170v197h170v192l240 105v-297h313z" />
    <glyph glyph-name="u" unicode="u" horiz-adv-x="1053" 
d="M950 0h-223v123h-2q-29 -68 -98.5 -108t-186.5 -40q-76 0 -138 22.5t-106.5 64.5t-69 102t-24.5 135v629h244v-582q0 -31 10 -60t31 -51.5t54.5 -36.5t80.5 -14q45 0 79.5 13.5t58 36t35.5 52.5t12 62v580h243v-928z" />
    <glyph glyph-name="v" unicode="v" horiz-adv-x="956" 
d="M926 928l-373 -940h-150l-372 940h239l150 -385q15 -42 32 -93.5t31 -101.5h4q14 50 31 101.5t33 93.5l149 385h226z" />
    <glyph glyph-name="w" unicode="w" horiz-adv-x="1436" 
d="M1405 928l-338 -940h-137l-148 409q-17 48 -33.5 103t-31.5 112h-4q-14 -57 -30 -111.5t-32 -99.5l-147 -413h-133l-338 940h225l131 -375q16 -43 29 -93.5t24 -97.5h4q11 45 25.5 96.5t30.5 94.5l133 375h180l133 -375q16 -45 28.5 -94t24.5 -97h5l24.5 98t28.5 93
l133 375h213z" />
    <glyph glyph-name="x" unicode="x" horiz-adv-x="956" 
d="M893 0h-254l-111 193q-12 21 -25 46.5t-26 51.5h-4q-11 -26 -26.5 -52t-26.5 -46l-111 -193h-246l277 467l-264 461h252l102 -180q12 -22 23.5 -43t23.5 -46h4q11 23 23 44.5t26 44.5l105 180h246l-265 -449z" />
    <glyph glyph-name="y" unicode="y" horiz-adv-x="979" 
d="M948 928l-327 -838q-53 -134 -108 -230t-113 -163t-119.5 -110t-128.5 -70l-152 151q59 24 111.5 58t98.5 82t86 113.5t75 152.5l-340 854h241l152 -389q15 -42 34.5 -94t33.5 -105h4q17 50 36.5 103t34.5 94l154 391h227z" />
    <glyph glyph-name="y" unicode="&#xe006;" horiz-adv-x="979" 
d="M948 928l-327 -838q-53 -134 -108 -230t-113 -163t-119.5 -110t-128.5 -70l-152 151q59 24 111.5 58t98.5 82t86 113.5t75 152.5l-340 854h241l152 -389q15 -42 34.5 -94t33.5 -105h4q17 50 36.5 103t34.5 94l154 391h227z" />
    <glyph glyph-name="z" unicode="z" horiz-adv-x="887" 
d="M823 0h-760v47l261 453q15 27 32.5 56.5t35.5 59.5t35.5 58.5t33.5 52.5l-2 4h-363v197h692v-47l-262 -455q-32 -56 -66 -111t-71 -114l2 -2h432v-199z" />
    <glyph glyph-name="braceleft" unicode="{" horiz-adv-x="680" 
d="M668 -262l-35 -193q-111 0 -193 38.5t-136.5 108.5t-81.5 167t-27 213q0 70 -9 132.5t-30.5 115.5t-56.5 96.5t-87 75.5q101 64 142 171t41 250q0 115 27 211.5t81.5 166.5t136.5 108.5t193 38.5l35 -193q-62 0 -106.5 -22.5t-73 -64t-42.5 -101t-14 -133.5
q0 -148 -37.5 -252.5t-120.5 -179.5q83 -73 120.5 -179t37.5 -254q0 -74 13.5 -133t42 -101t73.5 -64.5t107 -22.5z" />
    <glyph glyph-name="bar" unicode="|" horiz-adv-x="434" 
d="M313 -473h-194v1931h194v-1931z" />
    <glyph glyph-name="braceright" unicode="}" horiz-adv-x="680" 
d="M668 492q-51 -32 -86 -75t-56.5 -96t-31 -115.5t-9.5 -133.5q0 -116 -27 -213t-81.5 -167t-136.5 -108.5t-193 -38.5l-35 193q61 0 106 22.5t73.5 64t42.5 101t14 133.5q0 148 37.5 254t120.5 179q-83 75 -120.5 179.5t-37.5 252.5q0 73 -13.5 132.5t-42 101.5
t-73.5 64.5t-107 22.5l35 193q111 0 193 -38.5t136.5 -108.5t81.5 -166.5t27 -211.5q0 -71 9 -133t30.5 -115t56.5 -96.5t87 -76.5z" />
    <glyph glyph-name="asciitilde" unicode="~" horiz-adv-x="797" 
d="M723 662q-17 -30 -45.5 -70.5t-60.5 -76.5t-63.5 -61.5t-55.5 -25.5q-22 0 -48.5 13t-52.5 28t-48.5 28t-37.5 13q-14 0 -30 -12t-32 -29t-31 -35.5t-25 -32.5l-119 52q17 30 45.5 69.5t60.5 75.5t63.5 61t55.5 25q21 0 47.5 -12.5t52.5 -27.5t48.5 -27.5t37.5 -12.5
q14 0 30 12t32.5 29t31 35.5t25.5 32.5z" />
    <glyph glyph-name="exclamdown" unicode="&#xa1;" horiz-adv-x="549" 
d="M414 1186q0 -17 -16 -42t-39.5 -48t-49 -39.5t-43.5 -16.5t-43 16t-48 39t-39.5 48t-16.5 43t16 43t39 48t48.5 39.5t43.5 16.5t43 -16t48.5 -39t40 -48.5t16.5 -43.5zM412 0h-279l37 924l205 -43z" />
    <glyph glyph-name="cent" unicode="&#xa2;" horiz-adv-x="922" 
d="M633 0h-137v172q-86 11 -164.5 48.5t-138 98t-95 143.5t-35.5 185q0 103 35.5 186.5t95.5 144.5t138 98t164 48v183h137v-183q66 -6 121.5 -22.5t103.5 -42.5l-45 -209q-54 35 -107.5 49t-113.5 14q-56 0 -106.5 -19t-88.5 -54.5t-61 -85.5t-23 -111t23 -110.5t61.5 -85
t90 -55t108.5 -19.5q62 0 114 12.5t109 40.5l-24 -213q-35 -17 -75.5 -26.5t-86.5 -14.5v-172z" />
    <glyph glyph-name="sterling" unicode="&#xa3;" horiz-adv-x="911" 
d="M838 176l-43 -203q-56 23 -136 39.5t-176 16.5t-174.5 -16.5t-134.5 -39.5l-106 142q46 69 73 163t27 232v80h-150v133h150v184q0 105 30.5 184t85.5 132t131.5 79.5t168.5 26.5q62 0 114.5 -8.5t89.5 -24.5l-45 -196q-31 14 -66.5 21t-66.5 7q-200 0 -200 -233v-172h239
l-31 -133h-208v-88q0 -48 -5.5 -94t-15 -85t-23 -70.5t-28.5 -51.5q34 11 87 17.5t105 6.5q76 0 158 -13t150 -36z" />
    <glyph glyph-name="currency" unicode="&#xa4;" horiz-adv-x="1152" 
d="M1056 392l-116 -108l-200 216q-72 -48 -168 -48q-92 0 -164 48l-200 -216l-116 108l208 216q-28 40 -38 78t-10 94q0 48 10 90t38 82l-208 216l116 108l200 -216q72 48 164 48q96 0 168 -48l204 216l116 -120l-208 -204q28 -40 38 -80t10 -92q0 -96 -52 -172zM748 780
q0 80 -50 130t-126 50t-124 -50t-48 -130t50 -128t122 -48q80 0 128 48t48 128z" />
    <glyph glyph-name="yen" unicode="&#xa5;" horiz-adv-x="1081" 
d="M1051 1307l-342 -678h249v-135h-294v-494h-246v494h-295v135h250l-342 678h256l182 -365q9 -19 19.5 -42t21 -47t20.5 -48t19 -45h4q19 43 41 94t41 88l182 365h234z" />
    <glyph glyph-name="brokenbar" unicode="&#xa6;" horiz-adv-x="479" 
d="M338 614h-195v844h195v-844zM338 -473h-195v844h195v-844z" />
    <glyph glyph-name="section" unicode="&#xa7;" horiz-adv-x="1010" 
d="M891 -98q0 -74 -28.5 -140t-82 -116t-131 -79.5t-174.5 -29.5q-111 0 -189 22t-130 50l47 213q54 -32 117 -51t141 -19q47 0 81.5 11.5t57.5 31.5t34 46.5t11 56.5q0 7 -2.5 18.5t-7.5 24.5t-12.5 25.5t-16.5 21.5l-477 485l64 277q-38 51 -56 107t-18 112
q0 73 28.5 139.5t82 116t130.5 79t175 29.5q111 0 188.5 -22t130.5 -49l-47 -213q-54 32 -117.5 50.5t-140.5 18.5q-47 0 -81.5 -11.5t-57.5 -31t-34 -46t-11 -56.5q0 -8 2.5 -19.5t7.5 -24.5t12 -25t16 -21l478 -484l-64 -278q37 -51 55.5 -107.5t18.5 -111.5zM731 287
l-424 426l-28 -129l421 -426z" />
    <glyph glyph-name="dieresis" unicode="&#xa8;" horiz-adv-x="1024" 
d="M803 1159q0 -14 -13 -34.5t-32 -40t-40 -33t-36 -13.5t-36 13.5t-40 33t-32 40t-13 34.5q0 15 13 36.5t32 40.5t40 32.5t36 13.5t36 -13.5t40 -32.5t32 -40.5t13 -36.5zM463 1159q0 -14 -13 -34.5t-32 -40t-40 -33t-36 -13.5q-14 0 -34.5 13.5t-40 33t-33 40t-13.5 34.5
q0 15 13.5 36.5t33 40.5t40 32.5t34.5 13.5q15 0 36 -13.5t40 -32.5t32 -40.5t13 -36.5z" />
    <glyph glyph-name="copyright" unicode="&#xa9;" horiz-adv-x="1239" 
d="M1165 512q0 -119 -42 -218.5t-115 -171t-172.5 -111.5t-214.5 -40t-214.5 40t-173.5 111.5t-116.5 171t-42.5 218.5q0 120 42.5 219.5t116.5 171.5t173.5 112t214.5 40q114 0 213.5 -40t173 -112t115.5 -171.5t42 -219.5zM1034 512q0 90 -30 167t-84.5 134t-130.5 89
t-168 32q-93 0 -169.5 -32t-131.5 -89t-85 -134t-30 -167q0 -89 30 -166t85 -134t131.5 -89.5t169.5 -32.5q91 0 167 32t130.5 89t85 134t30.5 167zM821 760l-33 -148q-11 9 -26.5 16.5t-33 13t-35.5 8.5t-34 3q-28 0 -53.5 -10t-44.5 -28t-30 -44t-11 -57t11.5 -56
t31.5 -43t46.5 -28t56.5 -10q32 0 63 7t66 26l-17 -150q-60 -31 -133 -31q-57 0 -110.5 19.5t-95.5 56.5t-67.5 90t-25.5 121q0 67 26 121t68 91t95.5 57t109.5 20q54 0 99.5 -12t76.5 -33z" />
    <glyph glyph-name="ordfeminine" unicode="&#xaa;" horiz-adv-x="788" 
d="M766 672l-139 -123q-18 4 -36 12t-34 20t-29.5 27.5t-21.5 34.5q-28 -48 -80 -69t-115 -21q-54 0 -99.5 18t-79 50t-52.5 76t-19 96q0 53 20.5 95t56 72t82 48.5t97.5 23.5l154 17v30q0 38 -28.5 64t-94.5 26q-54 0 -110 -16t-101 -45l-37 162q51 32 119 49.5t139 17.5
q69 0 127 -17t100 -51t65.5 -84.5t23.5 -117.5v-268q0 -56 23.5 -85.5t68.5 -41.5zM471 844v59l-123 -12q-46 -5 -69 -35t-23 -68q0 -34 23.5 -56.5t58.5 -22.5q23 0 46.5 9.5t43 26.5t31.5 42t12 57zM518 301q0 -15 -14 -36t-33.5 -40.5t-41 -33t-36.5 -13.5t-36 13.5
t-40.5 33t-33 40.5t-13.5 36t13.5 36.5t33 41t40.5 33.5t36 14t36.5 -14t41 -33.5t33.5 -41t14 -36.5z" />
    <glyph glyph-name="guillemotleft" unicode="&#xab;" horiz-adv-x="860" 
d="M793 207l-33 -74q-25 32 -56 67.5t-66.5 71t-73 68t-75.5 59.5q-18 13 -28 31.5t-10 32.5t10.5 32.5t27.5 30.5q38 28 75.5 61t73 68t66.5 70.5t56 67.5l33 -74q-26 -69 -56 -132.5t-65 -123.5q35 -60 64 -123.5t57 -132.5zM373 207l-33 -74q-25 32 -56 67.5t-66 71
t-73 68t-75 59.5q-19 13 -29 31.5t-10 32.5t11 32.5t28 30.5q37 28 75 61t73 68t66 70.5t56 67.5l33 -74q-26 -69 -56 -132.5t-65 -123.5q35 -60 64 -123.5t57 -132.5z" />
    <glyph glyph-name="logicalnot" unicode="&#xac;" horiz-adv-x="1042" 
d="M940 258h-201v211h-669v195h870v-406z" />
    <glyph glyph-name="registered" unicode="&#xae;" horiz-adv-x="965" 
d="M901 920q0 -91 -32.5 -167t-89.5 -131.5t-133.5 -86.5t-164.5 -31q-89 0 -165.5 31t-133 86.5t-89 131.5t-32.5 167q0 90 32.5 166.5t89 131.5t133 86t165.5 31q88 0 164.5 -31t133.5 -86t89.5 -131.5t32.5 -166.5zM805 920q0 72 -25 132t-68.5 103.5t-102.5 67.5
t-128 24q-70 0 -129.5 -24t-103 -67.5t-68 -103.5t-24.5 -132t24.5 -132t68 -103t103 -67t129.5 -24q69 0 128 24t102.5 67.5t68.5 103t25 131.5zM696 727l-90 -57l-127 190h-47v-188h-106v495h157q31 0 61.5 -10.5t54.5 -30t39 -48t15 -64.5q0 -42 -20 -74.5t-51 -50.5z
M545 1014q0 31 -21 47t-53 16h-39v-125h39q32 0 53 15.5t21 46.5z" />
    <glyph glyph-name="macron" unicode="&#xaf;" horiz-adv-x="1024" 
d="M717 1065h-404v166h404v-166z" />
    <glyph glyph-name="degree" unicode="&#xb0;" horiz-adv-x="625" 
d="M557 1094q0 -50 -19.5 -94.5t-52.5 -77.5t-77.5 -52.5t-94.5 -19.5t-94.5 19.5t-78 52.5t-53 77.5t-19.5 94.5t19.5 94t53 76.5t78 51.5t94.5 19t94.5 -19t77.5 -51.5t52.5 -76.5t19.5 -94zM406 1094q0 45 -25.5 73.5t-67.5 28.5t-69 -28.5t-27 -73.5t27 -74t69 -29
t67.5 29t25.5 74z" />
    <glyph glyph-name="plusminus" unicode="&#xb1;" horiz-adv-x="1536" 
d="M672 352v412h-472v172h472v416h192v-416h476v-172h-476v-412h-192zM204 24v192h1132v-192h-1132z" />
    <glyph glyph-name="twosuperior" unicode="&#xb2;" horiz-adv-x="721" 
d="M627 506h-570v43q178 155 271.5 282.5t93.5 212.5q0 69 -43 108.5t-117 39.5q-51 0 -93.5 -14t-80.5 -35l-29 135q39 23 94 38t121 15q75 0 132.5 -19.5t97 -56t60 -88.5t20.5 -116q0 -91 -63.5 -197.5t-174.5 -212.5h281v-135z" />
    <glyph glyph-name="threesuperior" unicode="&#xb3;" horiz-adv-x="629" 
d="M557 754q0 -59 -22 -107t-63 -82t-99 -52.5t-131 -18.5q-35 0 -78.5 7t-75.5 21l-16 150q32 -19 71.5 -30t77.5 -11q31 0 61 8t52.5 25t36.5 42t14 60q0 26 -12 49t-32 40.5t-46.5 27.5t-56.5 10h-11t-18 -2l-27 123q63 12 103.5 40.5t40.5 65.5q0 34 -26 54t-67 20
q-34 0 -62.5 -8.5t-66.5 -28.5l-30 133q77 41 174 41q54 0 98.5 -14t77 -39t50.5 -60t18 -77q0 -29 -9 -53t-24 -43.5t-35 -34t-41 -23.5q34 -11 65.5 -31t55.5 -49.5t38.5 -67.5t14.5 -85z" />
    <glyph glyph-name="acute" unicode="&#xb4;" horiz-adv-x="1024" 
d="M840 1329q0 -11 -10 -25.5t-25 -31.5q-68 -71 -141 -127t-158 -107l-127 56q35 27 74 61.5t77.5 73.5t74.5 80.5t65 83.5q14 20 32.5 30.5t30.5 10.5t30.5 -12t35.5 -29t29 -34.5t12 -29.5z" />
    <glyph glyph-name="mu" unicode="&#xb5;" horiz-adv-x="1408" 
d="M252 -424q-56 0 -84 32t-28 112t4 174t12 206q8 100 12 156t4 72q4 20 4 28v12v808h192v-856q0 -92 82 -144t178 -52q132 0 230 66t150 190v796h192v-868l20 -308h-164l-36 176q-68 -108 -184 -162t-264 -54q-52 0 -128 26t-120 74q0 -88 28 -172t28 -152
q0 -160 -128 -160z" />
    <glyph glyph-name="paragraph" unicode="&#xb6;" horiz-adv-x="940" 
d="M928 1116h-152v-1190q0 -81 -24.5 -148t-65.5 -118.5t-93.5 -86.5t-107.5 -50l-153 151q44 11 80.5 32.5t62.5 54.5t40.5 77.5t14.5 102.5v555h-16q-87 0 -168 26.5t-144 78.5t-101 128t-38 174t38 175t101 130t145 81t169 28h412v-201z" />
    <glyph glyph-name="periodcentered" unicode="&#xb7;" horiz-adv-x="430" 
d="M362 555q0 -18 -16 -43t-39 -48t-48.5 -39.5t-43.5 -16.5t-43 16t-48 39t-39.5 48.5t-16.5 43.5q0 17 16 41.5t39 47.5t48.5 39.5t43.5 16.5t43 -16t48 -39t39.5 -47.5t16.5 -42.5z" />
    <glyph glyph-name="cedilla" unicode="&#xb8;" horiz-adv-x="1024" 
d="M688 -264q0 -53 -20 -93.5t-52.5 -67.5t-74 -40.5t-84.5 -13.5q-47 0 -88 12.5t-72 34.5l25 117q27 -20 62.5 -30.5t70.5 -10.5q37 0 62.5 23.5t25.5 62.5q0 20 -7.5 36t-18.5 27t-24 17t-24 6q-48 0 -67.5 24.5t-10.5 59.5l25 100h86l-13 -55q36 -2 72 -17.5t64 -42.5
t45.5 -65t17.5 -84z" />
    <glyph glyph-name="onesuperior" unicode="&#xb9;" horiz-adv-x="528" 
d="M381 506h-162v663l-158 -16l33 150l287 28v-825z" />
    <glyph glyph-name="ordmasculine" unicode="&#xba;" horiz-adv-x="930" 
d="M868 944q0 -87 -31.5 -159t-86 -123.5t-128 -80t-157.5 -28.5t-158 28.5t-128.5 80t-86 123.5t-31.5 159q0 88 31.5 160t86 124t128.5 80.5t158 28.5t157.5 -28.5t128 -80.5t86 -124t31.5 -160zM657 944q0 48 -15.5 87t-42 67t-61.5 43.5t-73 15.5q-39 0 -74.5 -15.5
t-61.5 -43.5t-41.5 -67t-15.5 -87q0 -47 15.5 -86.5t41.5 -68t61.5 -44.5t74.5 -16q38 0 73 16t61.5 44.5t42 68t15.5 86.5zM588 301q0 -15 -13.5 -36t-32.5 -40.5t-40.5 -33t-36.5 -13.5t-35.5 13.5t-39.5 33t-32.5 40.5t-13.5 36t13.5 36.5t32.5 41t39.5 33.5t35.5 14
t36.5 -14t40.5 -33.5t32.5 -41t13.5 -36.5z" />
    <glyph glyph-name="guillemotright" unicode="&#xbb;" horiz-adv-x="860" 
d="M829 463q0 -14 -11 -32.5t-30 -31.5q-38 -27 -75.5 -59.5t-73 -68t-66.5 -71t-55 -67.5l-31 74q26 69 54 132.5t65 123.5q-37 60 -65 123.5t-54 132.5l31 74q24 -32 55 -67.5t66.5 -70.5t73 -68t75.5 -61q17 -12 29 -30.5t12 -32.5zM410 463q0 -14 -10.5 -32.5
t-28.5 -31.5q-38 -27 -76 -59.5t-73.5 -68t-66.5 -71t-55 -67.5l-32 74q26 69 54.5 132.5t65.5 123.5q-37 60 -65.5 123.5t-54.5 132.5l32 74q24 -32 55 -67.5t66.5 -70.5t73.5 -68t76 -61q17 -12 28 -30.5t11 -32.5z" />
    <glyph glyph-name="onequarter" unicode="&#xbc;" horiz-adv-x="1511" 
d="M1425 227h-102v-227h-162v227h-342l-28 129l376 457h156v-455h102v-131zM1167 621l-4 2q-27 -50 -63 -93l-139 -172h200v177q0 23 1.5 43t4.5 43zM1280 1262l-1044 -1293l-97 76l1049 1292zM381 506h-162v663l-158 -16l33 150l287 28v-825z" />
    <glyph glyph-name="onehalf" unicode="&#xbd;" horiz-adv-x="1632" 
d="M1550 0h-571v43q176 154 270 282.5t94 213.5q0 68 -41.5 107.5t-115.5 39.5q-51 0 -93.5 -13.5t-80.5 -35.5l-31 135q38 23 94.5 38t122.5 15q75 0 132.5 -19.5t96.5 -56t59.5 -88.5t20.5 -116q0 -45 -16.5 -95t-47 -102.5t-74.5 -106t-99 -106.5h280v-135zM1280 1262
l-1044 -1293l-97 76l1049 1292zM381 506h-162v663l-158 -16l33 150l287 28v-825z" />
    <glyph glyph-name="threequarters" unicode="&#xbe;" horiz-adv-x="1569" 
d="M1491 221h-100v-221h-160v221h-330l-33 129l375 463h148v-457h100v-135zM1239 608l-4 2q-14 -23 -28.5 -44t-32.5 -44l-136 -166h195v168q0 23 1.5 43t4.5 41zM1358 1262l-1047 -1293l-96 76l1049 1292zM557 754q0 -59 -22 -107t-63 -82t-99 -52.5t-131 -18.5
q-35 0 -78.5 7t-75.5 21l-16 150q32 -19 71.5 -30t77.5 -11q31 0 61 8t52.5 25t36.5 42t14 60q0 26 -12 49t-32 40.5t-46.5 27.5t-56.5 10h-11t-18 -2l-27 123q63 12 103.5 40.5t40.5 65.5q0 34 -26 54t-67 20q-34 0 -62.5 -8.5t-66.5 -28.5l-30 133q77 41 174 41
q54 0 98.5 -14t77 -39t50.5 -60t18 -77q0 -29 -9 -53t-24 -43.5t-35 -34t-41 -23.5q34 -11 65.5 -31t55.5 -49.5t38.5 -67.5t14.5 -85z" />
    <glyph glyph-name="questiondown" unicode="&#xbf;" horiz-adv-x="778" 
d="M561 1188q0 -17 -16 -42t-39 -48t-48.5 -39.5t-43.5 -16.5t-43.5 16t-49 39t-39.5 48t-16 43t16 43t39.5 48t49 39.5t43.5 16.5t43 -16t48 -39t39.5 -48.5t16.5 -43.5zM729 49q-53 -34 -123 -55t-153 -21q-85 0 -155.5 23.5t-121 67.5t-78.5 106.5t-28 140.5
q0 46 12 87.5t34.5 81.5t55 80t72.5 83q43 47 60.5 90t17.5 88q0 26 -2 55t-7 52l213 -43q8 -29 11.5 -53t3.5 -52q0 -81 -31 -155.5t-88 -132.5q-24 -25 -42 -46.5t-30 -43t-18 -44.5t-6 -51q0 -20 8.5 -41t26 -38.5t43 -28.5t59.5 -11q62 0 114 19.5t103 50.5z" />
    <glyph glyph-name="Agrave" unicode="&#xc0;" horiz-adv-x="1278" 
d="M1247 0h-258l-125 315h-461l-124 -315h-248l536 1321h146zM791 516l-109 283q-11 29 -23.5 66.5t-23.5 74.5h-4q-10 -37 -22 -74.5t-23 -66.5l-111 -283h316zM840 1507l-140 -59q-83 49 -155.5 103.5t-138.5 123.5q-16 16 -25.5 31.5t-9.5 28.5q0 12 12 30.5t29 35.5
t36 29.5t33 12.5q13 0 33.5 -11.5t34.5 -31.5q29 -41 65 -82t74 -79t77 -72t75 -60z" />
    <glyph glyph-name="Aacute" unicode="&#xc1;" horiz-adv-x="1278" 
d="M1247 0h-258l-125 315h-461l-124 -315h-248l536 1321h146zM791 516l-109 283q-11 29 -23.5 66.5t-23.5 74.5h-4q-10 -37 -22 -74.5t-23 -66.5l-111 -283h316zM913 1739q0 -11 -9.5 -26t-24.5 -32q-69 -71 -141.5 -126.5t-157.5 -106.5l-127 55q35 28 74 62.5t77.5 73.5
t74 80.5t64.5 82.5q14 20 33 30.5t31 10.5t30.5 -12t35 -28.5t28.5 -34.5t12 -29z" />
    <glyph glyph-name="Acircumflex" unicode="&#xc2;" horiz-adv-x="1278" 
d="M1247 0h-258l-125 315h-461l-124 -315h-248l536 1321h146zM791 516l-109 283q-11 29 -23.5 66.5t-23.5 74.5h-4q-10 -37 -22 -74.5t-23 -66.5l-111 -283h316zM997 1507l-139 -59q-60 35 -119 75t-110 85q-51 -44 -105 -84.5t-114 -75.5l-129 57q34 26 73 60.5t77.5 73
t74.5 79.5t65 82q14 19 33 31t35 12q15 0 34.5 -11.5t33.5 -31.5q29 -41 64.5 -82t74 -79t77.5 -72t74 -60z" />
    <glyph glyph-name="Atilde" unicode="&#xc3;" horiz-adv-x="1278" 
d="M1247 0h-258l-125 315h-461l-124 -315h-248l536 1321h146zM791 516l-109 283q-11 29 -23.5 66.5t-23.5 74.5h-4q-10 -37 -22 -74.5t-23 -66.5l-111 -283h316zM1038 1757q-13 -24 -32.5 -53t-42.5 -59.5t-48 -59t-50 -51t-48 -36t-41 -13.5q-25 0 -56 15t-61 33t-57 33
t-45 15q-16 0 -35 -14t-38 -34t-36.5 -42t-29.5 -39l-139 61q13 24 32.5 53.5t43 59.5t49 59t50 51.5t48 36t41.5 13.5q25 0 56 -15t61 -33t56.5 -33t43.5 -15q16 0 35 14t38 34t36.5 42t29.5 39z" />
    <glyph glyph-name="Adieresis" unicode="&#xc4;" horiz-adv-x="1278" 
d="M1247 0h-258l-125 315h-461l-124 -315h-248l536 1321h146zM791 516l-109 283q-11 29 -23.5 66.5t-23.5 74.5h-4q-10 -37 -22 -74.5t-23 -66.5l-111 -283h316zM930 1569q0 -14 -13 -34.5t-32 -40t-40 -33t-36 -13.5t-36 13.5t-40 33t-32 40t-13 34.5q0 15 13 36.5t32 40.5
t40 32.5t36 13.5t36 -13.5t40 -32.5t32 -40.5t13 -36.5zM590 1569q0 -14 -13 -34.5t-32 -40t-40 -33t-36 -13.5q-14 0 -34.5 13.5t-40 33t-33 40t-13.5 34.5q0 15 13.5 36.5t33 40.5t40 32.5t34.5 13.5q15 0 36 -13.5t40 -32.5t32 -40.5t13 -36.5z" />
    <glyph glyph-name="Aring" unicode="&#xc5;" horiz-adv-x="1278" 
d="M1247 0h-258l-125 315h-461l-124 -315h-248l536 1321h146zM791 516l-109 283q-11 29 -23.5 66.5t-23.5 74.5h-4q-10 -37 -22 -74.5t-23 -66.5l-111 -283h316zM887 1665q0 -50 -19.5 -94.5t-53.5 -77.5t-78.5 -52.5t-94.5 -19.5t-94.5 19.5t-78.5 52.5t-53.5 77.5
t-19.5 94.5t19.5 94.5t53.5 77.5t78.5 52.5t94.5 19.5t94.5 -19.5t78.5 -52.5t53.5 -77.5t19.5 -94.5zM735 1665q0 45 -26 73.5t-68 28.5t-68 -28.5t-26 -73.5t26 -73.5t68 -28.5t68 28.5t26 73.5z" />
    <glyph glyph-name="AE" unicode="&#xc6;" horiz-adv-x="1663" 
d="M1651 0h-779v315h-401l-184 -315h-256l757 1307h797v-215h-473v-328h393v-217h-393v-332h539v-215zM877 1092l-5 2q-20 -51 -44.5 -101t-49.5 -96l-209 -379h303v381q0 28 0.5 52t1 46t1.5 45t2 50z" />
    <glyph glyph-name="Ccedilla" unicode="&#xc7;" horiz-adv-x="1219" 
d="M1145 1241l-47 -223q-24 15 -56.5 29t-71.5 25t-82.5 17.5t-88.5 6.5q-91 0 -175 -29.5t-148.5 -86.5t-103 -140t-38.5 -191q0 -107 38.5 -190t103.5 -140t150.5 -86.5t180.5 -29.5q99 0 173 17t130 48l-23 -227q-27 -14 -58 -24t-67.5 -16.5t-80 -10t-95.5 -4.5l-10 -41
q36 -2 71.5 -17.5t64 -42.5t46 -65t17.5 -84q0 -53 -20 -93.5t-53 -67.5t-74.5 -40.5t-84.5 -13.5q-46 0 -87 12.5t-72 34.5l24 117q28 -20 63 -30.5t70 -10.5q38 0 63 23.5t25 62.5q0 20 -7.5 36t-18.5 27t-24 17t-23 6q-48 0 -67.5 24.5t-10.5 59.5l22 90
q-117 10 -229 57.5t-200.5 131t-142.5 202.5t-54 272q0 111 29 203.5t79 167t117 130.5t144.5 93.5t161 56.5t165.5 19q128 0 221.5 -24t153.5 -58z" />
    <glyph glyph-name="Egrave" unicode="&#xc8;" horiz-adv-x="926" 
d="M913 0h-794v1307h729v-215h-473v-328h393v-217h-393v-332h538v-215zM692 1507l-139 -59q-84 49 -156.5 103.5t-138.5 123.5q-15 16 -25 31.5t-10 28.5q0 12 12 30.5t29.5 35.5t36.5 29.5t33 12.5q12 0 32.5 -11.5t34.5 -31.5q29 -41 65 -82t74.5 -79t77.5 -72t74 -60z
" />
    <glyph glyph-name="Eacute" unicode="&#xc9;" horiz-adv-x="926" 
d="M913 0h-794v1307h729v-215h-473v-328h393v-217h-393v-332h538v-215zM797 1739q0 -11 -10 -26t-25 -32q-68 -71 -141 -126.5t-158 -106.5l-127 55q35 28 74 62.5t77.5 73.5t74.5 80.5t65 82.5q14 20 32.5 30.5t30.5 10.5t30.5 -12t35.5 -28.5t29 -34.5t12 -29z" />
    <glyph glyph-name="Ecircumflex" unicode="&#xca;" horiz-adv-x="926" 
d="M913 0h-794v1307h729v-215h-473v-328h393v-217h-393v-332h538v-215zM866 1507l-139 -59q-60 35 -119 75t-110 85q-51 -44 -105 -84.5t-114 -75.5l-129 57q34 26 73 60.5t77.5 73t74.5 79.5t65 82q14 19 33 31t35 12q15 0 34 -11.5t33 -31.5q29 -41 65 -82t74.5 -79
t77.5 -72t74 -60z" />
    <glyph glyph-name="Edieresis" unicode="&#xcb;" horiz-adv-x="926" 
d="M913 0h-794v1307h729v-215h-473v-328h393v-217h-393v-332h538v-215zM791 1569q0 -14 -13 -34.5t-32 -40t-40 -33t-36 -13.5t-36 13.5t-40 33t-32 40t-13 34.5q0 15 13 36.5t32 40.5t40 32.5t36 13.5t36 -13.5t40 -32.5t32 -40.5t13 -36.5zM451 1569q0 -14 -13 -34.5
t-32 -40t-40 -33t-36 -13.5q-14 0 -34.5 13.5t-40 33t-33 40t-13.5 34.5q0 15 13.5 36.5t33 40.5t40 32.5t34.5 13.5q15 0 36 -13.5t40 -32.5t32 -40.5t13 -36.5z" />
    <glyph glyph-name="Igrave" unicode="&#xcc;" horiz-adv-x="539" 
d="M397 0h-258v1307h258v-1307zM461 1507l-139 -59q-84 49 -156.5 103.5t-138.5 123.5q-16 16 -25.5 31.5t-9.5 28.5q0 12 12 30.5t29.5 35.5t36 29.5t32.5 12.5q13 0 33.5 -11.5t34.5 -31.5q29 -41 65 -82t74.5 -79t77.5 -72t74 -60z" />
    <glyph glyph-name="Iacute" unicode="&#xcd;" horiz-adv-x="539" 
d="M397 0h-258v1307h258v-1307zM545 1739q0 -11 -10 -26t-25 -32q-68 -71 -141 -126.5t-158 -106.5l-127 55q35 28 74 62.5t77.5 73.5t74.5 80.5t65 82.5q14 20 32.5 30.5t30.5 10.5t30.5 -12t35.5 -28.5t29 -34.5t12 -29z" />
    <glyph glyph-name="Icircumflex" unicode="&#xce;" horiz-adv-x="539" 
d="M397 0h-258v1307h258v-1307zM635 1507l-139 -59q-60 35 -119.5 75t-110.5 85q-51 -44 -105 -84.5t-114 -75.5l-129 57q34 26 73 60.5t77.5 73t75 79.5t65.5 82q14 19 33 31t34 12q16 0 35 -11.5t33 -31.5q29 -41 65 -82t74.5 -79t77.5 -72t74 -60z" />
    <glyph glyph-name="Idieresis" unicode="&#xcf;" horiz-adv-x="539" 
d="M397 0h-258v1307h258v-1307zM561 1569q0 -14 -13 -34.5t-32 -40t-40 -33t-36 -13.5t-36 13.5t-40 33t-32 40t-13 34.5q0 15 13 36.5t32 40.5t40 32.5t36 13.5t36 -13.5t40 -32.5t32 -40.5t13 -36.5zM221 1569q0 -14 -13 -34.5t-32 -40t-40 -33t-36 -13.5
q-14 0 -34.5 13.5t-39.5 33t-32.5 40t-13.5 34.5q0 15 13.5 36.5t32.5 40.5t39.5 32.5t34.5 13.5q15 0 36 -13.5t40 -32.5t32 -40.5t13 -36.5z" />
    <glyph glyph-name="Eth" unicode="&#xd0;" horiz-adv-x="1372" 
d="M1298 653q0 -155 -57.5 -276.5t-154.5 -205t-224 -127.5t-266 -44h-422v563h-156v187h156v557h422q139 0 266 -44t224 -128t154.5 -205.5t57.5 -276.5zM1044 651q0 112 -38 195.5t-103.5 138.5t-153 82t-186.5 27h-135v-344h229l-32 -187h-197v-354h135q99 0 186.5 27
t153 82t103.5 138t38 195z" />
    <glyph glyph-name="Ntilde" unicode="&#xd1;" horiz-adv-x="1438" 
d="M1319 -20h-111l-563 614q-35 37 -70.5 77.5t-70.5 81.5t-68.5 80.5t-64.5 75.5l-4 -2q3 -80 3.5 -156.5t0.5 -144.5v-606h-252v1307h198l504 -551q26 -29 58 -64t65 -73t65 -75.5t58 -70.5l4 2q-3 68 -3.5 139.5t-0.5 137.5v555h252v-1327zM1110 1757q-13 -24 -32.5 -53
t-42.5 -59.5t-48 -59t-50 -51t-48 -36t-41 -13.5q-26 0 -56.5 15t-61 33t-57 33t-44.5 15q-16 0 -35.5 -14t-38.5 -34t-36.5 -42t-29.5 -39l-139 61q13 24 33 53.5t43 59.5t48.5 59t50.5 51.5t48 36t41 13.5q25 0 56 -15t61 -33t56.5 -33t43.5 -15q16 0 35.5 14t38.5 34
t36.5 42t29.5 39z" />
    <glyph glyph-name="Ograve" unicode="&#xd2;" 
d="M1470 655q0 -106 -27 -197.5t-75 -167t-114 -134.5t-143.5 -100t-164 -62t-174.5 -21q-89 0 -175 21t-163.5 62t-143.5 100t-114 134.5t-75 167.5t-27 197t27 196t75 167t114 134.5t143.5 99.5t164 62t174.5 21t174.5 -21t164 -62t143.5 -99.5t114 -134.5t75 -167
t27 -196zM1208 651q0 106 -37.5 190.5t-99 143t-140 90t-159.5 31.5q-82 0 -160.5 -31t-139.5 -89.5t-98.5 -143t-37.5 -191.5q0 -106 37.5 -190.5t98.5 -143.5t139.5 -90.5t160.5 -31.5q81 0 159 31.5t139.5 90t99.5 143t38 191.5zM961 1507l-140 -59q-83 49 -156 103.5
t-139 123.5q-15 16 -24.5 31.5t-9.5 28.5q0 12 12 30.5t29 35.5t36 29.5t33 12.5q12 0 33 -11.5t35 -31.5q29 -41 65 -82t74 -79t77 -72t75 -60z" />
    <glyph glyph-name="Oacute" unicode="&#xd3;" 
d="M1470 655q0 -106 -27 -197.5t-75 -167t-114 -134.5t-143.5 -100t-164 -62t-174.5 -21q-89 0 -175 21t-163.5 62t-143.5 100t-114 134.5t-75 167.5t-27 197t27 196t75 167t114 134.5t143.5 99.5t164 62t174.5 21t174.5 -21t164 -62t143.5 -99.5t114 -134.5t75 -167
t27 -196zM1208 651q0 106 -37.5 190.5t-99 143t-140 90t-159.5 31.5q-82 0 -160.5 -31t-139.5 -89.5t-98.5 -143t-37.5 -191.5q0 -106 37.5 -190.5t98.5 -143.5t139.5 -90.5t160.5 -31.5q81 0 159 31.5t139.5 90t99.5 143t38 191.5zM1038 1739q0 -11 -9.5 -26t-24.5 -32
q-69 -71 -141.5 -126.5t-157.5 -106.5l-127 55q35 28 74 62.5t77.5 73.5t74 80.5t64.5 82.5q14 20 32.5 30.5t31.5 10.5q12 0 30.5 -12t35 -28.5t28.5 -34.5t12 -29z" />
    <glyph glyph-name="Ocircumflex" unicode="&#xd4;" 
d="M1470 655q0 -106 -27 -197.5t-75 -167t-114 -134.5t-143.5 -100t-164 -62t-174.5 -21q-89 0 -175 21t-163.5 62t-143.5 100t-114 134.5t-75 167.5t-27 197t27 196t75 167t114 134.5t143.5 99.5t164 62t174.5 21t174.5 -21t164 -62t143.5 -99.5t114 -134.5t75 -167
t27 -196zM1208 651q0 106 -37.5 190.5t-99 143t-140 90t-159.5 31.5q-82 0 -160.5 -31t-139.5 -89.5t-98.5 -143t-37.5 -191.5q0 -106 37.5 -190.5t98.5 -143.5t139.5 -90.5t160.5 -31.5q81 0 159 31.5t139.5 90t99.5 143t38 191.5zM1126 1507l-139 -59q-60 35 -119 75
t-110 85q-51 -44 -105 -84.5t-114 -75.5l-129 57q34 26 73 60.5t77.5 73t74.5 79.5t65 82q14 19 33.5 31t34.5 12t34.5 -11.5t33.5 -31.5q29 -41 64.5 -82t74 -79t77.5 -72t74 -60z" />
    <glyph glyph-name="Otilde" unicode="&#xd5;" 
d="M1470 655q0 -106 -27 -197.5t-75 -167t-114 -134.5t-143.5 -100t-164 -62t-174.5 -21q-89 0 -175 21t-163.5 62t-143.5 100t-114 134.5t-75 167.5t-27 197t27 196t75 167t114 134.5t143.5 99.5t164 62t174.5 21t174.5 -21t164 -62t143.5 -99.5t114 -134.5t75 -167
t27 -196zM1208 651q0 106 -37.5 190.5t-99 143t-140 90t-159.5 31.5q-82 0 -160.5 -31t-139.5 -89.5t-98.5 -143t-37.5 -191.5q0 -106 37.5 -190.5t98.5 -143.5t139.5 -90.5t160.5 -31.5q81 0 159 31.5t139.5 90t99.5 143t38 191.5zM1167 1757q-13 -24 -32.5 -53
t-42.5 -59.5t-48 -59t-50 -51t-48 -36t-41 -13.5q-25 0 -56 15t-61 33t-57 33t-45 15q-16 0 -35 -14t-38 -34t-36.5 -42t-29.5 -39l-139 61q13 24 32.5 53.5t43 59.5t49 59t50 51.5t48 36t41.5 13.5q25 0 56 -15t61 -33t56.5 -33t43.5 -15q16 0 35 14t38 34t36.5 42t29.5 39
z" />
    <glyph glyph-name="Odieresis" unicode="&#xd6;" 
d="M1470 655q0 -106 -27 -197.5t-75 -167t-114 -134.5t-143.5 -100t-164 -62t-174.5 -21q-89 0 -175 21t-163.5 62t-143.5 100t-114 134.5t-75 167.5t-27 197t27 196t75 167t114 134.5t143.5 99.5t164 62t174.5 21t174.5 -21t164 -62t143.5 -99.5t114 -134.5t75 -167
t27 -196zM1208 651q0 106 -37.5 190.5t-99 143t-140 90t-159.5 31.5q-82 0 -160.5 -31t-139.5 -89.5t-98.5 -143t-37.5 -191.5q0 -106 37.5 -190.5t98.5 -143.5t139.5 -90.5t160.5 -31.5q81 0 159 31.5t139.5 90t99.5 143t38 191.5zM1061 1569q0 -14 -13 -34.5t-32 -40
t-40 -33t-36 -13.5t-36 13.5t-40 33t-32 40t-13 34.5q0 15 13 36.5t32 40.5t40 32.5t36 13.5t36 -13.5t40 -32.5t32 -40.5t13 -36.5zM721 1569q0 -14 -13 -34.5t-32 -40t-40 -33t-36 -13.5q-14 0 -34.5 13.5t-40 33t-33 40t-13.5 34.5q0 15 13.5 36.5t33 40.5t40 32.5
t34.5 13.5q15 0 36 -13.5t40 -32.5t32 -40.5t13 -36.5z" />
    <glyph glyph-name="multiply" unicode="&#xd7;" horiz-adv-x="930" 
d="M813 334l-121 -121l-225 223l-223 -225l-123 123l225 225l-223 223l121 123l223 -225l223 223l121 -121l-221 -223z" />
    <glyph glyph-name="Oslash" unicode="&#xd8;" 
d="M1470 655q0 -106 -27 -197.5t-75 -167t-114 -134.5t-143.5 -100t-164 -62t-174.5 -21q-100 0 -196 27t-181 78l-114 -144l-107 89l111 137q-48 43 -86.5 96.5t-66.5 116t-43 133.5t-15 149q0 105 27 196t75 167t114 134.5t143.5 99.5t164 62t174.5 21q100 0 196 -26
t181 -78l117 141l104 -88l-110 -137q47 -44 86 -97t66.5 -115t42.5 -132t15 -148zM1221 651q0 96 -30 174.5t-81 137.5l-575 -713q54 -34 114.5 -51t122.5 -17q84 0 164.5 32.5t143.5 93t102 147.5t39 196zM1006 1051q-110 69 -234 69q-84 0 -164.5 -32.5t-143.5 -93
t-101.5 -147.5t-38.5 -196q0 -96 28.5 -174t77.5 -137z" />
    <glyph glyph-name="Ugrave" unicode="&#xd9;" horiz-adv-x="1337" 
d="M1219 465q0 -116 -42.5 -207.5t-116.5 -154.5t-174 -96.5t-216 -33.5t-217 33.5t-175 96.5t-116.5 154.5t-42.5 207.5v842h258v-820q0 -65 19.5 -118.5t57 -91t92.5 -58t126 -20.5q70 0 125 20t93 57.5t57.5 90.5t19.5 118v822h252v-842zM872 1507l-139 -59
q-83 49 -156 103.5t-139 123.5q-15 16 -25 31.5t-10 28.5q0 12 12 30.5t29.5 35.5t36.5 29.5t33 12.5q12 0 33 -11.5t35 -31.5q29 -41 64.5 -82t74 -79t77.5 -72t74 -60z" />
    <glyph glyph-name="Uacute" unicode="&#xda;" horiz-adv-x="1337" 
d="M1219 465q0 -116 -42.5 -207.5t-116.5 -154.5t-174 -96.5t-216 -33.5t-217 33.5t-175 96.5t-116.5 154.5t-42.5 207.5v842h258v-820q0 -65 19.5 -118.5t57 -91t92.5 -58t126 -20.5q70 0 125 20t93 57.5t57.5 90.5t19.5 118v822h252v-842zM946 1739q0 -11 -9.5 -26
t-25.5 -32q-68 -71 -141 -126.5t-158 -106.5l-127 55q36 28 75 62.5t77 73.5t74 80.5t65 82.5q14 20 32.5 30.5t31.5 10.5q12 0 30 -12t35 -28.5t29 -34.5t12 -29z" />
    <glyph glyph-name="Ucircumflex" unicode="&#xdb;" horiz-adv-x="1337" 
d="M1219 465q0 -116 -42.5 -207.5t-116.5 -154.5t-174 -96.5t-216 -33.5t-217 33.5t-175 96.5t-116.5 154.5t-42.5 207.5v842h258v-820q0 -65 19.5 -118.5t57 -91t92.5 -58t126 -20.5q70 0 125 20t93 57.5t57.5 90.5t19.5 118v822h252v-842zM1036 1507l-139 -59
q-60 35 -119 75t-110 85q-51 -44 -105 -84.5t-114 -75.5l-130 57q35 26 74 60.5t77.5 73t74.5 79.5t65 82q14 19 33 31t35 12q15 0 34 -11.5t33 -31.5q29 -41 65 -82t74.5 -79t77.5 -72t74 -60z" />
    <glyph glyph-name="Udieresis" unicode="&#xdc;" horiz-adv-x="1337" 
d="M1219 465q0 -116 -42.5 -207.5t-116.5 -154.5t-174 -96.5t-216 -33.5t-217 33.5t-175 96.5t-116.5 154.5t-42.5 207.5v842h258v-820q0 -65 19.5 -118.5t57 -91t92.5 -58t126 -20.5q70 0 125 20t93 57.5t57.5 90.5t19.5 118v822h252v-842zM975 1569q0 -14 -13 -34.5
t-32 -40t-40 -33t-36 -13.5t-36 13.5t-40 33t-32 40t-13 34.5q0 15 13 36.5t32 40.5t40 32.5t36 13.5t36 -13.5t40 -32.5t32 -40.5t13 -36.5zM635 1569q0 -14 -13 -34.5t-32 -40t-40 -33t-36 -13.5q-14 0 -34.5 13.5t-40 33t-33 40t-13.5 34.5q0 15 13.5 36.5t33 40.5
t40 32.5t34.5 13.5q15 0 36 -13.5t40 -32.5t32 -40.5t13 -36.5z" />
    <glyph glyph-name="Yacute" unicode="&#xdd;" horiz-adv-x="1300" 
d="M1270 1307l-494 -713v-594h-252v590l-493 717h278l240 -342q26 -38 55 -83t53 -87h5q24 42 54.5 89t55.5 81l238 342h260zM956 1739q0 -11 -9.5 -26t-24.5 -32q-69 -71 -141.5 -126.5t-157.5 -106.5l-127 55q35 28 74 62.5t77.5 73.5t74 80.5t64.5 82.5q14 20 33 30.5
t31 10.5t30.5 -12t35 -28.5t28.5 -34.5t12 -29z" />
    <glyph glyph-name="Thorn" unicode="&#xde;" horiz-adv-x="1028" 
d="M965 774q0 -92 -35 -163t-92 -119.5t-130.5 -73.5t-150.5 -25h-186v-393h-252v1307h252v-152h186q77 0 150.5 -24.5t130.5 -73t92 -119.5t35 -164zM711 774q0 44 -16.5 76.5t-43.5 53.5t-62.5 31.5t-72.5 10.5h-145v-344h145q37 0 72 10t62.5 31t44 53.5t16.5 77.5z" />
    <glyph glyph-name="germandbls" unicode="&#xdf;" horiz-adv-x="1241" 
d="M1178 264q0 -57 -21.5 -110t-65.5 -93t-110.5 -64t-155.5 -24q-88 0 -161.5 20.5t-122.5 51.5v209q54 -37 124 -62.5t148 -25.5q56 0 89.5 26t33.5 64q0 40 -29.5 66t-83.5 45q-69 23 -122.5 51.5t-89.5 65.5t-55 83t-19 105q0 57 21 104.5t57 83.5t84 58.5t102 27.5
q5 22 6.5 41t1.5 39q0 45 -15 86.5t-43.5 73.5t-70 51.5t-94.5 19.5q-85 0 -131.5 -58.5t-46.5 -170.5v-1028h-240v731h-150v197h150v119q0 102 29.5 179t83 128.5t128 77.5t164.5 26q107 0 194.5 -30t150 -89.5t97 -148t34.5 -205.5q0 -21 -2 -46t-5.5 -50.5t-8.5 -49.5
t-11 -44q-58 0 -104.5 -7.5t-79.5 -22t-50.5 -35.5t-17.5 -48q0 -37 27 -59.5t86 -40.5q74 -24 129.5 -54t92 -68.5t55 -86.5t18.5 -109z" />
    <glyph glyph-name="agrave" unicode="&#xe0;" horiz-adv-x="936" 
d="M922 113l-164 -144q-23 5 -45.5 16t-42 28t-35 39.5t-23.5 49.5q-16 -35 -41 -59t-57 -40t-69.5 -23t-77.5 -7q-65 0 -121 22.5t-97 62t-64.5 94t-23.5 118.5q0 65 25 117.5t67.5 91t99 61.5t120.5 29l202 19v45q0 52 -39 87.5t-124 35.5q-68 0 -137.5 -21t-120.5 -53
l-45 192q60 39 142.5 59.5t172.5 20.5q85 0 156 -21.5t122.5 -63.5t80 -105t28.5 -146v-339q0 -73 30.5 -112.5t80.5 -53.5zM575 334v82l-145 -13q-37 -3 -63 -15.5t-43 -31t-25 -41t-8 -45.5q0 -21 8 -40.5t23 -34.5t36.5 -24t47.5 -9q34 0 65 12.5t54 35t36.5 54
t13.5 70.5zM580 1120l-119 -49q-71 42 -133 88t-119 105q-12 14 -20.5 27t-8.5 24q0 10 10.5 26t25.5 30.5t31 25t27 10.5t28 -10t30 -27q24 -35 54.5 -69.5t63.5 -67.5t66.5 -62t63.5 -51z" />
    <glyph glyph-name="aacute" unicode="&#xe1;" horiz-adv-x="936" 
d="M922 113l-164 -144q-23 5 -45.5 16t-42 28t-35 39.5t-23.5 49.5q-16 -35 -41 -59t-57 -40t-69.5 -23t-77.5 -7q-65 0 -121 22.5t-97 62t-64.5 94t-23.5 118.5q0 65 25 117.5t67.5 91t99 61.5t120.5 29l202 19v45q0 52 -39 87.5t-124 35.5q-68 0 -137.5 -21t-120.5 -53
l-45 192q60 39 142.5 59.5t172.5 20.5q85 0 156 -21.5t122.5 -63.5t80 -105t28.5 -146v-339q0 -73 30.5 -112.5t80.5 -53.5zM575 334v82l-145 -13q-37 -3 -63 -15.5t-43 -31t-25 -41t-8 -45.5q0 -21 8 -40.5t23 -34.5t36.5 -24t47.5 -9q34 0 65 12.5t54 35t36.5 54
t13.5 70.5zM682 1317q0 -8 -8 -20.5t-21 -26.5q-57 -60 -120 -108t-136 -91l-106 47q30 23 63 52.5t65.5 62.5t62.5 68.5t55 70.5q12 17 28 26t27 9t26.5 -10.5t29.5 -25t24 -29.5t10 -25z" />
    <glyph glyph-name="acircumflex" unicode="&#xe2;" horiz-adv-x="936" 
d="M922 113l-164 -144q-23 5 -45.5 16t-42 28t-35 39.5t-23.5 49.5q-16 -35 -41 -59t-57 -40t-69.5 -23t-77.5 -7q-65 0 -121 22.5t-97 62t-64.5 94t-23.5 118.5q0 65 25 117.5t67.5 91t99 61.5t120.5 29l202 19v45q0 52 -39 87.5t-124 35.5q-68 0 -137.5 -21t-120.5 -53
l-45 192q60 39 142.5 59.5t172.5 20.5q85 0 156 -21.5t122.5 -63.5t80 -105t28.5 -146v-339q0 -73 30.5 -112.5t80.5 -53.5zM575 334v82l-145 -13q-37 -3 -63 -15.5t-43 -31t-25 -41t-8 -45.5q0 -21 8 -40.5t23 -34.5t36.5 -24t47.5 -9q34 0 65 12.5t54 35t36.5 54
t13.5 70.5zM750 1122l-119 -51q-51 31 -101 64.5t-94 70.5q-86 -74 -186 -135l-111 49q30 22 63.5 51t66.5 62t63.5 67.5t54.5 69.5q12 17 28.5 27t28.5 10q13 0 30 -10t28 -27q24 -35 54.5 -69.5t63.5 -67t66.5 -61t63.5 -50.5z" />
    <glyph glyph-name="atilde" unicode="&#xe3;" horiz-adv-x="936" 
d="M922 113l-164 -144q-23 5 -45.5 16t-42 28t-35 39.5t-23.5 49.5q-16 -35 -41 -59t-57 -40t-69.5 -23t-77.5 -7q-65 0 -121 22.5t-97 62t-64.5 94t-23.5 118.5q0 65 25 117.5t67.5 91t99 61.5t120.5 29l202 19v45q0 52 -39 87.5t-124 35.5q-68 0 -137.5 -21t-120.5 -53
l-45 192q60 39 142.5 59.5t172.5 20.5q85 0 156 -21.5t122.5 -63.5t80 -105t28.5 -146v-339q0 -73 30.5 -112.5t80.5 -53.5zM575 334v82l-145 -13q-37 -3 -63 -15.5t-43 -31t-25 -41t-8 -45.5q0 -21 8 -40.5t23 -34.5t36.5 -24t47.5 -9q34 0 65 12.5t54 35t36.5 54
t13.5 70.5zM780 1333q-17 -30 -45 -70t-59.5 -75.5t-63 -60.5t-55.5 -25q-21 0 -47 13t-52 28t-49 28t-38 13q-13 0 -29 -12t-32 -29t-30.5 -35.5t-25.5 -32.5l-119 51q17 30 45.5 70t60.5 76t63.5 61t55.5 25q22 0 48 -13t51.5 -28t48 -28t37.5 -13q13 0 29 12t32.5 29.5
t31 36t24.5 32.5z" />
    <glyph glyph-name="adieresis" unicode="&#xe4;" horiz-adv-x="936" 
d="M922 113l-164 -144q-23 5 -45.5 16t-42 28t-35 39.5t-23.5 49.5q-16 -35 -41 -59t-57 -40t-69.5 -23t-77.5 -7q-65 0 -121 22.5t-97 62t-64.5 94t-23.5 118.5q0 65 25 117.5t67.5 91t99 61.5t120.5 29l202 19v45q0 52 -39 87.5t-124 35.5q-68 0 -137.5 -21t-120.5 -53
l-45 192q60 39 142.5 59.5t172.5 20.5q85 0 156 -21.5t122.5 -63.5t80 -105t28.5 -146v-339q0 -73 30.5 -112.5t80.5 -53.5zM575 334v82l-145 -13q-37 -3 -63 -15.5t-43 -31t-25 -41t-8 -45.5q0 -21 8 -40.5t23 -34.5t36.5 -24t47.5 -9q34 0 65 12.5t54 35t36.5 54
t13.5 70.5zM688 1174q0 -12 -11 -29.5t-27 -34t-33.5 -28t-30.5 -11.5t-31 11.5t-34 28t-27 34t-11 29.5q0 13 11 30.5t27 34t34 28t31 11.5t30.5 -11.5t33.5 -28t27 -34t11 -30.5zM399 1174q0 -12 -11 -29.5t-27 -34t-33.5 -28t-30.5 -11.5q-12 0 -29 11.5t-33.5 28t-28 34
t-11.5 29.5q0 13 11.5 30.5t28 34t33.5 28t29 11.5q13 0 30.5 -11.5t33.5 -28t27 -34t11 -30.5z" />
    <glyph glyph-name="aring" unicode="&#xe5;" horiz-adv-x="936" 
d="M922 113l-164 -144q-23 5 -45.5 16t-42 28t-35 39.5t-23.5 49.5q-16 -35 -41 -59t-57 -40t-69.5 -23t-77.5 -7q-65 0 -121 22.5t-97 62t-64.5 94t-23.5 118.5q0 65 25 117.5t67.5 91t99 61.5t120.5 29l202 19v45q0 52 -39 87.5t-124 35.5q-68 0 -137.5 -21t-120.5 -53
l-45 192q60 39 142.5 59.5t172.5 20.5q85 0 156 -21.5t122.5 -63.5t80 -105t28.5 -146v-339q0 -73 30.5 -112.5t80.5 -53.5zM575 334v82l-145 -13q-37 -3 -63 -15.5t-43 -31t-25 -41t-8 -45.5q0 -21 8 -40.5t23 -34.5t36.5 -24t47.5 -9q34 0 65 12.5t54 35t36.5 54
t13.5 70.5zM637 1255q0 -42 -16.5 -79.5t-45 -65.5t-66.5 -44.5t-81 -16.5q-42 0 -80 16.5t-66.5 44.5t-45.5 65.5t-17 79.5t17 80t45.5 66t66.5 44.5t80 16.5q43 0 81 -16.5t66.5 -44.5t45 -66t16.5 -80zM510 1255q0 39 -23.5 63.5t-58.5 24.5q-34 0 -57 -24.5t-23 -63.5
q0 -38 23 -62t57 -24q35 0 58.5 24t23.5 62z" />
    <glyph glyph-name="ae" unicode="&#xe6;" horiz-adv-x="1485" 
d="M1423 592q0 -19 -1.5 -38.5t-4.5 -35.5l-121 -119h-505q4 -36 25 -74.5t59 -71t92.5 -53t124.5 -20.5q81 0 148.5 21.5t115.5 52.5l-25 -221q-51 -26 -122 -43t-162 -17q-54 0 -106 10.5t-98.5 30.5t-86.5 50t-70 69q-29 -45 -65 -76t-77 -49.5t-85.5 -26.5t-91.5 -8
q-65 0 -121 22.5t-97 62t-64.5 94t-23.5 118.5q0 65 25 117.5t67.5 91t99 61.5t120.5 29l188 19q3 17 8.5 34t12.5 31q-8 44 -49 73.5t-121 29.5q-68 0 -137.5 -21t-120.5 -53l-45 192q60 39 142.5 59.5t172.5 20.5q96 0 169 -29.5t120 -90.5q63 63 140 91.5t161 28.5
q97 0 173 -31t128.5 -82t80 -116t27.5 -133zM1188 598q0 29 -12 58.5t-34 53t-53 38t-69 14.5t-75 -14t-67.5 -39t-52 -59.5t-28.5 -74.5h389q2 7 2 12v11zM580 291q-11 29 -17.5 60t-9.5 63l-123 -11q-37 -3 -63 -15.5t-43 -31t-25 -41t-8 -45.5q0 -21 8.5 -40.5t24 -34.5
t37 -24t47.5 -9q57 0 105 33.5t67 95.5z" />
    <glyph glyph-name="ccedilla" unicode="&#xe7;" horiz-adv-x="922" 
d="M858 874l-45 -208q-54 35 -107.5 49t-113.5 14q-56 0 -106.5 -19t-88.5 -54.5t-61 -85.5t-23 -111t23 -111t61.5 -85.5t90 -55t108.5 -19.5q62 0 114 13t109 41l-24 -213q-45 -20 -99 -31.5t-114 -13.5l-7 -33q31 -2 61 -15t54 -36.5t38.5 -55.5t14.5 -71
q0 -45 -17 -79.5t-44.5 -57.5t-62.5 -34.5t-72 -11.5q-40 0 -74.5 10.5t-60.5 28.5l20 101q23 -17 52.5 -26t60.5 -9t53.5 21t22.5 53q0 17 -6.5 30t-16 22t-21 14t-20.5 5q-40 0 -56.5 21.5t-8.5 50.5l18 74q-89 8 -169.5 44.5t-142.5 98t-98.5 146t-36.5 188.5
q0 113 42 202t111.5 151t158.5 95t184 33q91 0 165 -17.5t134 -52.5z" />
    <glyph glyph-name="egrave" unicode="&#xe8;" horiz-adv-x="1006" 
d="M942 592q0 -19 -1.5 -38.5t-4.5 -35.5l-119 -119h-506q3 -36 24 -74.5t59.5 -71t93 -53t124.5 -20.5q82 0 149.5 21t115.5 53l-25 -221q-53 -26 -123.5 -43t-161.5 -17q-103 0 -195 35.5t-161 100t-109.5 155t-40.5 201.5q0 116 40 207t106 153.5t151.5 95.5t176.5 33
q96 0 171.5 -31t128 -82t80 -116t27.5 -133zM709 598q0 29 -12 58.5t-34.5 53t-54 38t-69.5 14.5t-74.5 -14t-66.5 -39t-51.5 -59.5t-29.5 -74.5h390q0 7 1 12t1 11zM696 1120l-118 -49q-72 42 -133.5 88t-118.5 105q-13 14 -21 27t-8 24q0 10 10.5 26t25 30.5t30.5 25
t28 10.5q11 0 28 -10t30 -27q24 -35 54.5 -69.5t63.5 -67.5t66 -62t63 -51z" />
    <glyph glyph-name="eacute" unicode="&#xe9;" horiz-adv-x="1006" 
d="M942 592q0 -19 -1.5 -38.5t-4.5 -35.5l-119 -119h-506q3 -36 24 -74.5t59.5 -71t93 -53t124.5 -20.5q82 0 149.5 21t115.5 53l-25 -221q-53 -26 -123.5 -43t-161.5 -17q-103 0 -195 35.5t-161 100t-109.5 155t-40.5 201.5q0 116 40 207t106 153.5t151.5 95.5t176.5 33
q96 0 171.5 -31t128 -82t80 -116t27.5 -133zM709 598q0 29 -12 58.5t-34.5 53t-54 38t-69.5 14.5t-74.5 -14t-66.5 -39t-51.5 -59.5t-29.5 -74.5h390q0 7 1 12t1 11zM776 1317q0 -8 -8.5 -20.5t-22.5 -26.5q-57 -62 -119 -109t-134 -90l-107 47q30 23 62.5 52.5t65 62.5
t62.5 68.5t56 70.5q11 16 27.5 25.5t27.5 9.5q10 0 25.5 -10.5t29.5 -25t24.5 -29.5t10.5 -25z" />
    <glyph glyph-name="ecircumflex" unicode="&#xea;" horiz-adv-x="1006" 
d="M942 592q0 -19 -1.5 -38.5t-4.5 -35.5l-119 -119h-506q3 -36 24 -74.5t59.5 -71t93 -53t124.5 -20.5q82 0 149.5 21t115.5 53l-25 -221q-53 -26 -123.5 -43t-161.5 -17q-103 0 -195 35.5t-161 100t-109.5 155t-40.5 201.5q0 116 40 207t106 153.5t151.5 95.5t176.5 33
q96 0 171.5 -31t128 -82t80 -116t27.5 -133zM709 598q0 29 -12 58.5t-34.5 53t-54 38t-69.5 14.5t-74.5 -14t-66.5 -39t-51.5 -59.5t-29.5 -74.5h390q0 7 1 12t1 11zM838 1122l-119 -51q-50 31 -100.5 64.5t-94.5 70.5q-43 -37 -89 -70.5t-97 -64.5l-109 49q29 22 62 51
t66 62t63.5 67.5t54.5 69.5q13 17 29 27t28 10q14 0 30.5 -10t29.5 -27q24 -35 54.5 -69.5t63.5 -67t66 -61t62 -50.5z" />
    <glyph glyph-name="edieresis" unicode="&#xeb;" horiz-adv-x="1006" 
d="M942 592q0 -19 -1.5 -38.5t-4.5 -35.5l-119 -119h-506q3 -36 24 -74.5t59.5 -71t93 -53t124.5 -20.5q82 0 149.5 21t115.5 53l-25 -221q-53 -26 -123.5 -43t-161.5 -17q-103 0 -195 35.5t-161 100t-109.5 155t-40.5 201.5q0 116 40 207t106 153.5t151.5 95.5t176.5 33
q96 0 171.5 -31t128 -82t80 -116t27.5 -133zM709 598q0 29 -12 58.5t-34.5 53t-54 38t-69.5 14.5t-74.5 -14t-66.5 -39t-51.5 -59.5t-29.5 -74.5h390q0 7 1 12t1 11zM768 1174q0 -12 -11 -29.5t-27 -34t-33.5 -28t-30.5 -11.5t-31 11.5t-34 28t-27 34t-11 29.5q0 13 11 30.5
t27 34t34 28t31 11.5t30.5 -11.5t33.5 -28t27 -34t11 -30.5zM479 1174q0 -12 -11 -29.5t-27 -34t-33.5 -28t-30.5 -11.5q-12 0 -30 11.5t-34.5 28t-28.5 34t-12 29.5q0 13 12 30.5t28.5 34t34.5 28t30 11.5q13 0 30.5 -11.5t33.5 -28t27 -34t11 -30.5z" />
    <glyph glyph-name="igrave" unicode="&#xec;" horiz-adv-x="477" 
d="M362 0h-247v928h247v-928zM399 1120l-118 -49q-72 42 -132.5 88t-117.5 105q-13 14 -21 27t-8 24q0 10 10.5 26t25 30.5t30 25t26.5 10.5q13 0 29 -10t29 -27q24 -35 55 -69.5t64 -67.5t66 -62t62 -51z" />
    <glyph glyph-name="iacute" unicode="&#xed;" horiz-adv-x="477" 
d="M362 0h-247v928h247v-928zM479 1317q0 -8 -8 -20.5t-22 -26.5q-57 -62 -119.5 -109t-134.5 -90l-107 47q30 23 62.5 52.5t65 62.5t62.5 68.5t56 70.5q11 16 27.5 25.5t27.5 9.5q10 0 25.5 -10.5t29.5 -25t24.5 -29.5t10.5 -25z" />
    <glyph glyph-name="icircumflex" unicode="&#xee;" horiz-adv-x="477" 
d="M362 0h-247v928h247v-928zM549 1122l-119 -51q-51 31 -101 64.5t-93 70.5q-44 -37 -90 -70.5t-97 -64.5l-110 49q30 22 63 51t66 62t63.5 67.5t54.5 69.5q11 17 28 27t30 10q12 0 28.5 -10t28.5 -27q25 -35 55.5 -69.5t63.5 -67t66 -61t63 -50.5z" />
    <glyph glyph-name="idieresis" unicode="&#xef;" horiz-adv-x="477" 
d="M362 0h-247v928h247v-928zM487 1174q0 -12 -11 -29.5t-27 -34t-33.5 -28t-30.5 -11.5t-30.5 11.5t-33.5 28t-27 34t-11 29.5q0 13 11 30.5t27 34t33.5 28t30.5 11.5t30.5 -11.5t33.5 -28t27 -34t11 -30.5zM199 1174q0 -12 -11 -29.5t-27 -34t-34 -28t-31 -11.5
q-12 0 -29.5 11.5t-33.5 28t-27.5 34t-11.5 29.5q0 13 11.5 30.5t27.5 34t33.5 28t29.5 11.5q13 0 31 -11.5t34 -28t27 -34t11 -30.5z" />
    <glyph glyph-name="eth" unicode="&#xf0;" horiz-adv-x="1042" 
d="M969 434q0 -107 -34.5 -192t-95.5 -145t-143.5 -92t-179.5 -32q-100 0 -183 33.5t-143 92.5t-93.5 139t-33.5 172q0 74 22 139t61 118t91.5 92t114.5 62q47 17 103.5 33.5t107.5 26.5l-84 198l-166 -67l-69 174l164 67l-86 205h256l49 -119l141 58l70 -174l-140 -58
l232 -549q7 -18 14.5 -40.5t12.5 -46.5t8.5 -48.5t3.5 -46.5zM727 430q0 24 -9 57t-22 68.5t-28 69t-27 59.5q-35 -5 -79.5 -16t-84.5 -25q-83 -29 -129.5 -87.5t-46.5 -143.5q0 -48 16 -89t44.5 -71t67 -47t83.5 -17t84.5 17t68.5 48.5t45.5 76.5t16.5 100z" />
    <glyph glyph-name="ntilde" unicode="&#xf1;" horiz-adv-x="1053" 
d="M950 0h-243v584q0 31 -10 59.5t-31.5 50.5t-55 35.5t-80.5 13.5q-44 0 -78.5 -13.5t-58 -36t-35.5 -52t-12 -61.5v-580h-244v928h222v-123h2q29 68 99 107.5t187 39.5q76 0 138.5 -22t106.5 -63.5t68.5 -101t24.5 -134.5v-631zM860 1333q-11 -20 -27.5 -45t-36 -50.5
t-41 -50t-42.5 -43.5t-40.5 -30.5t-35.5 -11.5q-21 0 -47.5 13t-52.5 28t-49 28t-37 13q-13 0 -29.5 -12t-33 -29t-31.5 -35.5t-25 -32.5l-117 51q17 30 45 70t59.5 76t63 61t55.5 25q22 0 49 -13t52.5 -28t47.5 -28t36 -13q13 0 29.5 12t32.5 29.5t30.5 36t25.5 32.5z" />
    <glyph glyph-name="ograve" unicode="&#xf2;" horiz-adv-x="1124" 
d="M1061 463q0 -109 -38.5 -199.5t-106 -155t-158 -100t-195.5 -35.5q-104 0 -195.5 35.5t-159 100t-106.5 155t-39 199.5q0 110 39 200.5t106.5 155t159 100t195.5 35.5t194.5 -35.5t158 -100t106.5 -155t39 -200.5zM819 459q0 62 -20.5 113.5t-56 88.5t-82 57.5
t-97.5 20.5t-97.5 -20.5t-82 -57.5t-56 -88.5t-20.5 -113.5t20.5 -113t56 -88t82 -57.5t97.5 -20.5t97.5 20.5t82 57.5t56 88t20.5 113zM721 1120l-119 -49q-71 42 -132.5 88t-117.5 105q-14 14 -22 27t-8 24q0 10 10.5 26t25 30.5t30.5 25t28 10.5q11 0 28 -10t29 -27
q25 -35 55.5 -69.5t63.5 -67.5t66 -62t63 -51z" />
    <glyph glyph-name="oacute" unicode="&#xf3;" horiz-adv-x="1124" 
d="M1061 463q0 -109 -38.5 -199.5t-106 -155t-158 -100t-195.5 -35.5q-104 0 -195.5 35.5t-159 100t-106.5 155t-39 199.5q0 110 39 200.5t106.5 155t159 100t195.5 35.5t194.5 -35.5t158 -100t106.5 -155t39 -200.5zM819 459q0 62 -20.5 113.5t-56 88.5t-82 57.5
t-97.5 20.5t-97.5 -20.5t-82 -57.5t-56 -88.5t-20.5 -113.5t20.5 -113t56 -88t82 -57.5t97.5 -20.5t97.5 20.5t82 57.5t56 88t20.5 113zM801 1317q0 -8 -8.5 -20.5t-20.5 -26.5q-57 -62 -120 -109t-134 -90l-108 47q30 23 62.5 52.5t65.5 62.5t63.5 68.5t55.5 70.5
q11 16 27 25.5t27 9.5q10 0 25.5 -10.5t30 -25t24.5 -29.5t10 -25z" />
    <glyph glyph-name="ocircumflex" unicode="&#xf4;" horiz-adv-x="1124" 
d="M1061 463q0 -109 -38.5 -199.5t-106 -155t-158 -100t-195.5 -35.5q-104 0 -195.5 35.5t-159 100t-106.5 155t-39 199.5q0 110 39 200.5t106.5 155t159 100t195.5 35.5t194.5 -35.5t158 -100t106.5 -155t39 -200.5zM819 459q0 62 -20.5 113.5t-56 88.5t-82 57.5
t-97.5 20.5t-97.5 -20.5t-82 -57.5t-56 -88.5t-20.5 -113.5t20.5 -113t56 -88t82 -57.5t97.5 -20.5t97.5 20.5t82 57.5t56 88t20.5 113zM868 1122l-116 -51q-51 31 -101.5 64.5t-95.5 70.5q-43 -37 -89 -70.5t-95 -64.5l-111 49q30 22 63 51t66 62t63.5 67.5t55.5 69.5
q12 17 27.5 27t29.5 10q13 0 29 -10t29 -27q24 -35 54.5 -69.5t63.5 -67t65.5 -61t61.5 -50.5z" />
    <glyph glyph-name="otilde" unicode="&#xf5;" horiz-adv-x="1124" 
d="M1061 463q0 -109 -38.5 -199.5t-106 -155t-158 -100t-195.5 -35.5q-104 0 -195.5 35.5t-159 100t-106.5 155t-39 199.5q0 110 39 200.5t106.5 155t159 100t195.5 35.5t194.5 -35.5t158 -100t106.5 -155t39 -200.5zM819 459q0 62 -20.5 113.5t-56 88.5t-82 57.5
t-97.5 20.5t-97.5 -20.5t-82 -57.5t-56 -88.5t-20.5 -113.5t20.5 -113t56 -88t82 -57.5t97.5 -20.5t97.5 20.5t82 57.5t56 88t20.5 113zM895 1333q-17 -30 -45 -70t-59.5 -75.5t-62.5 -60.5t-54 -25t-49.5 13t-52 28t-48 28t-37.5 13q-14 0 -30 -12t-32 -29t-31 -35.5
t-25 -32.5l-119 51q17 30 45.5 70t60.5 76t63.5 61t55.5 25q21 0 47.5 -13t52 -28t48 -28t36.5 -13q13 0 29.5 12t33 29.5t31 36t25.5 32.5z" />
    <glyph glyph-name="odieresis" unicode="&#xf6;" horiz-adv-x="1124" 
d="M1061 463q0 -109 -38.5 -199.5t-106 -155t-158 -100t-195.5 -35.5q-104 0 -195.5 35.5t-159 100t-106.5 155t-39 199.5q0 110 39 200.5t106.5 155t159 100t195.5 35.5t194.5 -35.5t158 -100t106.5 -155t39 -200.5zM819 459q0 62 -20.5 113.5t-56 88.5t-82 57.5
t-97.5 20.5t-97.5 -20.5t-82 -57.5t-56 -88.5t-20.5 -113.5t20.5 -113t56 -88t82 -57.5t97.5 -20.5t97.5 20.5t82 57.5t56 88t20.5 113zM811 1174q0 -12 -11 -29.5t-27 -34t-33.5 -28t-30.5 -11.5t-31 11.5t-34 28t-27 34t-11 29.5q0 13 11 30.5t27 34t34 28t31 11.5
t30.5 -11.5t33.5 -28t27 -34t11 -30.5zM522 1174q0 -12 -11 -29.5t-27 -34t-33.5 -28t-30.5 -11.5q-12 0 -29.5 11.5t-34 28t-28 34t-11.5 29.5q0 13 11.5 30.5t28 34t34 28t29.5 11.5q13 0 30.5 -11.5t33.5 -28t27 -34t11 -30.5z" />
    <glyph glyph-name="divide" unicode="&#xf7;" horiz-adv-x="920" 
d="M584 856q0 -15 -14 -36.5t-33.5 -41t-41 -33.5t-36.5 -14t-36.5 14t-40.5 33.5t-32.5 41t-13.5 36.5t13.5 36t32.5 40.5t40.5 33t36.5 13.5t36.5 -13.5t41 -33t33.5 -40.5t14 -36zM850 469h-780v195h780v-195zM584 279q0 -15 -14 -36.5t-33.5 -40.5t-41 -32.5
t-36.5 -13.5t-36.5 13.5t-40.5 32.5t-32.5 40.5t-13.5 36.5q0 14 13.5 35t32.5 40.5t40.5 33t36.5 13.5t36.5 -13.5t41 -33t33.5 -40.5t14 -35z" />
    <glyph glyph-name="oslash" unicode="&#xf8;" horiz-adv-x="1124" 
d="M1061 463q0 -109 -38.5 -199.5t-106 -155t-158 -100t-195.5 -35.5q-74 0 -140.5 19t-123.5 51l-86 -109l-94 78l84 105q-65 65 -102.5 152.5t-37.5 193.5q0 110 39 200.5t106.5 155t159 100t195.5 35.5q143 0 258 -65l86 104l94 -78l-81 -100q66 -65 103.5 -154.5
t37.5 -197.5zM838 459q0 54 -15 100.5t-41 83.5l-356 -442q31 -19 65.5 -29t71.5 -10q55 0 105 22t88 61.5t60 94t22 119.5zM690 725q-29 17 -61 25t-66 8q-55 0 -105 -22t-87.5 -61.5t-59.5 -94.5t-22 -121q0 -51 13 -95t36 -79z" />
    <glyph glyph-name="ugrave" unicode="&#xf9;" horiz-adv-x="1053" 
d="M950 0h-223v123h-2q-29 -68 -98.5 -108t-186.5 -40q-76 0 -138 22.5t-106.5 64.5t-69 102t-24.5 135v629h244v-582q0 -31 10 -60t31 -51.5t54.5 -36.5t80.5 -14q45 0 79.5 13.5t58 36t35.5 52.5t12 62v580h243v-928zM682 1120l-119 -49q-71 42 -132.5 88t-117.5 105
q-12 14 -21 27t-9 24q0 10 10.5 26t25 30.5t30.5 25t28 10.5q11 0 28.5 -10t28.5 -27q25 -35 55.5 -69.5t63.5 -67.5t66 -62t63 -51z" />
    <glyph glyph-name="uacute" unicode="&#xfa;" horiz-adv-x="1053" 
d="M950 0h-223v123h-2q-29 -68 -98.5 -108t-186.5 -40q-76 0 -138 22.5t-106.5 64.5t-69 102t-24.5 135v629h244v-582q0 -31 10 -60t31 -51.5t54.5 -36.5t80.5 -14q45 0 79.5 13.5t58 36t35.5 52.5t12 62v580h243v-928zM770 1317q0 -8 -8 -20.5t-21 -26.5
q-57 -60 -119.5 -108t-134.5 -91l-108 47q30 23 63 52.5t65.5 62.5t63 68.5t56.5 70.5q11 17 26.5 26t26.5 9t26.5 -10.5t29.5 -25t24 -29.5t10 -25z" />
    <glyph glyph-name="ucircumflex" unicode="&#xfb;" horiz-adv-x="1053" 
d="M950 0h-223v123h-2q-29 -68 -98.5 -108t-186.5 -40q-76 0 -138 22.5t-106.5 64.5t-69 102t-24.5 135v629h244v-582q0 -31 10 -60t31 -51.5t54.5 -36.5t80.5 -14q45 0 79.5 13.5t58 36t35.5 52.5t12 62v580h243v-928zM834 1122l-119 -51q-51 31 -101 64.5t-94 70.5
q-86 -74 -186 -135l-111 49q30 22 63.5 51t66.5 62t63.5 67.5t54.5 69.5q11 17 28 27t29 10q13 0 29 -10t29 -27q24 -35 54.5 -69.5t63.5 -67t66.5 -61t63.5 -50.5z" />
    <glyph glyph-name="udieresis" unicode="&#xfc;" horiz-adv-x="1053" 
d="M950 0h-223v123h-2q-29 -68 -98.5 -108t-186.5 -40q-76 0 -138 22.5t-106.5 64.5t-69 102t-24.5 135v629h244v-582q0 -31 10 -60t31 -51.5t54.5 -36.5t80.5 -14q45 0 79.5 13.5t58 36t35.5 52.5t12 62v580h243v-928zM776 1174q0 -12 -11 -29.5t-27 -34t-33.5 -28
t-30.5 -11.5t-31 11.5t-34 28t-27 34t-11 29.5q0 13 11 30.5t27 34t34 28t31 11.5t30.5 -11.5t33.5 -28t27 -34t11 -30.5zM487 1174q0 -12 -11 -29.5t-27 -34t-33.5 -28t-30.5 -11.5q-12 0 -29 11.5t-33.5 28t-28 34t-11.5 29.5q0 13 11.5 30.5t28 34t33.5 28t29 11.5
q13 0 30.5 -11.5t33.5 -28t27 -34t11 -30.5z" />
    <glyph glyph-name="yacute" unicode="&#xfd;" horiz-adv-x="979" 
d="M948 928l-327 -838q-53 -134 -108 -230t-113 -163t-119.5 -110t-128.5 -70l-152 151q59 24 111.5 58t98.5 82t86 113.5t75 152.5l-340 854h241l152 -389q15 -42 34.5 -94t33.5 -105h4q17 50 36.5 103t34.5 94l154 391h227zM754 1317q0 -8 -8.5 -20.5t-22.5 -26.5
q-57 -62 -119.5 -109t-134.5 -90l-107 47q30 23 63 52.5t65 62.5t62.5 68.5t55.5 70.5q11 16 28 25.5t28 9.5q10 0 25 -10.5t29.5 -25t25 -29.5t10.5 -25z" />
    <glyph glyph-name="thorn" unicode="&#xfe;" horiz-adv-x="1112" 
d="M1047 471q0 -111 -36.5 -202.5t-101 -157t-153 -102t-191.5 -36.5q-33 0 -66 5.5t-62 14.5t-52 20.5t-35 23.5v-510h-239v1931h239v-596q32 35 91.5 62.5t148.5 27.5q54 0 108.5 -14t105.5 -41.5t95 -68.5t77 -94.5t52 -119t19 -143.5zM807 459q0 61 -20 112t-55 87.5
t-82 56.5t-101 20q-37 0 -67.5 -8.5t-55.5 -22t-44 -30.5t-32 -35v-379q10 -11 27.5 -24.5t42.5 -25.5t57.5 -20t71.5 -8q54 0 101 20t82 57t55 87.5t20 112.5z" />
    <glyph glyph-name="ydieresis" unicode="&#xff;" horiz-adv-x="979" 
d="M948 928l-327 -838q-53 -134 -108 -230t-113 -163t-119.5 -110t-128.5 -70l-152 151q59 24 111.5 58t98.5 82t86 113.5t75 152.5l-340 854h241l152 -389q15 -42 34.5 -94t33.5 -105h4q17 50 36.5 103t34.5 94l154 391h227zM754 1167q0 -12 -11 -29.5t-27 -33.5t-34 -27.5
t-31 -11.5t-30.5 11.5t-33.5 27.5t-27 33.5t-11 29.5q0 13 11 31t27 34.5t33.5 28t30.5 11.5t31 -11.5t34 -28t27 -34.5t11 -31zM465 1167q0 -12 -11 -29.5t-27 -33.5t-34 -27.5t-31 -11.5q-11 0 -28.5 11.5t-34 27.5t-28 33.5t-11.5 29.5q0 13 11.5 31t28 34.5t34 28
t28.5 11.5q13 0 31 -11.5t34 -28t27 -34.5t11 -31z" />
    <glyph glyph-name="OE" unicode="&#x152;" horiz-adv-x="1716" 
d="M1706 0h-750q-38 -6 -85.5 -10t-100.5 -4q-83 0 -167 19t-161 56.5t-144.5 93t-117 130t-78 166.5t-28.5 202q0 111 29 203.5t79 167t117 130.5t144.5 93.5t161 56.5t165.5 19q50 0 95 -4t85 -12h688v-215h-471v-328h392v-217h-392v-332h539v-215zM918 207v880
q-58 11 -119 11q-91 0 -175 -30t-148.5 -87t-103 -140.5t-38.5 -191.5q0 -107 38.5 -190t103.5 -140.5t150.5 -87.5t180.5 -30q58 0 111 6z" />
    <glyph glyph-name="oe" unicode="&#x153;" horiz-adv-x="1757" 
d="M1696 592q0 -19 -2.5 -38.5t-5.5 -35.5l-119 -119h-506q4 -36 25 -74.5t59.5 -71t92.5 -53t124 -20.5q82 0 149 21.5t115 52.5l-24 -221q-51 -26 -122.5 -43t-162.5 -17q-53 0 -109 11.5t-107.5 35.5t-94.5 60t-68 84q-31 -51 -73.5 -87.5t-92.5 -59.5t-105 -33.5
t-110 -10.5q-104 0 -194.5 36t-157.5 100.5t-105.5 155t-38.5 198.5q0 109 38.5 199.5t105.5 155t157.5 100.5t194.5 36q56 0 112.5 -11.5t107 -35t91 -58t64.5 -79.5q21 44 60 78t87.5 57.5t102.5 36t104 12.5q96 0 171.5 -31t128 -82t80.5 -116t28 -133zM1460 598
q0 29 -12 58.5t-33.5 53t-52.5 38t-70 14.5q-38 0 -75 -14t-67 -39t-51.5 -59.5t-29.5 -74.5h389q2 7 2 12v11zM821 461q0 62 -20.5 113.5t-56 88t-82 56.5t-97.5 20t-98 -20t-82.5 -56.5t-56.5 -88t-21 -113.5t21 -113t56.5 -88t82.5 -57.5t98 -20.5t97.5 20.5t82 57.5
t56 88t20.5 113z" />
    <glyph glyph-name="Ydieresis" unicode="&#x178;" horiz-adv-x="1300" 
d="M1270 1307l-494 -713v-594h-252v590l-493 717h278l240 -342q26 -38 55 -83t53 -87h5q24 42 54.5 89t55.5 81l238 342h260zM934 1567q0 -14 -13 -34.5t-32 -40t-40 -33t-36 -13.5t-36 13.5t-40 33t-32 40t-13 34.5q0 15 13 36.5t32 40.5t40 32.5t36 13.5t36 -13.5
t40 -32.5t32 -40.5t13 -36.5zM594 1567q0 -14 -13 -34.5t-32 -40t-40 -33t-36 -13.5q-14 0 -34.5 13.5t-40 33t-33 40t-13.5 34.5q0 15 13.5 36.5t33 40.5t40 32.5t34.5 13.5q15 0 36 -13.5t40 -32.5t32 -40.5t13 -36.5z" />
    <glyph glyph-name="tilde" unicode="&#x2dc;" horiz-adv-x="1024" 
d="M903 1348q-13 -24 -32.5 -53.5t-42.5 -59.5t-48 -59t-50 -51.5t-47.5 -36t-41.5 -13.5q-26 0 -56.5 15t-61 33t-57 33t-44.5 15q-16 0 -35.5 -14t-38.5 -34t-36 -42t-29 -39l-140 62q13 23 33 52.5t43.5 60t48.5 59t50 51t48.5 36t41.5 13.5q25 0 56 -15t61 -33t56.5 -33
t43.5 -15q16 0 35 14t38 34t36.5 42t29.5 39z" />
    <glyph glyph-name="endash" unicode="&#x2013;" horiz-adv-x="1024" 
d="M1028 385h-1028v156h1028v-156z" />
    <glyph glyph-name="emdash" unicode="&#x2014;" horiz-adv-x="2048" 
d="M2052 385h-2052v156h2052v-156z" />
    <glyph glyph-name="quoteleft" unicode="&#x2018;" horiz-adv-x="430" 
d="M362 924q0 -20 -16.5 -45.5t-39.5 -48t-48 -37.5t-43 -15q-15 0 -40 15t-49 37t-41 47.5t-17 46.5q0 45 19 101t49.5 112.5t69 108t77.5 87.5l79 -14q-24 -29 -45 -63t-37 -70t-26 -72t-12 -67q18 -3 39 -17.5t39 -33t30 -38t12 -34.5z" />
    <glyph glyph-name="quoteright" unicode="&#x2019;" horiz-adv-x="430" 
d="M362 1192q0 -45 -19 -101.5t-49.5 -112.5t-69 -108t-77.5 -88l-79 15q24 28 45 62t37 69.5t26 71t12 67.5q-18 3 -39 17.5t-39 33.5t-30 39t-12 35q0 20 16.5 45t39.5 46.5t48 36.5t43 15q15 0 40 -14.5t49 -36.5t41 -46.5t17 -45.5z" />
    <glyph glyph-name="quotedblleft" unicode="&#x201c;" horiz-adv-x="815" 
d="M750 924q0 -20 -16.5 -45.5t-40 -48t-48.5 -37.5t-43 -15q-15 0 -40 15t-49 37t-41 47.5t-17 46.5q0 45 19 101t49.5 112.5t69 108t77.5 87.5l80 -14q-25 -29 -46 -63t-37 -70t-26 -72t-12 -67q18 -3 39 -17.5t39 -33t30.5 -38t12.5 -34.5zM362 924q0 -20 -16.5 -45.5
t-39.5 -48t-48 -37.5t-43 -15q-15 0 -40 15t-49 37t-41 47.5t-17 46.5q0 45 19 101t49.5 112.5t69 108t77.5 87.5l79 -14q-24 -29 -45 -63t-37 -70t-26 -72t-12 -67q18 -3 39 -17.5t39 -33t30 -38t12 -34.5z" />
    <glyph glyph-name="quotedblright" unicode="&#x201d;" horiz-adv-x="815" 
d="M750 1192q0 -45 -19 -101.5t-49.5 -112.5t-69 -108t-77.5 -88l-80 15q24 28 45 62t36.5 69.5t25 71t11.5 67.5q-18 3 -38.5 17.5t-38 33.5t-29.5 39t-12 35q0 20 16.5 45t39.5 46.5t48 36.5t43 15q15 0 40 -14.5t49 -36.5t41.5 -46.5t17.5 -45.5zM362 1192
q0 -45 -19 -101.5t-49.5 -112.5t-69 -108t-77.5 -88l-79 15q24 28 45 62t37 69.5t26 71t12 67.5q-18 3 -39 17.5t-39 33.5t-30 39t-12 35q0 20 16.5 45t39.5 46.5t48 36.5t43 15q15 0 40 -14.5t49 -36.5t41 -46.5t17 -45.5z" />
    <glyph glyph-name="quotedblbase" unicode="&#x201e;" horiz-adv-x="817" 
d="M750 123q0 -45 -19 -101.5t-49.5 -112.5t-69 -108t-77.5 -88l-80 15q24 28 45 62t36.5 69.5t25 71t11.5 67.5q-18 3 -38.5 17.5t-38 33.5t-29.5 39t-12 35q0 20 16.5 45t39.5 46.5t48 36.5t43 15q15 0 40 -14.5t49 -36.5t41.5 -46.5t17.5 -45.5zM362 123
q0 -45 -19 -101.5t-49.5 -112.5t-69 -108t-77.5 -88l-79 15q24 28 45 62t37 69.5t26 71t12 67.5q-18 3 -39 17.5t-39 33.5t-30 39t-12 35q0 20 16.5 45t39.5 46.5t48 36.5t43 15q15 0 40 -14.5t49 -36.5t41 -46.5t17 -45.5z" />
    <glyph glyph-name="bullet" unicode="&#x2022;" horiz-adv-x="805" 
d="M731 567q0 -71 -25.5 -130t-70 -101.5t-104 -66t-128.5 -23.5q-68 0 -128 23.5t-104.5 66t-70.5 101.5t-26 130q0 72 25.5 131t70 101.5t104.5 66t129 23.5t128.5 -23.5t104 -66t70 -101.5t25.5 -131z" />
    <glyph glyph-name="ellipsis" unicode="&#x2026;" horiz-adv-x="1284" 
d="M1217 121q0 -18 -16.5 -43t-40 -48.5t-49.5 -40t-44 -16.5t-43 16t-48 39.5t-39.5 49t-16.5 43.5q0 17 16 41.5t39 47.5t48.5 39.5t43.5 16.5t44 -16t49.5 -39t40 -47.5t16.5 -42.5zM788 121q0 -18 -16 -43t-39 -48.5t-48.5 -40t-43.5 -16.5t-43.5 16t-48.5 39.5t-39 49
t-16 43.5q0 17 16 41.5t39 47.5t48.5 39.5t43.5 16.5t43 -16t48 -39t39.5 -47.5t16.5 -42.5zM362 121q0 -18 -16 -43t-39 -48.5t-48.5 -40t-43.5 -16.5t-43 16t-48 39.5t-39.5 49t-16.5 43.5q0 17 16 41.5t39 47.5t48.5 39.5t43.5 16.5t43 -16t48 -39t39.5 -47.5t16.5 -42.5
z" />
    <glyph glyph-name="guilsinglleft" unicode="&#x2039;" horiz-adv-x="440" 
d="M373 207l-33 -74q-25 32 -56 67.5t-66 71t-73 68t-75 59.5q-19 13 -29 31.5t-10 32.5t11 32.5t28 30.5q37 28 75 61t73 68t66 70.5t56 67.5l33 -74q-26 -69 -56 -132.5t-65 -123.5q35 -60 64 -123.5t57 -132.5z" />
    <glyph glyph-name="guilsinglright" unicode="&#x203a;" horiz-adv-x="440" 
d="M410 463q0 -14 -10.5 -32.5t-28.5 -31.5q-38 -27 -76 -59.5t-73.5 -68t-66.5 -71t-55 -67.5l-32 74q26 69 54.5 132.5t65.5 123.5q-37 60 -65.5 123.5t-54.5 132.5l32 74q24 -32 55 -67.5t66.5 -70.5t73.5 -68t76 -61q17 -12 28 -30.5t11 -32.5z" />
    <glyph glyph-name="Euro" unicode="&#x20ac;" horiz-adv-x="1018" 
d="M737 602l-28 -133h-289q17 -75 48 -129.5t71.5 -89.5t88 -51.5t97.5 -16.5q59 0 106 12t82 33l-24 -209q-18 -10 -41 -17.5t-50 -13t-56 -8t-58 -2.5q-87 0 -168.5 30.5t-149 92t-117 154t-71.5 215.5h-160v133h146q0 12 -1 24.5t-1 26.5q0 16 1 31t1 29h-146v133h162
q23 120 72.5 210t116.5 151t147.5 91.5t167.5 30.5q90 0 152 -16.5t108 -44.5l-43 -195q-37 25 -84.5 38t-101.5 13q-50 0 -95.5 -16.5t-84 -50.5t-67.5 -86.5t-46 -124.5h334l-27 -133h-326q-2 -16 -2 -31v-31q0 -12 1 -24.5t1 -24.5h334z" />
    <glyph glyph-name="trademark" unicode="&#x2122;" horiz-adv-x="872" 
d="M805 928h-88l-17 194l-100 -194h-35l-96 190l-14 -190h-88l30 379h68l123 -238l119 238h67zM340 1225h-107v-297h-88v299h-104v80h299v-82z" />
    <glyph glyph-name="Lslash" horiz-adv-x="922" 
d="M909 0h-790v463l-101 -57v217l101 57v627h258v-480l285 166v-219l-285 -164v-395h532v-215z" />
    </font>
</defs>
</svg>
